<svg xmlns="http://www.w3.org/2000/svg" fill="none" viewBox="63.91799999999999 56.816 3188.7980000000002 2222.926" style="max-height: 500px" width="3188.7980000000002" height="2222.926">
<g clip-path="url(#clip0_10846_2013)">
<mask height="3188" width="3464" y="-951" x="-101" maskUnits="userSpaceOnUse" style="mask-type:luminance" id="mask0_10846_2013">
<path fill="white" d="M1708.92 2236.96C2635.68 2236.96 3157.08 1835.82 3333.12 1049.63C3509.16 263.442 2844.06 156.856 2756.53 -314.307C2669.01 -785.47 1898.51 -1096.02 1220.36 -882.077C542.201 -668.217 -51.1754 77.024 -97.8874 698.13C-144.599 1319.15 328.755 2236.96 1708.92 2236.96Z"/>
</mask>
<g mask="url(#mask0_10846_2013)">
<path fill="#E2E2E2" d="M-163.462 712.93H-24.6552V916.897H108.582V503.199H247.388V747.083H469.395V417.002L599.807 282.027H780.255V537.696H952.308V282.027H2617.65V465.348H2789.7V313.685H2972.9V572.192H3133.89V859.432L3217.18 945.63V1072H3450.32C3450.32 1072 4149.76 2060.18 2922.94 2169.35C1696.13 2278.51 924.547 2307.25 780.255 2301.48C635.963 2295.72 191.866 2117.64 191.866 2117.64L-100.874 1887.87C-100.874 1887.87 -218.901 1692.51 -252.231 1640.8C-285.561 1589.1 -180.085 687.123 -180.085 687.123" opacity="0.64"/>
<path fill="#002F61" d="M2492.72 665.613H933.188C878.378 665.613 833.945 711.6 833.945 768.328V1703.94C833.945 1760.67 878.378 1806.66 933.188 1806.66H2492.72C2547.53 1806.66 2591.96 1760.67 2591.96 1703.94V768.328C2591.96 711.6 2547.53 665.613 2492.72 665.613Z"/>
<path fill="#002F61" d="M2591.97 1806.66H833.949L634.301 1910.67H2791.62L2591.97 1806.66Z"/>
<path fill="#999999" d="M739.359 1884.77L839.848 1832.47H2585.98L2686.47 1884.77H739.359Z"/>
<path fill="#002F61" d="M2706.17 2007.19H719.746C672.535 2007.19 634.301 1967.62 634.301 1918.75V1910.67H2791.62V1918.75C2791.62 1967.62 2753.38 2007.19 2706.17 2007.19Z"/>
<path fill="#C5E1FF" d="M2504.86 762.039H921.055V1710.21H2504.86V762.039Z"/>
<path fill="#BABABA" d="M2308.12 93.627H1109.74C1063.65 93.627 1026.29 132.296 1026.29 179.997V1771.9C1026.29 1819.6 1063.65 1858.27 1109.74 1858.27H2308.12C2354.21 1858.27 2391.57 1819.6 2391.57 1771.9V179.997C2391.57 132.296 2354.21 93.627 2308.12 93.627Z"/>
<path fill="white" d="M2341.62 145.324H1076.16V1806.65H2341.62V145.324Z"/>
<path fill="#F3B8A5" d="M1114.3 1085.59C1135.49 1052.47 1159.35 989.417 1157.93 939.35C1156.6 889.369 1243.46 877.067 1267.23 850.313C1291.09 823.473 1312.78 806.87 1324.67 820.634C1336.55 834.398 1279.87 902.014 1256.35 911.305C1256.35 911.305 1300.07 994.75 1307.05 1023.65C1314.03 1052.56 1278.21 1109.08 1264.91 1110.45C1251.61 1111.92 1258.59 1082.93 1258.59 1082.93C1258.59 1082.93 1205.73 1165.6 1165.58 1162.24C1125.44 1158.89 1114.21 1085.51 1114.21 1085.51L1114.3 1085.59Z"/>
<path fill="#DD938A" d="M1128.85 1058.85C1177.8 1094.98 1236.07 1113.65 1236.07 1113.65C1236.07 1113.65 1214.37 1142.98 1198.08 1151.93C1181.79 1160.87 1122.36 1075.36 1122.36 1075.36L1128.85 1058.85Z"/>
<path fill="#F3B8A5" d="M531.399 1118.89L509.622 1187.8L412.707 1144.36L459.003 988.562L531.399 1118.89Z"/>
<path fill="#DD938A" d="M524.913 1139.27C470.804 1120.26 430.242 1082.07 430.242 1082.07L462.159 998.795L536.965 1105.81L524.913 1139.27Z"/>
<path fill="#F3B8A5" d="M666.38 872.244C665.715 930.57 725.227 1019.61 725.227 1019.61L676.853 1036.98L660.23 1151.4C660.23 1151.4 531.48 1139.27 474.462 1073.8C417.443 1008.34 465.984 873.018 465.984 873.018C465.984 873.018 503.47 824.242 513.943 823.037C524.332 821.833 641.861 833.102 641.861 833.102L666.463 872.158L666.38 872.244Z"/>
<path fill="#262F38" d="M716.667 853.157C663.056 876.297 518.348 880.771 518.348 880.771L498.067 1009.64L430.244 1082.16C341.973 1006.54 304.986 939.268 304.154 877.244C303.905 859.695 305.484 843.005 309.058 827.177C321.36 770.228 357.682 724.978 419.937 697.966C499.564 663.556 590.744 689.019 622.578 697.966C654.412 706.999 615.346 638.092 579.107 647.039C542.951 656.071 625.487 578.046 707.939 646.265C742.516 674.911 759.057 711.73 762.631 746.743C767.618 795.089 747.753 839.737 716.667 853.157Z"/>
<path fill="#191E23" d="M716.667 853.148C663.056 876.289 518.348 880.763 518.348 880.763L498.067 1009.63L430.244 1082.15C341.973 1006.53 304.986 939.26 304.154 877.236C303.905 859.686 305.484 842.997 309.058 827.169C294.596 922.227 387.937 963.777 385.526 918.442C383.199 873.02 416.197 810.135 523.501 826.394C630.806 842.653 669.705 823.039 669.705 823.039C669.705 823.039 610.775 814.953 641.445 789.317C670.453 765.144 720.49 812.974 762.631 746.734C767.618 795.081 747.753 839.728 716.667 853.148Z" opacity="0.72"/>
<path fill="#F3B8A5" d="M512.53 972.137C503.885 903.231 466.233 892.735 447.366 919.661C428.581 946.587 441.547 1056.01 500.893 1032.01C560.239 1008.01 512.447 972.051 512.447 972.051L512.53 972.137Z"/>
<path fill="white" d="M650.171 1054.8C627.979 1054.71 611.688 1038.45 611.688 1038.45C611.688 1038.45 612.602 1080.86 639.864 1082.15L650.254 1054.88L650.171 1054.8Z"/>
<path fill="#262F38" d="M641.78 923.604C644.19 934.616 649.842 942.702 654.497 941.584C659.069 940.465 660.897 930.744 658.487 919.733C656.076 908.722 650.424 900.635 645.77 901.754C641.198 902.872 639.37 912.593 641.78 923.604Z"/>
<path fill="#DD938A" d="M491.335 976.004C479.865 933.594 465.984 942.368 462.576 970.757C459.085 999.145 485.101 1007.49 485.101 1007.49L491.335 976.004Z"/>
<path fill="#0056B2" d="M1198.08 1152.02C1198.08 1152.02 1149.21 1274 1093.69 1405.02C1093.69 1405.02 1093.52 1405.28 1093.52 1405.36C1038 1536.38 975.909 1676.26 949.311 1712.9C902.516 1777.34 761.964 1686.32 636.706 1594.7C619.251 1581.89 602.046 1569.15 585.506 1556.77C575.781 1549.54 566.306 1542.14 556.996 1534.57H556.913C436.31 1437.02 351.862 1320.97 351.862 1320.97L343.135 1221.61L341.473 1203.2C347.54 1202.6 353.442 1202 359.177 1201.48C445.619 1193.14 494.409 1191.42 501.308 1203.37C508.705 1216.02 526.825 1256.28 526.825 1256.28C526.825 1256.28 537.381 1264.28 554.42 1277.44C615.927 1324.84 761.964 1439.26 799.367 1484.68L1118.62 1071.67L1198.08 1152.02Z"/>
<path fill="#0056B2" d="M545.576 1271.54C545.992 1285.91 548.984 1397.31 548.153 1528.67V1528.84C547.405 1637.06 544.08 1758.96 534.521 1851.27C530.947 1886.62 526.376 1917.59 520.724 1941.85C481.16 2112.1 5.64453 1758.27 5.64453 1758.27C5.64453 1758.27 17.8628 1722.32 39.3071 1667.52C91.4218 1534.52 197.563 1290.72 314.094 1181.99C314.094 1181.99 362.219 1111.53 378.676 1113.86C402.281 1116.35 432.869 1124.01 462.209 1133.47C512.661 1149.73 559.54 1171.49 561.618 1181.99C564.776 1198.59 545.576 1269.99 545.576 1269.99V1271.54Z"/>
<path fill="#0E3F96" d="M553.064 1526.57C552.316 1634.79 548.992 1756.69 539.433 1849C535.443 1849.77 532.285 1965.48 532.285 1965.48C532.285 1965.48 338.954 1819.66 265.395 1784.13C191.919 1748.61 81.7048 1695.36 44.2188 1665.25C96.3334 1532.25 202.475 1288.45 319.005 1179.72C319.005 1179.72 367.13 1109.26 383.588 1111.59C407.193 1114.08 437.78 1121.74 467.121 1131.2C478.674 1165.35 383.588 1111.59 370.538 1162.94C368.128 1172.58 362.725 1182.64 355.245 1193.31C350.59 1199.85 345.187 1206.56 339.203 1213.44C303.13 1255.25 245.696 1304.11 211.534 1360.8C162.495 1442.1 189.508 1517.89 300.221 1609.16C410.933 1700.43 503.028 1670.06 487.401 1591.44C471.692 1512.81 368.294 1431.69 375.691 1396.85C383.006 1362.09 422.237 1424.03 552.981 1526.4C552.981 1526.4 552.981 1526.49 553.064 1526.57Z"/>
<path fill="#0E3F96" d="M1093.52 1405.35C1038 1536.37 975.91 1676.25 949.312 1712.9C902.517 1777.33 761.965 1686.31 636.707 1594.7C583.928 1537.92 557.912 1501.62 611.772 1532.84C684.749 1575.08 723.482 1655.43 869.603 1660.42C1015.64 1665.5 1004.34 1566.82 1093.52 1405.35Z"/>
<path fill="#3D3634" d="M2946.63 1265.82C2925.1 1310.3 2731.85 1426.17 2753.38 1353.14C2756.87 1341.35 2758.04 1331.03 2757.29 1321.56C2753.3 1272.27 2695.37 1246.29 2616.82 1161.04C2606.76 1150.2 2597.87 1137.47 2590.14 1123.45C2590.06 1123.28 2589.97 1123.1 2589.89 1123.02C2525.14 1006.11 2537.78 795.861 2632.2 742.439C2632.2 742.439 2859.19 783.216 2888.61 803.432C2917.96 823.562 2952.7 961.031 2952.7 961.031C2952.7 961.031 2968.07 1221.34 2946.63 1265.82Z"/>
<path fill="#3D3634" d="M2865.17 1199.06C2865.17 1199.06 2789.45 1292.82 2783.05 1311.58C2781.14 1317.34 2770.75 1320.27 2757.28 1321.56C2753.29 1272.26 2695.36 1246.28 2616.81 1161.03C2606.76 1150.19 2597.86 1137.46 2590.13 1123.44C2619.14 1173.76 2722.95 1247.66 2729.77 1223.92C2736.67 1200.17 2680.48 1191.92 2685.63 1175.31C2690.79 1158.62 2761.94 1176.43 2685.3 1125.33C2608.67 1074.23 2557.8 866.223 2614.15 789.918L2743.57 833.533L2859.68 1027.52L2865.17 1199.06Z"/>
<path fill="#F3B8A5" d="M2760.19 1068.65L2791.61 1168.26L2888.61 1124.82L2842.23 969.029L2760.19 1068.65Z"/>
<path fill="#DD938A" d="M2851.29 996.044C2845.97 1045.85 2776.9 1121.56 2776.9 1121.56L2765.01 1083.96L2819.95 996.044L2840.57 962.494L2851.21 996.044H2851.29Z"/>
<path fill="#F3B8A5" d="M2634.85 852.725C2635.51 911.05 2576 1000.09 2576 1000.09L2624.38 1017.46L2642.41 1141.17C2642.41 1141.17 2759.19 1106.16 2816.29 1040.78C2873.31 975.397 2835.33 853.499 2835.33 853.499C2835.33 853.499 2797.84 804.722 2787.37 803.518C2776.98 802.313 2659.45 813.583 2659.45 813.583L2634.85 852.639V852.725Z"/>
<path fill="#262F38" d="M2659.46 903.999C2657.05 915.01 2651.39 923.097 2646.74 921.978C2642.17 920.86 2640.34 911.139 2642.75 900.128C2645.16 889.116 2650.81 881.03 2655.47 882.148C2660.04 883.267 2661.87 892.988 2659.46 903.999Z"/>
<path fill="white" d="M2658.21 1038.88C2693.46 1022.96 2711.74 986.486 2711.74 986.486C2711.74 986.486 2724.13 1052.47 2670.43 1068.64L2658.13 1038.88H2658.21Z"/>
<path fill="#F3B8A5" d="M2171.22 1364.32C2137.98 1344.45 2089.44 1299.03 2069.07 1253.69C2048.71 1208.27 1965.67 1237.52 1932.84 1224.53C1899.93 1211.54 1873.33 1206.72 1868.68 1224.53C1864.02 1242.33 1943.81 1276.66 1968.92 1274.08C1968.92 1274.08 1965.76 1368.96 1972.07 1398.04C1978.31 1427.12 2034.74 1461.1 2047.21 1456.28C2059.68 1451.46 2040.98 1428.75 2040.98 1428.75C2040.98 1428.75 2124.01 1478.3 2158.42 1456.8C2192.83 1435.29 2171.31 1364.4 2171.31 1364.4L2171.22 1364.32Z"/>
<path fill="#DD938A" d="M2144.38 1345.31C2126.18 1412.49 2085.7 1450.43 2085.7 1450.43C2085.7 1450.43 2102.99 1464.88 2138.23 1460.32C2173.47 1455.76 2159.59 1358.9 2159.59 1358.9"/>
<path fill="#FFCA2E" d="M2955.02 1222.55C2955.02 1222.55 2925.27 1388.41 2847.64 1541.53C2810.15 1615.51 2767.18 1699.39 2723.71 1761.76C2722.38 1763.91 2720.88 1765.97 2719.39 1767.95C2674.42 1831.09 2629.12 1869.98 2589.39 1849.42C2541.18 1824.47 2380.02 1686.92 2260.99 1582.82L2255.51 1578.01H2255.42C2181.28 1513.06 2124.85 1462.39 2124.85 1462.39L2159.59 1358.9L2625.13 1575.86C2642.92 1501.87 2770.5 1245.52 2770.5 1245.52C2770.5 1245.52 2769.42 1201.13 2770.5 1186.33C2771.67 1171.54 2821.95 1148.74 2913.46 1112.35L2955.02 1222.55Z"/>
<path fill="#002F61" d="M2719.38 1767.96C2674.42 1831.1 2629.12 1869.98 2589.39 1849.42C2541.18 1824.48 2380.01 1686.92 2260.99 1582.83L2255.5 1578.01C2259.16 1580.16 2376.77 1651.14 2474.27 1734.41C2570.19 1816.3 2672.84 1830.59 2719.38 1767.96Z"/>
<path fill="#FFBF00" d="M3315.5 1797.8L3002.23 1987.66C3002.23 1987.66 2803.08 2073.77 2797.34 2032.73C2793.52 2004.86 2778.73 1835.99 2769 1680.12C2764.35 1606.22 2760.86 1535.25 2760.19 1483.63L2913.46 1112.35C2913.46 1112.35 2940.64 1104.77 2985.94 1168.26C2993.67 1179.1 3008.46 1204.74 3027.58 1239.66C3120.26 1408.96 3315.5 1797.8 3315.5 1797.8Z"/>
<path fill="#AD8200" d="M3315.5 1797.81L3002.23 1987.67C3002.23 1987.67 2803.08 2073.78 2797.35 2032.75C2793.53 2004.87 2778.73 1836 2769.01 1680.13C2841.65 1590.92 2891.35 1463.6 2913.46 1483.64C2936.4 1504.46 2847.88 1689.24 2811.65 1733.12C2775.49 1776.9 2793.94 1854.16 2888.61 1751.96C2983.2 1649.76 3081.94 1570.44 3087.18 1483.64C3092.33 1396.93 2907.81 1445.45 2871.49 1383.51C2845.14 1338.69 2953.86 1273.91 3027.58 1239.67C3120.26 1408.97 3315.5 1797.81 3315.5 1797.81Z"/>
<path fill="#3D3634" d="M3178.61 1285.26C3106.55 1437.61 2936.32 1404.32 2862.93 1364.58C2818.96 1340.83 2793.53 1294.81 2791.86 1245.77C2790.62 1212.91 2800.17 1178.67 2821.95 1148.74C2876.39 1074.07 2856.53 916.898 2798.76 917.845C2791.2 918.017 2782.89 918.275 2773.99 918.447C2714.4 919.393 2630.45 912.511 2612.83 781.322C2606.1 731.341 2660.54 639.551 2808.99 620.109C2921.03 605.399 3022.51 688.414 3042.05 775.042C3043.71 782.182 3044.71 789.236 3045.21 796.29C3051.36 889.972 2963.92 958.191 3051.36 981.59C3138.71 1005.07 3250.67 1132.82 3178.61 1285.26Z"/>
<path fill="#F3B8A5" d="M2767.5 937.106C2776.15 868.199 2813.8 857.704 2832.67 884.63C2851.45 911.556 2838.49 1020.98 2779.14 996.98C2719.8 972.979 2767.59 937.02 2767.59 937.02L2767.5 937.106Z"/>
<path fill="#DD938A" d="M2783.05 929.891C2788.37 903.223 2808.82 903.223 2811.48 919.826C2814.13 936.343 2788.37 969.033 2788.37 969.033L2783.05 929.891Z"/>
<path fill="#3D3634" d="M3178.61 1285.26C3106.55 1437.61 2936.32 1404.32 2862.93 1364.58C2818.96 1340.83 2793.53 1294.81 2791.86 1245.78C2830.35 1312.19 2981.29 1343.16 2992.51 1321.56C3005.48 1296.7 2885.2 1285.18 2900 1239.67C2914.79 1194.16 3088.68 1300.49 3129.4 1216.53C3170.13 1132.57 3149.43 1048.35 3070.22 1027.53C2991.01 1006.8 2955.52 1036.22 2958.02 986.408C2960.59 936.685 3038.72 888.769 3045.21 796.291C3051.36 889.973 2963.92 958.191 3051.36 981.59C3138.71 1005.08 3250.67 1132.82 3178.61 1285.26Z"/>
</g>
<path fill="#4C9FFA" d="M1876.1 1184H1856.1L1865.76 1125.82H1885.59C1891.37 1125.82 1896.16 1127.01 1899.97 1129.4C1903.77 1131.78 1906.44 1135.19 1907.98 1139.62C1909.53 1144.04 1909.8 1149.3 1908.77 1155.42C1907.79 1161.41 1905.85 1166.53 1902.95 1170.79C1900.05 1175.05 1896.33 1178.32 1891.78 1180.59C1887.24 1182.86 1882.01 1184 1876.1 1184ZM1868.15 1174.88H1876.64C1880.68 1174.88 1884.19 1174.11 1887.18 1172.58C1890.19 1171.03 1892.65 1168.73 1894.54 1165.68C1896.45 1162.61 1897.78 1158.8 1898.52 1154.26C1899.26 1149.9 1899.21 1146.3 1898.38 1143.46C1897.54 1140.6 1895.92 1138.47 1893.52 1137.07C1891.13 1135.65 1887.97 1134.94 1884.03 1134.94H1874.77L1868.15 1174.88ZM1952.62 1142.1C1952.7 1139.46 1951.89 1137.45 1950.21 1136.05C1948.54 1134.64 1946.14 1133.94 1943.02 1133.94C1940.82 1133.94 1938.88 1134.27 1937.2 1134.94C1935.53 1135.58 1934.18 1136.48 1933.16 1137.64C1932.14 1138.77 1931.5 1140.07 1931.26 1141.53C1931.05 1142.72 1931.15 1143.76 1931.57 1144.65C1931.99 1145.54 1932.62 1146.3 1933.47 1146.93C1934.35 1147.55 1935.33 1148.07 1936.43 1148.49C1937.55 1148.91 1938.68 1149.26 1939.84 1149.54L1945.07 1150.9C1947.15 1151.41 1949.14 1152.11 1951.03 1152.98C1952.93 1153.83 1954.56 1154.93 1955.95 1156.27C1957.35 1157.6 1958.37 1159.2 1959.01 1161.07C1959.66 1162.95 1959.76 1165.15 1959.33 1167.66C1958.76 1171.07 1957.39 1174.08 1955.21 1176.67C1953.05 1179.25 1950.21 1181.26 1946.68 1182.72C1943.18 1184.16 1939.1 1184.88 1934.44 1184.88C1929.93 1184.88 1926.13 1184.18 1923.02 1182.78C1919.91 1181.36 1917.64 1179.3 1916.2 1176.61C1914.78 1173.92 1914.33 1170.66 1914.84 1166.81H1925.21C1925 1168.84 1925.33 1170.52 1926.2 1171.87C1927.09 1173.21 1928.37 1174.22 1930.04 1174.88C1931.7 1175.54 1933.64 1175.88 1935.83 1175.88C1938.12 1175.88 1940.2 1175.53 1942.05 1174.85C1943.91 1174.15 1945.43 1173.19 1946.6 1171.95C1947.79 1170.7 1948.52 1169.25 1948.79 1167.58C1949.05 1166.08 1948.83 1164.83 1948.13 1163.83C1947.43 1162.83 1946.34 1161.99 1944.87 1161.33C1943.41 1160.65 1941.67 1160.04 1939.64 1159.51L1933.33 1157.81C1928.77 1156.56 1925.3 1154.68 1922.93 1152.18C1920.59 1149.68 1919.75 1146.35 1920.43 1142.18C1921 1138.73 1922.43 1135.73 1924.72 1133.18C1927.02 1130.6 1929.89 1128.6 1933.33 1127.18C1936.78 1125.74 1940.55 1125.02 1944.64 1125.02C1948.77 1125.02 1952.26 1125.74 1955.12 1127.18C1958 1128.62 1960.1 1130.63 1961.43 1133.2C1962.77 1135.76 1963.22 1138.73 1962.76 1142.1H1952.62ZM2022.16 1145.45H2011.71C2011.71 1143.71 2011.42 1142.16 2010.85 1140.82C2010.29 1139.45 2009.49 1138.3 2008.47 1137.35C2007.44 1136.41 2006.23 1135.7 2004.83 1135.22C2003.43 1134.73 2001.88 1134.48 2000.17 1134.48C1996.91 1134.48 1993.88 1135.31 1991.08 1136.95C1988.28 1138.6 1985.9 1141 1983.95 1144.14C1982 1147.27 1980.65 1151.06 1979.89 1155.53C1979.19 1159.89 1979.25 1163.54 1980.09 1166.47C1980.94 1169.41 1982.42 1171.62 1984.52 1173.12C1986.62 1174.6 1989.18 1175.34 1992.19 1175.34C1994.03 1175.34 1995.79 1175.11 1997.47 1174.65C1999.16 1174.18 2000.71 1173.49 2002.13 1172.58C2003.57 1171.65 2004.83 1170.52 2005.91 1169.2C2007.01 1167.87 2007.86 1166.37 2008.47 1164.68H2019.06C2018.19 1167.45 2016.91 1170.05 2015.23 1172.49C2013.54 1174.92 2011.52 1177.06 2009.15 1178.91C2006.78 1180.75 2004.13 1182.19 2001.19 1183.23C1998.26 1184.27 1995.1 1184.8 1991.71 1184.8C1986.5 1184.8 1982.04 1183.58 1978.33 1181.16C1974.63 1178.72 1971.98 1175.22 1970.37 1170.68C1968.76 1166.11 1968.48 1160.65 1969.52 1154.28C1970.56 1148.09 1972.57 1142.82 1975.54 1138.46C1978.53 1134.1 1982.18 1130.78 1986.48 1128.49C1990.8 1126.18 1995.45 1125.02 2000.43 1125.02C2003.72 1125.02 2006.72 1125.48 2009.4 1126.39C2012.11 1127.3 2014.43 1128.63 2016.37 1130.39C2018.3 1132.13 2019.76 1134.27 2020.77 1136.81C2021.79 1139.33 2022.26 1142.21 2022.16 1145.45Z"/>
<path fill="#4C9FFA" d="M1650.67 1297.02C1788.95 1301.19 2319.84 1316.56 2453.9 1320.44C2470.81 1320.93 2484.24 1332.56 2483.59 1346.11C2482.97 1359.01 2469.74 1368.91 2453.65 1368.5L1650.79 1348.22C1635.32 1347.83 1622.42 1338.04 1621.02 1325.64L1620.67 1322.5C1619.08 1308.31 1632.99 1296.48 1650.67 1297.02V1297.02Z"/>
<path fill="#B3D8FF" d="M1634.77 1447.3C1636.96 1450.58 1641.15 1452.71 1645.73 1452.89L2196.69 1473.61C2203.61 1473.87 2209.36 1469.65 2209.62 1464.1L2211.02 1434.98C2211.3 1429.19 2205.53 1424.24 2198.31 1424.06L1662.39 1410.63C1638.52 1410.03 1623.33 1430.19 1634.76 1447.29L1634.77 1447.3Z"/>
<path fill="#4C9FFA" d="M1637.12 1560.36C1775.41 1564.52 2306.29 1579.9 2440.35 1583.78C2457.26 1584.27 2470.7 1595.9 2470.05 1609.45C2469.43 1622.35 2456.19 1632.24 2440.1 1631.84L1637.24 1611.56C1621.78 1611.17 1608.88 1601.38 1607.48 1588.98L1607.12 1585.84C1605.53 1571.65 1619.44 1559.82 1637.12 1560.36V1560.36Z"/>
<path fill="#B3D8FF" d="M1621.22 1710.63C1623.41 1713.91 1627.6 1716.05 1632.18 1716.23L2183.14 1736.95C2190.06 1737.21 2195.8 1732.99 2196.07 1727.44L2197.46 1698.32C2197.74 1692.53 2191.97 1687.58 2184.76 1687.39L1648.83 1673.97C1624.97 1673.37 1609.78 1693.52 1621.21 1710.63L1621.22 1710.63Z"/>
<path fill="#0057C0" d="M1571.04 2103.7C1575.81 2039.28 1596.42 1976.12 1628.79 1920.73C1645.05 1893.06 1664.17 1867.15 1686.07 1844.05C1691.68 1838.43 1697.16 1832.64 1702.91 1827.17C1708.82 1821.9 1714.6 1816.44 1720.65 1811.33C1726.84 1806.41 1732.97 1801.38 1739.32 1796.7L1749.03 1789.91L1753.88 1786.53L1756.31 1784.83C1757.18 1784.25 1758.37 1783.51 1759.42 1782.91C1776.47 1772.94 1800.95 1772.48 1817.48 1790.07C1821.51 1794.3 1824.31 1799.38 1826.4 1804.37C1827.35 1806.87 1828.27 1809.42 1828.83 1811.89C1829.54 1814.41 1829.92 1816.83 1830.32 1819.29C1831.77 1829.04 1831.36 1838.11 1830.5 1846.87C1830.07 1851.24 1829.39 1855.54 1828.67 1859.72L1826.45 1871.54C1825.04 1879.42 1823.37 1887.26 1821.75 1895.1C1818.48 1910.78 1814.77 1926.36 1810.89 1941.88C1795.06 2003.88 1774.11 2064.4 1748.19 2122.44L1738.27 2144.09C1734.79 2151.22 1731.41 2158.4 1727.86 2165.49L1722.48 2176.1L1719.79 2181.4L1716.83 2186.93C1712.73 2194.29 1708.16 2201.44 1702.82 2208.24C1697.47 2215.01 1691.41 2221.52 1683.86 2226.98C1676.38 2232.39 1666.95 2236.79 1656.49 2237.32C1653.89 2237.6 1651.3 2237.32 1648.72 2237.02C1646.09 2236.88 1643.69 2235.97 1641.2 2235.35C1636.26 2233.94 1631.57 2231.4 1627.46 2228.31C1619.16 2222.08 1613.21 2213.45 1609.52 2204.16C1605.95 2194.99 1604.39 2185.4 1604.33 2176.08C1604.22 2166.77 1605.54 2157.9 1607.34 2149.53C1609.19 2141.14 1611.47 2133.29 1614 2125.61L1617.72 2114.01L1621.92 2102.61C1633.17 2072.21 1648.05 2043.46 1665.43 2016.63C1682.75 1989.74 1703.2 1965.21 1725.72 1943.16L1729.93 1939.01L1734.31 1935.06L1743.09 1927.19C1746.08 1924.65 1749.15 1922.21 1752.18 1919.73C1755.23 1917.27 1758.21 1914.71 1761.4 1912.45C1767.68 1907.8 1773.9 1903.05 1780.47 1898.84L1785.32 1895.59L1787.75 1893.97C1788.19 1893.69 1788.5 1893.45 1789.03 1893.13L1790.63 1892.18C1794.96 1889.77 1799.69 1888.16 1804.57 1887.62C1814.29 1886.4 1824.79 1889.47 1832.35 1896.77C1836.25 1900.41 1839.37 1905.62 1840.79 1910.99C1842.28 1916.37 1842.23 1921.55 1841.8 1926.22C1841.33 1930.9 1840.39 1935.18 1839.38 1939.23L1836.33 1950.78L1830.26 1973.66C1822.24 2004.18 1813.89 2034.63 1805.72 2065.11L1805.7 2065.18L1793.07 2062.79C1794.01 2052.53 1796.61 2042.17 1801.96 2032.87C1804.68 2028.25 1808 2023.97 1812.18 2020.41C1816.36 2016.79 1821.21 2014.26 1826.32 2012.66C1831.45 2011.13 1836.94 2010.58 1842.44 2011.55C1845.17 2012.02 1847.91 2012.83 1850.49 2014.12C1851.8 2014.7 1853.02 2015.49 1854.25 2016.26L1856.8 2017.96C1862.98 2021.65 1870.69 2022.34 1877.04 2019.38C1878.64 2018.7 1880.11 2017.73 1881.51 2016.66C1882.17 2016.07 1882.88 2015.55 1883.47 2014.87L1884.44 2013.89L1885.58 2012.59L1894.79 2002.19L1913.2 1981.38L1931.6 1960.58L1940.81 1950.18C1943.07 1947.66 1946.31 1945.44 1949.92 1944.67C1953.53 1943.86 1957.27 1944.4 1960.46 1945.93C1963.65 1947.46 1966.41 1949.97 1968.3 1953.24C1970.19 1956.5 1971.01 1960.6 1970.58 1964.34C1970.53 1965.3 1970.33 1966.19 1970.1 1967.07C1969.88 1967.9 1969.59 1968.99 1969.44 1969.39L1968.33 1972.67L1966.24 1979.28C1963.54 1988.12 1961.26 1997.1 1959.35 2006.17C1957.46 2015.24 1955.95 2024.41 1954.87 2033.62C1954.75 2034.75 1954.59 2035.97 1954.5 2037.04L1954.42 2039.85C1954.31 2040.8 1954.47 2041.71 1954.59 2042.62C1954.76 2043.51 1954.69 2044.48 1955.01 2045.33C1955.74 2048.91 1957.54 2052.12 1959.75 2054.92C1961.96 2057.77 1965.02 2059.86 1968.24 2061.31C1969.84 2062.14 1971.58 2062.45 1973.28 2062.92C1975.02 2063.08 1976.75 2063.36 1978.48 2063.13C1981.91 2062.84 1985.33 2061.89 1988.25 2059.82L1989.39 2059.14L1990.41 2058.24L1992.49 2056.45L1997.24 2051.52C2009.9 2038.34 2022.02 2024.57 2033.52 2010.25C2056.47 1981.56 2077.03 1950.71 2094.81 1918.17L2101.33 1905.87L2104.48 1899.66L2106.06 1896.56L2106.45 1895.78C2106.47 1895.69 2106.43 1895.74 2106.43 1895.74C2106.5 1895.7 2106.4 1895.81 2106.43 1895.89C2106.41 1896.41 2106.63 1896.51 2106.58 1896.47C2106.58 1896.47 2106.67 1896.54 2106.87 1896.51C2107.06 1896.47 2107.33 1896.42 2107.33 1896.37C2107.33 1896.37 2107.33 1896.37 2107.3 1896.37L2106.73 1896.98L2105.6 1898.2C2104.84 1899 2104.1 1899.83 2103.37 1900.67C2101.88 1902.32 2100.46 1904.04 2099.03 1905.75C2093.41 1912.66 2088.29 1920.06 2083.79 1927.86C2081.53 1931.75 2079.42 1935.74 2077.46 1939.82C2076.49 1941.86 2075.54 1943.91 2074.64 1945.99L2073.33 1949.12L2072.67 1950.69L2072.24 1952.1C2069.69 1959.46 2069.65 1967.58 2072.83 1974.57C2075.92 1981.5 2081.58 1987.41 2088.46 1990.05C2091.82 1991.62 2095.49 1991.95 2099.07 1992.05C2102.65 1991.69 2106.29 1991.08 2109.62 1989.26L2112.15 1988.03L2115 1986.28C2116.89 1985.09 2118.82 1983.97 2120.68 1982.72C2124.45 1980.31 2128.16 1977.8 2131.84 1975.24C2161.23 1954.69 2187.54 1929.2 2209.42 1900.01L2209.44 1900C2211.65 1897.05 2215.69 1896.56 2218.48 1898.9C2221.27 1901.24 2221.73 1905.53 2219.53 1908.49C2196.77 1938.84 2169.45 1965.29 2138.94 1986.63C2135.12 1989.29 2131.27 1991.89 2127.36 1994.39C2125.43 1995.68 2123.42 1996.86 2121.46 1998.09L2118.49 1999.91L2114.92 2001.69C2110.21 2004.17 2104.84 2005.26 2099.52 2005.68C2094.19 2005.64 2088.75 2004.99 2083.83 2002.76C2073.81 1998.81 2065.7 1990.49 2061.15 1980.27C2056.48 1970.05 2056.51 1957.66 2060.19 1947.32L2060.83 1945.35L2061.53 1943.65L2062.95 1940.28C2063.92 1938.03 2064.95 1935.82 2065.99 1933.61C2068.12 1929.22 2070.39 1924.92 2072.83 1920.71C2077.69 1912.3 2083.22 1904.31 2089.3 1896.82C2090.84 1894.96 2092.38 1893.11 2093.99 1891.32C2094.78 1890.41 2095.59 1889.51 2096.41 1888.64L2097.64 1887.32L2098.25 1886.67C2098.64 1886.29 2099.09 1885.89 2099.51 1885.53C2101.29 1884.09 2103.69 1882.97 2106.15 1882.89C2108.59 1882.75 2110.92 1883.41 2112.89 1884.57C2116.76 1886.8 2119.66 1891.6 2119.27 1896.91C2119.15 1898.15 2118.93 1899.46 2118.5 1900.52C2118.3 1901.05 2118.05 1901.66 2117.85 1902.11L2117.45 1902.91L2115.84 1906.08L2112.62 1912.43L2105.96 1925C2087.78 1958.26 2066.78 1989.78 2043.32 2019.08C2031.58 2033.72 2019.2 2047.79 2006.25 2061.25L2001.39 2066.3L1998.28 2069.03L1996.69 2070.38L1994.93 2071.49C1990.32 2074.66 1984.8 2076.32 1979.34 2076.74C1976.58 2077.04 1973.85 2076.7 1971.13 2076.37C1968.47 2075.73 1965.78 2075.13 1963.3 2073.91C1958.31 2071.68 1953.64 2068.41 1950.08 2063.94C1946.53 2059.53 1943.7 2054.28 1942.49 2048.53C1942.04 2047.14 1942.03 2045.66 1941.8 2044.23C1941.63 2042.78 1941.43 2041.34 1941.55 2039.91L1941.7 2035.6L1942.09 2031.94C1943.22 2022.29 1944.8 2012.71 1946.77 2003.21C1948.77 1993.73 1951.16 1984.33 1953.99 1975.09L1956.17 1968.18L1957.32 1964.75C1957.58 1964.04 1957.53 1963.96 1957.62 1963.65C1957.71 1963.38 1957.79 1963.12 1957.76 1962.89C1957.87 1961.92 1957.71 1961.12 1957.26 1960.3C1956.81 1959.51 1956.02 1958.77 1955.13 1958.35C1953.22 1957.56 1951.81 1957.84 1950.18 1959.51L1940.98 1969.91L1922.57 1990.71L1904.16 2011.51L1894.96 2021.91L1893.81 2023.21L1892.37 2024.72C1891.41 2025.77 1890.3 2026.65 1889.23 2027.56C1887.01 2029.3 1884.62 2030.83 1882.06 2031.93C1871.86 2036.64 1859.86 2035.49 1850.45 2029.83L1847.29 2027.75C1846.58 2027.33 1845.9 2026.85 1845.13 2026.53C1843.66 2025.78 1842.03 2025.3 1840.35 2025.01C1836.98 2024.4 1833.32 2024.73 1829.84 2025.77C1822.76 2027.88 1816.95 2032.98 1812.9 2040C1808.88 2046.98 1806.63 2055.43 1805.86 2064.05L1793.23 2061.66L1793.24 2061.59C1800.48 2030.84 1807.55 2000.04 1814.94 1969.34L1820.44 1946.29L1823.15 1934.87C1823.97 1931.24 1824.61 1927.75 1824.84 1924.55C1825.06 1921.35 1824.92 1918.43 1824.19 1916.23C1823.47 1914 1822.4 1912.3 1820.66 1910.72C1817.03 1907.4 1811.82 1905.93 1806.73 1906.73C1804.19 1907.08 1801.69 1908.03 1799.44 1909.37L1798.61 1909.89L1797.52 1910.65L1795.25 1912.27L1790.7 1915.49C1784.55 1919.66 1778.75 1924.35 1772.88 1928.93C1769.9 1931.16 1767.13 1933.68 1764.29 1936.1C1761.48 1938.55 1758.62 1940.94 1755.83 1943.43L1747.68 1951.15L1743.59 1954.99L1739.65 1959C1718.59 1980.32 1699.53 2003.91 1683.52 2029.67C1667.44 2055.34 1653.79 2082.76 1643.64 2111.57L1639.85 2122.37L1636.52 2133.34C1634.23 2140.65 1632.24 2148 1630.8 2155.08C1627.84 2169.23 1627.74 2182.82 1632.28 2193.87C1634.46 2199.12 1637.85 2203.63 1641.85 2206.5C1643.86 2207.93 1645.94 2209.05 1648.25 2209.6C1650.58 2210.23 1652.83 2210.61 1655.11 2210.37C1659.64 2210.09 1664.5 2208.09 1669.3 2204.57C1674.1 2201.06 1678.68 2196.19 1682.87 2190.79C1687.05 2185.37 1690.88 2179.34 1694.32 2173.02L1696.85 2168.2L1699.43 2163.01L1704.59 2152.63C1707.99 2145.68 1711.24 2138.66 1714.57 2131.69L1724.07 2110.5C1748.75 2053.68 1769.07 1994.73 1784.33 1934.33C1788.07 1919.21 1791.64 1904.04 1794.79 1888.77C1796.35 1881.13 1797.95 1873.5 1799.31 1865.82L1801.44 1854.32C1802.05 1850.71 1802.59 1847.18 1802.93 1843.67C1803.61 1836.71 1803.81 1829.78 1802.86 1823.87C1801.93 1817.93 1800.11 1813.16 1797.52 1810.49C1796.32 1808.98 1794.67 1808.03 1792.84 1807.02C1790.77 1806.22 1788.69 1805.39 1786.38 1805.28C1781.84 1804.85 1776.84 1805.98 1772.36 1808.52C1771.76 1808.86 1771.33 1809.12 1770.62 1809.58L1768.36 1811.14L1763.83 1814.26L1754.77 1820.49C1748.8 1824.78 1743.14 1829.53 1737.25 1833.94C1731.52 1838.58 1726.04 1843.57 1720.41 1848.37C1714.94 1853.37 1709.73 1858.68 1704.36 1863.81C1683.57 1885.11 1664.74 1908.7 1648.57 1934.27C1616.07 1985.32 1593.7 2043.89 1583.79 2105.37C1583.2 2109.08 1579.88 2111.59 1576.37 2110.96C1573.07 2110.37 1570.78 2107.17 1571.02 2103.7H1571.04Z"/>
</g>
<defs>
<clipPath id="clip0_10846_2013">
<rect fill="white" height="3551" width="3551"/>
</clipPath>
</defs>
</svg>