<svg xmlns="http://www.w3.org/2000/svg" width="3951" height="2661" fill="none"><g clip-path="url(#a)"><path fill="#AFD2F6" d="M3556.14 2110.28h142.26c51.91 0 94.3-43.01 94.3-95.46v-54.16c0-52.55-42.49-95.46-94.3-95.46H99.361c-51.909 0-94.302 43.01-94.302 95.46v54.16c0 52.55 42.488 95.46 94.302 95.46h168.162c24.211 17.35 40.132 45.87 40.132 78v54.17c0 32.13-15.921 60.64-40.132 78H99.361c-51.909 0-94.302 43.01-94.302 95.46v54.16c0 52.54 42.488 95.46 94.302 95.46H3698.3c51.91 0 94.31-43.01 94.31-95.46v-54.16c0-52.55-42.49-95.46-94.31-95.46h-142.25c-24.21-17.36-40.23-45.87-40.23-78v-54.17c0-32.13 15.92-60.65 40.14-78z"/><path fill="#C5E1FF" d="M16.27 2370.9c-7.066 13.44-11.211 28.7-11.211 44.91v54.17c0 52.54 42.488 95.45 94.302 95.45H3698.3c51.91 0 94.31-43.01 94.31-95.45v-54.17a95.16 95.16 0 0 0-11.21-44.91z" style="mix-blend-mode:multiply"/><path stroke="#006FE6" stroke-miterlimit="10" d="M95.875 1860.82H3701.88M13.727 2464.73H3784.03" opacity=".51"/><path fill="#D5EBFF" d="M564.271 2022.92c-19.074-178.06-26.435-313.75-30.313-493.65-5.065-235.9 6.886-488.37 111.438-679.326C761.345 638.242 987.465 548.37 1169.98 641.446c136.44 69.526 244.64 226.521 387.81 266.09 177.69 49.101 353.94-97.561 483.9-268.173 130.04-170.612 240.61-375.506 399.77-493.893 221.77-165.005 508.83-125.596 721.97 55.349 213.14 180.944 356.16 485.963 425.57 810.851 69.41 324.88 70.99 669.87 47.01 1007L564.192 2023z" opacity=".2"/><path fill="#002F61" d="M913.037 1956.37H182.829c-59.728 0-108.622 45.29-108.622 100.7 0 55.4 48.894 100.7 108.622 100.7h730.208v-201.4"/><mask id="b" width="797" height="150" x="117" y="1982" maskUnits="userSpaceOnUse" style="mask-type:luminance"><path fill="#fff" d="M913.038 1982.59H220.419c-56.619 0-102.97 33.48-102.97 74.38 0 40.91 46.351 74.38 102.97 74.38h692.619z"/></mask><g mask="url(#b)"><path fill="#fff" d="M913.038 1982.59H220.419c-56.619 0-102.97 33.48-102.97 74.38 0 40.91 46.351 74.38 102.97 74.38h692.619z"/><path fill="#160833" d="M129.414 2022.36c-7.631 10.39-11.965 22.12-11.965 34.62 0 40.9 46.351 74.38 102.97 74.38h170.14c-97.223-12.69-205.468-40.63-261.24-109z" opacity=".19"/><path stroke="#AFD2F6" stroke-miterlimit="10" d="M117.449 2004.43h812.923M117.449 2039.52h812.923M117.449 2074.52h812.923M117.449 2109.52h812.923"/></g><path fill="#160833" d="M913.037 1842.51H182.829c-59.728 0-108.622 25.56-108.622 56.93s48.894 56.93 108.622 56.93h730.208v-113.86"/><mask id="c" width="797" height="85" x="117" y="1857" maskUnits="userSpaceOnUse" style="mask-type:luminance"><path fill="#fff" d="M913.038 1857.39H220.419c-56.619 0-102.97 18.88-102.97 42.05s46.351 42.05 102.97 42.05h692.619z"/></mask><g mask="url(#c)"><path fill="#fff" d="M913.038 1857.39H220.419c-56.619 0-102.97 18.88-102.97 42.05s46.351 42.05 102.97 42.05h692.619z"/><path fill="#160833" d="M129.414 1879.89c-7.631 5.82-11.965 12.49-11.965 19.55 0 23.17 46.351 42.06 102.97 42.06h170.14c-97.223-7.16-205.468-22.89-261.24-61.61z" opacity=".19"/><path stroke="#AFD2F6" stroke-miterlimit="10" d="M117.449 1869.78h812.923M117.449 1889.52h812.923M117.449 1909.36h812.923M117.449 1929.1h812.923"/></g><path fill="#fff" d="M545.532 1790.06c7.18 0 13.001-5.89 13.001-13.16s-5.821-13.16-13.001-13.16-13.001 5.89-13.001 13.16 5.821 13.16 13.001 13.16M623.348 1790.06c7.18 0 13.001-5.89 13.001-13.16s-5.821-13.16-13.001-13.16-13 5.89-13 13.16 5.82 13.16 13 13.16" opacity=".36"/><path fill="#fff" d="M568.423 1293.71c11.776 0 23.458 4.58 33.067 11.92 9.61 7.35 17.617 16.88 23.364 27.85 11.305 22.22 13.566 47.2 14.508 70.28.848 23.17 3.768 45.96 1.507 68.94-2.166 22.89-5.275 45.78-12.812 68.66h-2.638c-6.783-23.07-9.138-46.06-10.551-69.04-1.507-22.88 2.261-45.96 3.674-68.66 1.319-22.41 1.507-44.63-5.558-64.75-6.972-19.74-22.704-38.33-44.843-42.53l.188-2.57z" opacity=".59"/><path stroke="#AFD2F6" stroke-linecap="round" stroke-linejoin="round" stroke-width="2" d="M392.067 492.31c-3.58 0-6.501-2.956-6.501-6.579V367.58c0-3.624 2.921-6.58 6.501-6.58s6.5 2.956 6.5 6.58v118.151c0 3.623-2.92 6.579-6.5 6.579"/><path stroke="#AFD2F6" stroke-linecap="round" stroke-linejoin="round" stroke-width="2" d="M327.156 426.703c0-3.624 2.921-6.58 6.501-6.58h116.724c3.58 0 6.5 2.956 6.5 6.58s-2.92 6.58-6.5 6.58H333.657c-3.58 0-6.501-2.957-6.501-6.58M20.228 1162.78c-3.014-1.9-3.957-6-2.072-9.05l62.177-100.04c1.884-3.05 5.935-4 8.95-2.09 3.014 1.9 3.957 6 2.073 9.05l-62.178 100.04c-1.884 3.05-5.935 4-8.95 2.09"/><path stroke="#AFD2F6" stroke-linecap="round" stroke-linejoin="round" stroke-width="2" d="M-.028 1072.29c1.884-3.05 5.935-4.01 8.95-2.1l98.824 62.94c3.015 1.91 3.957 6.01 2.073 9.06s-5.935 4-8.95 2.1l-98.824-62.94c-3.015-1.91-3.957-6.01-2.073-9.06M3360 255.723c-3.1-1.812-4.14-5.913-2.35-8.964l58.97-101.94c1.79-3.147 5.84-4.195 8.86-2.384 3.11 1.812 4.14 5.913 2.35 8.964l-58.97 101.94c-1.79 3.147-5.84 4.196-8.86 2.384"/><path stroke="#AFD2F6" stroke-linecap="round" stroke-linejoin="round" stroke-width="2" d="M3336.83 165.894c1.79-3.147 5.84-4.196 8.85-2.384l100.71 59.695c3.11 1.812 4.15 5.912 2.36 8.964-1.79 3.146-5.84 4.195-8.86 2.384l-100.71-59.696c-3.1-1.811-4.14-5.912-2.35-8.963M2363.66 10.935c-3.58 0-6.5-2.956-6.5-6.58v-118.15c0-3.624 2.92-6.58 6.5-6.58s6.5 2.956 6.5 6.58V4.355c0 3.624-2.92 6.58-6.5 6.58M1827.52 72.156c-3.58 0-6.5-2.956-6.5-6.58v-118.15c0-3.624 2.92-6.58 6.5-6.58s6.5 2.956 6.5 6.58v118.15c0 3.624-2.92 6.58-6.5 6.58"/><path stroke="#AFD2F6" stroke-linecap="round" stroke-linejoin="round" stroke-width="2" d="M1762.7 6.549c0-3.624 2.92-6.58 6.5-6.58h116.73c3.58 0 6.5 2.956 6.5 6.58s-2.92 6.58-6.5 6.58H1769.2c-3.58 0-6.5-2.957-6.5-6.58M619.016 175.049c38.19 0 69.149-31.338 69.149-69.994S657.206 35.06 619.016 35.06s-69.149 31.338-69.149 69.995c0 38.656 30.959 69.994 69.149 69.994M173.692 757.125c0 28.99-23.269 52.543-51.908 52.543s-51.909-23.553-51.909-52.543 23.27-52.543 51.909-52.543 51.908 23.554 51.908 52.543M3886.41 1270.43c35.69-13.76 53.6-54.2 40.01-90.33-13.59-36.12-53.54-54.25-89.23-40.49-35.69 13.75-53.6 54.19-40.01 90.32 13.59 36.12 53.54 54.25 89.23 40.5"/><path fill="#fff" stroke="#006FE6" stroke-miterlimit="10" stroke-width=".75" d="M2886.7 352.131H921.045c-65.851 0-119.738 54.546-119.738 121.202V1786.34l-436.09 318.03h4.145c-16.392 12.96-27.038 33.09-27.038 55.69 0 38.9 31.466 70.66 69.809 70.66H3385.53c38.44 0 69.81-31.85 69.81-70.66 0-19.74-8.1-37.67-21.1-50.54h1.22l-429.02-323.18V473.333c0-66.656-53.89-121.202-119.74-121.202Z"/><path fill="#AFD2F6" d="M2796.92 493.549H1020.81c-66.127 0-119.736 54.264-119.736 121.202v984.779c0 66.94 53.609 121.2 119.736 121.2h1776.11c66.13 0 119.74-54.26 119.74-121.2V614.751c0-66.938-53.61-121.202-119.74-121.202"/><path stroke="#AFD2F6" stroke-miterlimit="10" d="M391.688 2104.27c1014.242 1.15 2017.372 1.15 3028.792 0"/><path fill="#AFD2F6" d="M3340.69 2200.39h-129.72c-13.76 0-24.97-11.34-24.97-25.27 0-13.92 11.21-25.27 24.97-25.27h129.72c13.75 0 24.97 11.35 24.97 25.27 0 13.93-11.22 25.27-24.97 25.27M2998.15 1851.38l-161.38-1.43h-9.98l-157.99-1.43h-10.18l-143.85-1.34h-10.36l-146.78-1.33h-10.55l-149.89-1.44h-10.83l-153-1.43h-11.02l-156.29-1.43h-11.3l-159.69-1.52h-11.49l-163.17-1.53h-11.78l-653.613-5.81-277.726 216.27 198.591-.76-.282.28h15.921l.282-.38 204.715-.86-.283.29h15.545l.28-.38 199.44-.76-.19.28h15.17l.19-.38 2008.42-8.01-237.21-186.81zm-6.69 2.28 24.02 19.08-155.25-1.15-20.82-19.26zm-1678.32 62.85 156.67.57-12.62 25.56-161.19-.39zm-30.71 25.74-178.62-.38 22.71-26.03 173.43.67-17.52 25.84zm200.38-25.08 178.81.67-7.16 25.27-183.8-.38 12.25-25.56zm191.34.67 174.57.67-1.98 24.98-179.47-.38 6.78-25.27zm186.91.76 170.61.67 3.01 24.7-175.22-.38zm182.67.67 166.65.67 7.73 24.41-171.09-.38zm178.43.77 162.88.66 12.25 24.13-167.13-.38zm174.47.66 159.31.57 16.48 23.94-163.35-.38-12.53-24.13zm170.52.67 155.82.57 20.63 23.65-159.59-.38-16.77-23.84zm-2.07-2.96-15.93-22.6 151.68.86 19.5 22.32-155.35-.67zm-11.22 0-158.83-.66-11.78-22.79 154.98.85zm-170.23-.66-162.41-.67-7.54-22.98 158.46.86zm-174.19-.77-166.18-.66-3.11-23.27 161.94.86 7.25 23.07zm-178.15-.66-170.04-.67 1.5-23.56 165.62.96 2.83 23.27zm-182.29-.77-174-.66 6.4-23.75 169.48.95-1.88 23.56zm-186.63-.76-178.15-.76 11.5-24.03 173.34.95-6.78 23.74zm-190.96-.76-156.1-.67 16.11-24.22 151.86.86zm-169.29-.77-172.87-.66 21.29-24.51 167.97.95-16.48 24.22zm-186.34-.76-176.833-.76 26.755-24.7 171.738.95zm-2.74 3.24-23.08 26.13-182.856-.38 28.451-26.32 177.485.67zm-26.09 29.37-24.59 27.85H873.095l30.335-28.23zm13.94.1 179.28.38-18.65 27.47h-184.75l24.21-27.85zm192.94.38 161.85.38-13.38 27.18h-166.65l18.27-27.56zm175.13.38 184.46.38-7.63 26.9h-189.92l13-27.28zm197.56.38 180.03.39-2.07 26.51h-185.22zm192.75.39 175.79.38 3.2 26.22h-180.69zm188.13.47 171.65.38 8.19 25.94h-176.35zm183.8.38 167.69.39 13 25.65h-172.12l-8.47-26.04zm179.47.39 163.83.38 17.52 25.36h-168.07l-13.28-25.65zm175.41.38 160.16.38 21.85 25.08h-164.2l-17.81-25.37zm171.46.28 175.42.38 26.47 24.8h-179.75l-22.14-25.08zm-2.73-3.05-20.91-23.65 170.8.67 24.96 23.36zm-23.36-26.51-19.79-22.31 166.37.95 23.65 22.12-170.33-.66zm-22.24-24.98-18.74-21.17 162.22 1.14 22.42 20.98zm-10.64-.1-151.3-.86-14.98-21.36 147.81 1.05zm-162.23-.95-154.59-.86-11.21-21.55 150.92 1.05 14.79 21.36zm-165.71-.96-157.99-.95-7.16-21.74 154.22 1.14zm-169.39-.95-161.47-.95-2.92-21.94 157.52 1.15zm-173.15-.95-165.15-.96 1.41-22.21 161.01 1.14 2.63 22.03zm-177.02-1.05-168.91-.96 6.02-22.4 164.59 1.14-1.79 22.22zm-181.16-1.05-172.78-.95 10.83-22.6 168.35 1.24-6.31 22.4zm-185.21-1.05-151.3-.86 15.16-22.79 147.35 1.05-11.21 22.7zm-164.12-.95-167.4-.96 20.06-23.07 162.89 1.14zm-180.4-1.05-171.181-.96 25.154-23.26 166.467 1.14zm-184.558-1.05-151.77-.86 29.77-23.46 147.53 1.05zm-3.204 3.05-27.131 24.79-156.951-.66 31.654-24.99 152.334.86zm-30.617 27.94-28.922 26.42-162.415-.39 33.726-26.6 157.517.57zm-32.596 29.75-30.806 28.13H690.143l36.081-28.51zm-34.857 31.76-32.973 30.13-174.568.29 38.625-30.42zm14.79 0h190.022l-26.29 29.75-196.233.29zm204.522.09h185.5l-19.97 29.37-191.34.29 25.81-29.75zm199.54 0h167.31l-14.32 29.09-172.49.28zm181.07.1h190.58l-8.1 28.7-196.33.29 13.94-28.99zm204.05 0h185.87l-2.26 28.32-191.33.29zm198.97.09h181.35l3.39 27.94-186.53.29 1.88-28.23zm194.07 0h176.92l8.67 27.66-181.92.28-3.77-27.94zm189.45 0h172.68l13.76 27.28-177.4.28zm184.93.1h168.63l18.66 26.99-173.16.28zm180.5 0h164.68l23.18 26.6-169.01.29-18.94-26.89zm176.27.09h180.31l28.08 26.32-184.84.29zm191.62 0h172.49l32.6 25.94-176.74.29zm-3.39-3.14-26.76-24.7 167.97.38 30.81 24.41h-171.93zm-30.06-27.75-25.24-23.36 163.64.66 29.11 23.08-167.41-.38zm-28.26-26.23-23.93-22.12 159.5.86 27.51 21.84-163.17-.67zm-26.85-24.79-22.61-20.88 155.63 1.14 26.1 20.69zm-56.15-42.82 20.64 19.27-161.76-1.15-17.24-19.45zm-168.53-1.43 16.95 19.46-147.43-1.05-13.85-19.65 144.23 1.24zm-154.69-1.33 13.56 19.64-150.54-1.14-10.27-19.84 147.25 1.24zm-157.8-1.34 9.98 19.84-153.75-1.15-6.59-19.93 150.26 1.34zm-161.1-1.43 6.31 20.03-157.04-1.15-2.74-20.12 153.47 1.34zm-164.58-1.33 2.45 20.21-160.53-1.14 1.32-20.31 156.76 1.33zm-168.07-1.53-1.6 20.31-164.11-1.24 5.56-20.5 160.15 1.34zm-171.74-1.43-5.84 20.5-167.79-1.24 9.9-20.69 163.64 1.43zm-175.51-1.52-10.27 20.69-146.87-1.05 13.75-20.69h-12.05l-14.04 20.6-162.32-1.15 18.18-20.88h-12.34l-18.47 20.79-165.897-1.24 22.797-21.08h-12.53l-23.079 20.98-146.965-1.05 27.226-21.45 642.968 5.53zm-908.262 203.59 42.77-33.66 175.227-.29-36.458 33.28zm197.366-.67 35.987-33.28 196.989-.38-29.11 32.9zm219.316-.86 28.55-32.8 192.09-.38-22.05 32.42-198.68.76zm213.76-.76 21.57-32.42 173.16-.29-.57 1.15h14.32l.57-1.24 197.08-.38-.38 1.14h13.95l.28-1.24 192.09-.38v1.14h13.47v-1.14l187.29-.38v1.14h13.38l-.19-1.14 182.57-.29.38 1.15h12.91l-.38-1.15 178.05-.28.57 1.14h12.53l-.57-1.14 173.72-.29.76 1.14h12.24l-.75-1.14 169.48-.29 25.44 29.18zm1605.31-6.1-25.82-29.18 185.41-.29 30.8 28.8zm202.36-.77-31.09-28.79 177.3-.29 35.7 28.42zM462.064 2175.12c0 8.39-6.689 15.17-14.979 15.17-8.291 0-14.98-6.78-14.98-15.17s6.689-15.16 14.98-15.16c8.29 0 14.979 6.77 14.979 15.16M551.845 2175.12c0 8.39-6.689 15.17-14.979 15.17s-14.979-6.78-14.979-15.17 6.689-15.16 14.979-15.16 14.979 6.77 14.979 15.16M641.622 2175.12c0 8.39-6.689 15.17-14.979 15.17s-14.979-6.78-14.979-15.17 6.689-15.16 14.979-15.16 14.979 6.77 14.979 15.16M731.404 2175.12c0 8.39-6.689 15.17-14.98 15.17-8.29 0-14.979-6.78-14.979-15.17s6.689-15.16 14.979-15.16c8.291 0 14.98 6.77 14.98 15.16"/><g filter="url(#d)"><mask id="e" width="1929" height="1156" x="939" y="531" maskUnits="userSpaceOnUse" style="mask-type:luminance"><path fill="#fff" d="M2744.82 531.406H1062.64c-67.949 0-123.035 55.759-123.035 124.54v906.394c0 68.78 55.086 124.54 123.035 124.54h1682.18c67.95 0 123.04-55.76 123.04-124.54V655.946c0-68.781-55.09-124.54-123.04-124.54"/></mask><g mask="url(#e)"><path fill="#fff" d="M2744.82 531.406H1062.64c-67.949 0-123.035 55.759-123.035 124.54v906.394c0 68.78 55.086 124.54 123.035 124.54h1682.18c67.95 0 123.04-55.76 123.04-124.54V655.946c0-68.781-55.09-124.54-123.04-124.54"/><path stroke="#006FE6" stroke-miterlimit="10" d="M2682.18 574.414H1125.29c-62.9 0-113.9 51.617-113.9 115.29v838.786c0 63.67 51 115.29 113.9 115.29h1556.89c62.9 0 113.9-51.62 113.9-115.29V689.704c0-63.673-51-115.29-113.9-115.29Z"/><path fill="#002F61" d="M1142.34 1388.88c-63.21-62.84-124.73-125.49-182.762-193.39-6.689-7.82-13.284-15.54-19.973-23.36v390.12c0 68.56 55.395 124.54 123.035 124.54h376.65c-98.64-99.75-197.56-199.12-297.04-298zM2576 746.633c97.41 88.399 194.64 176.988 291.86 265.477V656.042c0-68.564-55.39-124.54-123.04-124.54h-403.87c79.42 70.375 156.39 143.802 235.05 215.227zM1347.69 902.891h-20l9.66-58.182h19.83c5.78 0 10.57 1.193 14.38 3.579q5.7 3.58 8.01 10.228c1.55 4.413 1.82 9.678.79 15.795q-1.47 8.977-5.82 15.369c-2.9 4.262-6.62 7.529-11.17 9.802-4.54 2.272-9.77 3.409-15.68 3.409m-7.95-9.12h8.49c4.04 0 7.55-.767 10.54-2.301 3.01-1.553 5.47-3.854 7.36-6.903 1.91-3.068 3.24-6.875 3.98-11.421q1.11-6.534-.15-10.795c-.83-2.86-2.45-4.991-4.85-6.392-2.39-1.421-5.55-2.131-9.49-2.131h-9.26zm45.47 9.12 7.27-43.637h10.28l-7.27 43.637zm13.92-49.887c-1.65 0-3.01-.549-4.09-1.647-1.08-1.099-1.56-2.415-1.42-3.949q.195-2.301 2.07-3.949 1.905-1.648 4.35-1.648c1.64 0 3 .549 4.06 1.648 1.08 1.098 1.55 2.415 1.42 3.949-.11 1.534-.81 2.85-2.08 3.949-1.25 1.098-2.68 1.647-4.31 1.647m23.19 67.159c-3.72 0-6.81-.502-9.29-1.505-2.49-.985-4.4-2.311-5.74-3.978-1.35-1.666-2.18-3.513-2.5-5.539l9.66-2.245c.28.853.74 1.695 1.36 2.529.64.852 1.59 1.553 2.84 2.102 1.25.568 2.92.852 5 .852 2.92 0 5.46-.71 7.64-2.13 2.18-1.421 3.53-3.731 4.04-6.932l1.3-8.267h-.51c-.68 1.06-1.62 2.149-2.81 3.267-1.17 1.117-2.66 2.055-4.46 2.812q-2.67 1.137-6.42 1.137c-3.35 0-6.26-.786-8.72-2.358-2.46-1.591-4.24-3.959-5.31-7.103-1.07-3.162-1.2-7.121-.4-11.875.77-4.791 2.23-8.835 4.37-12.13 2.16-3.315 4.75-5.824 7.76-7.529q4.515-2.585 9.54-2.585c2.56 0 4.6.436 6.11 1.307 1.52.852 2.66 1.884 3.44 3.096.78 1.194 1.34 2.321 1.7 3.381h.54l1.2-7.216h10.14l-7.33 44.347c-.61 3.731-2 6.818-4.18 9.261-2.18 2.462-4.91 4.29-8.21 5.483-3.27 1.212-6.86 1.818-10.76 1.818m4.2-25.966q3.27 0 5.85-1.59 2.595-1.592 4.32-4.574c1.16-1.989 1.96-4.375 2.42-7.159q.675-4.12-.06-7.216-.705-3.097-2.76-4.801-2.04-1.733-5.34-1.733c-2.29 0-4.3.596-6.02 1.789-1.71 1.194-3.11 2.832-4.21 4.915-1.07 2.065-1.83 4.413-2.27 7.046q-.615 4.005 0 7.017.66 2.982 2.64 4.659 2.025 1.647 5.43 1.647m29.55 8.694 7.27-43.637h10.28l-7.27 43.637zm13.92-49.887c-1.65 0-3.02-.549-4.09-1.647-1.08-1.099-1.56-2.415-1.43-3.949.14-1.534.83-2.851 2.08-3.949q1.905-1.648 4.35-1.648c1.64 0 3 .549 4.06 1.648 1.08 1.098 1.55 2.415 1.42 3.949-.12 1.534-.81 2.85-2.08 3.949-1.25 1.098-2.69 1.647-4.31 1.647m36 6.25-1.34 7.955h-25.05l1.3-7.955zM1488.8 848.8h10.28l-6.81 40.966c-.21 1.382-.17 2.443.11 3.181.3.72.79 1.213 1.45 1.478.68.265 1.45.397 2.3.397.62 0 1.21-.047 1.76-.142.55-.113.99-.198 1.31-.255l.45 8.039c-.62.19-1.47.398-2.53.625q-1.56.341-3.75.398-3.915.085-6.81-1.193c-1.92-.871-3.32-2.206-4.21-4.006q-1.305-2.727-.6-6.818zm30.96 54.971c-2.77 0-5.17-.492-7.22-1.477-2.04-1.004-3.55-2.481-4.51-4.432-.95-1.951-1.19-4.356-.71-7.216.41-2.462 1.21-4.498 2.38-6.108 1.2-1.609 2.65-2.897 4.38-3.863a21.8 21.8 0 0 1 5.68-2.216c2.06-.493 4.17-.852 6.31-1.08q3.915-.397 6.33-.738c1.63-.228 2.85-.569 3.67-1.023q1.215-.71 1.47-2.159v-.171q.51-3.21-1.02-4.971c-1.02-1.174-2.73-1.762-5.11-1.762-2.5 0-4.61.55-6.31 1.648-1.7 1.099-2.95 2.396-3.72 3.892l-9.32-1.363q1.755-3.978 4.83-6.648c2.05-1.799 4.4-3.144 7.07-4.034q4.035-1.364 8.61-1.364c2.08 0 4.12.246 6.11.739q3.015.738 5.31 2.443c1.55 1.117 2.69 2.642 3.41 4.574.74 1.932.86 4.346.37 7.244l-4.86 29.205h-9.88l1.02-5.995h-.34q-1.23 1.819-3.18 3.409c-1.31 1.042-2.86 1.885-4.66 2.529-1.8.625-3.84.937-6.11.937m3.89-7.557c2.07 0 3.92-.407 5.57-1.221 1.65-.833 3-1.932 4.06-3.296s1.73-2.85 1.99-4.46l.85-5.142c-.38.265-.96.512-1.76.739q-1.185.34-2.67.596c-.97.171-1.92.322-2.87.455l-2.44.341q-2.355.312-4.32 1.023-1.935.71-3.21 1.988-1.245 1.25-1.56 3.239c-.31 1.875.14 3.305 1.33 4.29 1.2.966 2.87 1.448 5.03 1.448m49.55-51.505-9.66 58.182h-10.29l9.66-58.182zm59.76 16.278c.08-2.632-.73-4.649-2.41-6.051-1.67-1.401-4.07-2.102-7.19-2.102q-3.3 0-5.82.994c-1.67.644-3.02 1.544-4.04 2.699-1.02 1.136-1.66 2.434-1.9 3.892-.21 1.193-.11 2.235.31 3.125s1.05 1.648 1.9 2.273c.88.625 1.86 1.146 2.96 1.562 1.12.417 2.25.767 3.41 1.051l5.23 1.364c2.08.511 4.07 1.203 5.96 2.074 1.9.852 3.53 1.951 4.92 3.295q2.1 1.989 3.06 4.801c.65 1.875.75 4.072.32 6.591-.57 3.409-1.94 6.411-4.12 9.006-2.16 2.576-5 4.593-8.53 6.051q-5.25 2.16-12.24 2.159c-4.51 0-8.31-.7-11.42-2.102-3.11-1.42-5.38-3.475-6.82-6.165-1.42-2.689-1.87-5.956-1.36-9.801h10.37q-.315 3.04.99 5.057 1.335 2.017 3.84 3.011c1.66.663 3.6.995 5.79.995 2.29 0 4.37-.341 6.22-1.023 1.86-.701 3.38-1.667 4.55-2.898q1.785-1.875 2.19-4.375.39-2.244-.66-3.75c-.7-1.004-1.79-1.837-3.26-2.5-1.46-.682-3.2-1.288-5.23-1.818l-6.31-1.705c-4.56-1.25-8.03-3.125-10.4-5.625-2.34-2.5-3.18-5.833-2.5-10q.855-5.17 4.29-9.005 3.45-3.864 8.61-5.995 5.175-2.159 11.31-2.159c4.13 0 7.62.72 10.48 2.159 2.88 1.44 4.98 3.447 6.31 6.023 1.34 2.557 1.79 5.521 1.33 8.892zm12.95 41.904 7.27-43.637h10.29l-7.28 43.637zm13.92-49.887c-1.65 0-3.01-.549-4.09-1.647-1.08-1.099-1.55-2.415-1.42-3.949q.195-2.301 2.07-3.949 1.905-1.648 4.35-1.648c1.65 0 3 .549 4.06 1.648 1.08 1.098 1.55 2.415 1.42 3.949q-.165 2.3-2.07 3.949-1.875 1.647-4.32 1.647m23.19 67.159c-3.71 0-6.81-.502-9.29-1.505-2.48-.985-4.39-2.311-5.74-3.978-1.34-1.666-2.18-3.513-2.5-5.539l9.66-2.245c.28.853.74 1.695 1.36 2.529.65.852 1.59 1.553 2.84 2.102 1.25.568 2.92.852 5 .852q4.38 0 7.65-2.13c2.17-1.421 3.52-3.731 4.03-6.932l1.31-8.267h-.51c-.69 1.06-1.62 2.149-2.82 3.267-1.17 1.117-2.66 2.055-4.46 2.812q-2.67 1.137-6.42 1.137c-3.35 0-6.26-.786-8.72-2.358q-3.69-2.387-5.31-7.103c-1.06-3.162-1.19-7.121-.4-11.875q1.17-7.187 4.38-12.13c2.15-3.315 4.74-5.824 7.75-7.529 3.01-1.723 6.19-2.585 9.55-2.585 2.55 0 4.59.436 6.1 1.307 1.52.852 2.67 1.884 3.44 3.096q1.17 1.791 1.71 3.381h.54l1.19-7.216h10.14l-7.33 44.347c-.6 3.731-2 6.818-4.17 9.261-2.18 2.462-4.92 4.29-8.21 5.483q-4.92 1.818-10.77 1.818m4.2-25.966c2.18 0 4.13-.53 5.86-1.59 1.72-1.061 3.16-2.586 4.31-4.574 1.16-1.989 1.96-4.375 2.42-7.159q.675-4.12-.06-7.216c-.47-2.065-1.39-3.665-2.75-4.801q-2.055-1.733-5.34-1.733c-2.3 0-4.3.596-6.03 1.789q-2.55 1.79-4.2 4.915c-1.08 2.065-1.84 4.413-2.27 7.046q-.63 4.005 0 7.017.645 2.982 2.64 4.659c1.34 1.098 3.15 1.647 5.42 1.647m44.09-16.875-4.2 25.569h-10.31l7.27-43.637h9.86l-1.25 7.415h.54c1.36-2.443 3.27-4.384 5.74-5.824 2.46-1.439 5.33-2.159 8.6-2.159q4.47 0 7.5 1.932 3.045 1.903 4.32 5.596c.85 2.444.99 5.408.4 8.893l-4.66 27.784h-10.28l4.34-26.194c.5-2.897.13-5.17-1.1-6.818-1.22-1.666-3.17-2.5-5.86-2.5-1.8 0-3.45.398-4.97 1.193-1.51.777-2.79 1.904-3.83 3.381-1.03 1.477-1.73 3.267-2.11 5.369m46.65 26.449c-2.76 0-5.17-.492-7.21-1.477-2.05-1.004-3.56-2.481-4.52-4.432-.95-1.951-1.18-4.356-.71-7.216.42-2.462 1.21-4.498 2.39-6.108a13.8 13.8 0 0 1 4.37-3.863 22 22 0 0 1 5.68-2.216c2.07-.493 4.17-.852 6.31-1.08q3.915-.397 6.33-.738c1.63-.228 2.85-.569 3.67-1.023.81-.474 1.31-1.193 1.48-2.159v-.171c.34-2.14 0-3.797-1.03-4.971-1.02-1.174-2.72-1.762-5.11-1.762-2.5 0-4.6.55-6.31 1.648q-2.55 1.648-3.72 3.892l-9.32-1.363q1.77-3.978 4.83-6.648 3.075-2.699 7.08-4.034c2.69-.909 5.56-1.364 8.6-1.364 2.09 0 4.12.246 6.11.739q3.015.738 5.31 2.443c1.56 1.117 2.69 2.642 3.41 4.574.74 1.932.87 4.346.37 7.244l-4.85 29.205h-9.89l1.02-5.995h-.34q-1.215 1.819-3.18 3.409c-1.31 1.042-2.86 1.885-4.66 2.529-1.8.625-3.84.937-6.11.937m3.89-7.557c2.07 0 3.92-.407 5.57-1.221 1.65-.833 3-1.932 4.06-3.296 1.07-1.363 1.73-2.85 1.99-4.46l.86-5.142q-.57.398-1.77.739-1.185.34-2.67.596c-.96.171-1.92.322-2.87.455-.94.133-1.76.246-2.44.341q-2.355.312-4.32 1.023-1.92.71-3.21 1.988-1.245 1.25-1.56 3.239c-.3 1.875.14 3.305 1.34 4.29 1.19.966 2.86 1.448 5.02 1.448m58.67-36.96-1.34 7.955h-25.05l1.3-7.955zm-17.19-10.454h10.29l-6.82 40.966c-.21 1.382-.17 2.443.11 3.181.3.72.79 1.213 1.45 1.478.68.265 1.45.397 2.3.397.63 0 1.21-.047 1.76-.142.55-.113.99-.198 1.31-.255l.45 8.039q-.93.285-2.52.625-1.575.341-3.75.398c-2.62.057-4.89-.341-6.82-1.193-1.92-.871-3.32-2.206-4.21-4.006-.87-1.818-1.07-4.091-.59-6.818zm49.37 35.738 4.23-25.284h10.29l-7.28 43.637h-9.97l1.31-7.756h-.46q-2.04 3.665-5.85 5.994c-2.52 1.553-5.41 2.33-8.69 2.33-2.86 0-5.28-.635-7.25-1.904q-2.955-1.931-4.2-5.596c-.81-2.462-.94-5.436-.37-8.921l4.66-27.784h10.28l-4.37 26.193c-.44 2.766-.04 4.963 1.19 6.591 1.25 1.629 3.11 2.444 5.57 2.444 1.52 0 3.04-.37 4.57-1.108 1.56-.739 2.91-1.838 4.07-3.296 1.15-1.477 1.91-3.324 2.27-5.54m17.82 18.353 7.27-43.637h9.97l-1.22 7.273h.46c1.19-2.519 2.87-4.46 5.05-5.824q3.3-2.073 7.05-2.074c.59 0 1.22.029 1.9.085.68.038 1.27.105 1.76.199l-1.59 9.461c-.43-.152-1.12-.285-2.04-.398a19 19 0 0 0-2.7-.199c-1.88 0-3.62.407-5.23 1.222a11.6 11.6 0 0 0-4.03 3.323q-1.65 2.131-2.13 4.915l-4.24 25.654zm49.2.852c-4.37 0-7.99-.909-10.85-2.727-2.86-1.837-4.87-4.432-6.02-7.784q-1.71-5.057-.57-11.904c.74-4.489 2.24-8.428 4.52-11.818q3.405-5.114 8.52-7.955c3.43-1.912 7.22-2.869 11.36-2.869 2.69 0 5.16.436 7.42 1.307 2.25.852 4.16 2.178 5.71 3.977q2.325 2.699 3.21 6.875.885 4.148-.09 9.887l-.48 3.153h-35.79l1.1-6.932h25.91c.34-1.97.23-3.721-.34-5.256-.57-1.553-1.51-2.774-2.84-3.664s-2.98-1.336-4.97-1.336c-2.03 0-3.92.521-5.68 1.563a14.5 14.5 0 0 0-4.41 3.977c-1.19 1.629-1.95 3.343-2.27 5.142l-1.16 6.648c-.42 2.727-.33 4.953.28 6.676q.915 2.586 3.18 3.807c1.52.814 3.43 1.222 5.74 1.222 1.52 0 2.92-.209 4.21-.625a10.3 10.3 0 0 0 3.43-1.875c1.03-.853 1.88-1.894 2.56-3.125l9.4 1.079a18.85 18.85 0 0 1-4.57 6.648c-2.01 1.875-4.41 3.333-7.22 4.375-2.78 1.023-5.88 1.534-9.29 1.534m104.73-39.404H2034c0-1.742-.29-3.285-.85-4.63-.57-1.364-1.37-2.519-2.39-3.466s-2.23-1.657-3.64-2.131c-1.4-.492-2.95-.738-4.66-.738q-4.875 0-9.09 2.471c-2.8 1.648-5.18 4.044-7.13 7.188-1.95 3.125-3.3 6.922-4.06 11.392-.7 4.356-.63 8.002.2 10.937.85 2.936 2.33 5.152 4.43 6.648 2.1 1.477 4.66 2.216 7.67 2.216 1.84 0 3.6-.227 5.29-.682a17.4 17.4 0 0 0 4.66-2.074 16.2 16.2 0 0 0 3.77-3.381c1.1-1.325 1.95-2.831 2.56-4.517h10.6a29 29 0 0 1-3.84 7.813 29.4 29.4 0 0 1-6.08 6.42q-3.555 2.757-7.95 4.319c-2.94 1.041-6.1 1.562-9.49 1.562q-7.815 0-13.38-3.636c-3.69-2.443-6.35-5.938-7.96-10.483-1.61-4.565-1.89-10.029-.85-16.392 1.04-6.193 3.05-11.468 6.02-15.824 3-4.356 6.64-7.68 10.94-9.972q6.48-3.465 13.95-3.466c3.3 0 6.29.455 8.98 1.364q4.065 1.363 6.96 4.006c1.93 1.742 3.4 3.882 4.4 6.42 1.02 2.519 1.49 5.398 1.39 8.636m22.07 39.404c-4.37 0-7.99-.909-10.85-2.727-2.86-1.837-4.87-4.432-6.02-7.784q-1.71-5.057-.57-11.904c.74-4.489 2.24-8.428 4.51-11.818 2.28-3.409 5.12-6.061 8.53-7.955 3.42-1.912 7.21-2.869 11.36-2.869 2.69 0 5.16.436 7.42 1.307 2.25.852 4.15 2.178 5.71 3.977q2.325 2.699 3.21 6.875.87 4.148-.09 9.887l-.48 3.153h-35.8l1.11-6.932h25.91c.34-1.97.23-3.721-.34-5.256-.57-1.553-1.52-2.774-2.84-3.664-1.33-.89-2.99-1.336-4.97-1.336-2.03 0-3.92.521-5.69 1.563a14.5 14.5 0 0 0-4.4 3.977c-1.19 1.629-1.95 3.343-2.27 5.142l-1.17 6.648c-.41 2.727-.32 4.953.29 6.676q.9 2.586 3.18 3.807c1.51.814 3.43 1.222 5.74 1.222q2.265 0 4.2-.625a10.2 10.2 0 0 0 3.44-1.875c1.02-.853 1.87-1.894 2.56-3.125l9.4 1.079a19 19 0 0 1-4.57 6.648c-2.01 1.875-4.42 3.333-7.22 4.375-2.78 1.023-5.88 1.534-9.29 1.534m28.3-.852 7.27-43.637h9.97l-1.22 7.273h.45c1.2-2.519 2.88-4.46 5.06-5.824q3.3-2.073 7.05-2.074c.58 0 1.22.029 1.9.085.68.038 1.27.105 1.76.199l-1.59 9.461c-.44-.152-1.12-.285-2.05-.398a19 19 0 0 0-2.7-.199q-2.805 0-5.22 1.222a11.6 11.6 0 0 0-4.04 3.323q-1.65 2.131-2.13 4.915l-4.23 25.654zm63.2-43.637-1.34 7.955h-25.05l1.3-7.955zm-17.19-10.454h10.29l-6.82 40.966c-.21 1.382-.17 2.443.11 3.181.3.72.79 1.213 1.45 1.478.68.265 1.45.397 2.3.397.63 0 1.21-.047 1.76-.142.55-.113.99-.198 1.31-.255l.45 8.039q-.93.285-2.52.625-1.575.341-3.75.398c-2.62.057-4.89-.341-6.82-1.193-1.92-.871-3.32-2.206-4.21-4.006-.87-1.818-1.07-4.091-.59-6.818zm18.52 54.091 7.27-43.637h10.28l-7.27 43.637zm13.92-49.887c-1.65 0-3.01-.549-4.09-1.647-1.08-1.099-1.56-2.415-1.42-3.949q.195-2.301 2.07-3.949 1.905-1.648 4.35-1.648c1.64 0 3 .549 4.06 1.648 1.08 1.098 1.55 2.415 1.42 3.949-.11 1.534-.81 2.85-2.07 3.949q-1.875 1.647-4.32 1.647m36.34 6.25-1.34 7.955h-25.79l1.33-7.955zm-26.65 43.637 7.98-47.756c.46-2.936 1.45-5.379 2.99-7.33 1.55-1.95 3.44-3.409 5.65-4.375 2.24-.966 4.61-1.448 7.13-1.448 1.8 0 3.36.142 4.69.426s2.29.539 2.9.767l-3.33 7.954q-.645-.198-1.59-.397-.9-.228-2.13-.228-2.865 0-4.29 1.392c-.94.909-1.57 2.216-1.87 3.921l-7.82 47.074zm27.48 0 7.27-43.637H2228l-7.28 43.637zm13.92-49.887c-1.65 0-3.01-.549-4.09-1.647-1.08-1.099-1.55-2.415-1.42-3.949q.195-2.301 2.07-3.949 1.905-1.648 4.35-1.648c1.65 0 3 .549 4.06 1.648 1.08 1.098 1.56 2.415 1.42 3.949q-.165 2.3-2.07 3.949-1.875 1.647-4.32 1.647m25.86 50.739q-6.54 0-10.74-2.869t-5.88-7.927q-1.65-5.085-.54-11.704c.72-4.432 2.21-8.343 4.46-11.733q3.405-5.114 8.58-7.955c3.45-1.912 7.3-2.869 11.56-2.869 3.55 0 6.57.653 9.07 1.96 2.52 1.288 4.39 3.116 5.62 5.483 1.25 2.349 1.73 5.095 1.45 8.239h-9.86c-.04-2.102-.69-3.854-1.96-5.256-1.27-1.42-3.12-2.13-5.57-2.13q-3.18 0-5.85 1.704c-1.78 1.118-3.28 2.727-4.52 4.83q-1.845 3.153-2.55 7.556c-.49 2.974-.49 5.531.03 7.671.53 2.121 1.48 3.759 2.87 4.915q2.1 1.704 5.31 1.704 2.265 0 4.23-.852c1.31-.587 2.45-1.43 3.44-2.528 1-1.099 1.79-2.434 2.36-4.006h9.83c-.78 3.087-2.16 5.824-4.15 8.21-1.97 2.368-4.41 4.224-7.33 5.568-2.92 1.326-6.2 1.989-9.86 1.989m39.7.028c-2.77 0-5.18-.492-7.22-1.477-2.05-1.004-3.55-2.481-4.52-4.432-.94-1.951-1.18-4.356-.71-7.216.42-2.462 1.21-4.498 2.39-6.108a13.8 13.8 0 0 1 4.37-3.863 22 22 0 0 1 5.69-2.216q3.09-.739 6.3-1.08c2.62-.265 4.73-.511 6.34-.738q2.445-.342 3.66-1.023c.82-.474 1.31-1.193 1.48-2.159v-.171q.51-3.21-1.02-4.971c-1.03-1.174-2.73-1.762-5.12-1.762q-3.75 0-6.3 1.648c-1.71 1.099-2.95 2.396-3.73 3.892l-9.31-1.363q1.755-3.978 4.83-6.648c2.04-1.799 4.4-3.144 7.07-4.034q4.035-1.364 8.61-1.364c2.08 0 4.12.246 6.11.739q3 .738 5.31 2.443c1.55 1.117 2.69 2.642 3.41 4.574.74 1.932.86 4.346.37 7.244l-4.86 29.205h-9.89l1.02-5.995h-.34q-1.215 1.819-3.18 3.409c-1.3 1.042-2.86 1.885-4.66 2.529-1.8.625-3.83.937-6.1.937m3.89-7.557c2.06 0 3.92-.407 5.57-1.221 1.64-.833 3-1.932 4.06-3.296s1.72-2.85 1.99-4.46l.85-5.142c-.38.265-.97.512-1.76.739q-1.2.34-2.67.596c-.97.171-1.93.322-2.87.455-.95.133-1.76.246-2.45.341-1.57.208-3.01.549-4.31 1.023q-1.935.71-3.21 1.988c-.84.834-1.36 1.913-1.57 3.239-.3 1.875.15 3.305 1.34 4.29 1.19.966 2.87 1.448 5.03 1.448m58.66-36.96-1.33 7.955h-25.06l1.31-7.955zm-17.19-10.454h10.29l-6.82 40.966c-.21 1.382-.17 2.443.11 3.181.31.72.79 1.213 1.45 1.478.68.265 1.45.397 2.3.397q.945 0 1.77-.142c.54-.113.98-.198 1.3-.255l.46 8.039c-.63.19-1.47.398-2.53.625q-1.56.341-3.75.398c-2.62.057-4.89-.341-6.82-1.193q-2.865-1.306-4.2-4.006c-.88-1.818-1.07-4.091-.6-6.818zm37.26 54.943q-6.57 0-10.86-2.727c-2.86-1.837-4.86-4.432-6.02-7.784-1.14-3.372-1.32-7.339-.57-11.904.74-4.489 2.25-8.428 4.52-11.818q3.405-5.114 8.52-7.955 5.145-2.868 11.37-2.869 4.035 0 7.41 1.307c2.25.852 4.16 2.178 5.71 3.977q2.325 2.699 3.21 6.875c.59 2.765.56 6.061-.08 9.887l-.49 3.153h-35.79l1.11-6.932h25.9c.35-1.97.23-3.721-.34-5.256-.56-1.553-1.51-2.774-2.84-3.664-1.32-.89-2.98-1.336-4.97-1.336-2.03 0-3.92.521-5.68 1.563a14.5 14.5 0 0 0-4.4 3.977c-1.2 1.629-1.95 3.343-2.28 5.142l-1.16 6.648c-.42 2.727-.32 4.953.28 6.676q.915 2.586 3.18 3.807c1.52.814 3.43 1.222 5.74 1.222 1.52 0 2.92-.209 4.21-.625a10.3 10.3 0 0 0 3.44-1.875 10.9 10.9 0 0 0 2.55-3.125l9.41 1.079a19 19 0 0 1-4.58 6.648c-2.01 1.875-4.41 3.333-7.21 4.375-2.79 1.023-5.89 1.534-9.29 1.534"/><path fill="#160833" d="M2442.89 1008.97H1335.84c-8.11 0-14.69 6.66-14.69 14.87v1.43c0 8.22 6.58 14.88 14.69 14.88h1107.05c8.11 0 14.69-6.66 14.69-14.88v-1.43c0-8.21-6.58-14.87-14.69-14.87M2442.89 1081.73H1335.84c-8.11 0-14.69 6.66-14.69 14.87v1.43c0 8.22 6.58 14.88 14.69 14.88h1107.05c8.11 0 14.69-6.66 14.69-14.88v-1.43c0-8.21-6.58-14.87-14.69-14.87M2442.89 1154.39H1335.84c-8.11 0-14.69 6.66-14.69 14.88v1.43c0 8.21 6.58 14.87 14.69 14.87h1107.05c8.11 0 14.69-6.66 14.69-14.87v-1.43c0-8.22-6.58-14.88-14.69-14.88M2442.89 1227.05H1335.84c-8.11 0-14.69 6.66-14.69 14.88v1.43c0 8.22 6.58 14.88 14.69 14.88h1107.05c8.11 0 14.69-6.66 14.69-14.88v-1.43c0-8.22-6.58-14.88-14.69-14.88M2190.5 1424.26h-602.18c-4.89 0-8.85 4.01-8.85 8.96v2.86c0 4.95 3.96 8.97 8.85 8.97h602.18c4.89 0 8.86-4.02 8.86-8.97v-2.86c0-4.95-3.97-8.96-8.86-8.96" opacity=".15"/><path fill="#160833" d="M1270.84 1442.95c-8.01 8.11-21.01 8.11-29.01 0L567.295 760.175c-8.008-8.106-8.008-21.266 0-29.371a20.35 20.35 0 0 1 29.016 0l674.529 682.776c8.01 8.1 8.01 21.26 0 29.37M1168.25 1235.26c-8.01 8.1-21.01 8.1-29.02 0L464.795 552.577c-8.008-8.106-8.008-21.265 0-29.371a20.35 20.35 0 0 1 29.016 0l674.529 682.774c8.01 8.11 8.01 21.27 0 29.37zM3386.48 1649.31c-7.54 8.49-20.63 9.15-29.02 1.52l-708.92-645.96c-8.38-7.632-9.04-20.887-1.5-29.374 7.53-8.487 20.63-9.154 29.01-1.525l708.92 645.969c8.39 7.63 9.04 20.88 1.51 29.37" opacity=".28"/><path fill="#160833" d="M2504.41 746.06c-7.54 8.487-20.64 9.155-29.02 1.526l-708.92-645.967c-8.38-7.629-9.04-20.884-1.5-29.37 7.53-8.488 20.53-9.155 29.01-1.526l708.92 645.966c8.38 7.629 9.04 20.789 1.51 29.371M2063.42 2168.45c-7.54 8.48-20.64 9.15-29.02 1.52l-708.92-645.96c-8.38-7.63-9.04-20.79-1.51-29.37 7.54-8.49 20.64-9.16 29.02-1.53l708.92 645.97c8.38 7.62 9.04 20.88 1.51 29.37M2206.99 2199.53c-7.54 8.49-20.63 9.16-29.02 1.53l-708.91-645.97c-8.39-7.63-9.05-20.79-1.51-29.37 7.54-8.49 20.63-9.15 29.02-1.52l708.91 645.96c8.39 7.63 9.05 20.89 1.51 29.37M2340.29 694.185c-7.53 8.487-20.63 9.155-29.01 1.526L1602.36 49.744c-8.38-7.629-9.04-20.884-1.51-29.37 7.54-8.488 20.64-9.155 29.02-1.526l708.92 645.966c8.38 7.629 9.04 20.884 1.5 29.371" opacity=".19"/><path fill="#160833" d="M3273.33 1447.43c-7.53 8.49-20.63 9.16-29.01 1.53L2535.4 802.99c-8.38-7.629-9.04-20.884-1.51-29.371 7.54-8.487 20.63-9.154 29.02-1.525l708.92 645.966c8.38 7.63 9.04 20.88 1.5 29.37" opacity=".28"/><path fill="#fff" d="M2739.93 782.964c-7.54 8.487-20.64 9.155-29.02 1.526l-708.92-645.967c-8.38-7.628-9.04-20.883-1.51-29.37 7.54-8.487 20.64-9.155 29.02-1.526l708.92 645.967c8.38 7.628 9.04 20.883 1.51 29.37M3396.37 1281.32c-7.54 8.48-20.63 9.15-29.02 1.52l-708.91-645.965c-8.39-7.629-9.05-20.884-1.51-29.371 7.53-8.487 20.63-9.154 29.01-1.526l708.92 645.972c8.39 7.62 9.05 20.88 1.51 29.37M1150.16 1592.76c-7.54 8.49-20.63 9.15-29.01 1.53L412.228 948.318c-8.384-7.629-9.044-20.883-1.507-29.37s20.632-9.155 29.016-1.526l708.913 645.968c8.39 7.63 9.05 20.79 1.51 29.37M1806.6 2091.11c-7.53 8.49-20.63 9.15-29.01 1.52l-708.92-645.96c-8.38-7.63-9.04-20.89-1.51-29.37 7.54-8.49 20.63-9.16 29.02-1.53l708.92 645.97c8.38 7.63 9.04 20.88 1.5 29.37" opacity=".36"/><path fill="#FFCA2E" d="m2562.34 1302.2 8.39 321.17 58.41-135.22 50.12 143.71 8.38-354.93s-108.53-50.73-125.2 25.36z"/><path fill="#C66B20" d="M2620.75 1454.3c24.97-30.52 34.48-63.99 64.72-89.16l2.08-88.31s-108.53-50.73-125.21 25.37l1.79 68.18c13.29 25.75 43.43 58.07 56.72 83.92z" opacity=".14"/><path fill="#FFCA2E" d="M2796.07 1205.03c0 20.02-68.2 26.22-75.36 43.67-7.44 18.12 36.17 71.24 22.8 84.78-13.48 13.63-65.95-30.52-83.76-23.08-17.24 7.25-23.36 76.29-43.14 76.29-19.79 0-25.91-69.04-43.15-76.29-17.9-7.53-70.37 36.62-83.75 23.08-13.47-13.64 30.15-66.75 22.8-84.78-7.16-17.45-75.37-23.65-75.37-43.67 0-20.03 68.21-26.23 75.37-43.68 7.44-18.12-36.18-71.23-22.8-84.77 13.47-13.64 65.94 30.51 83.75 23.07 17.24-7.24 23.36-76.28 43.15-76.28 19.78 0 25.9 69.04 43.14 76.28 17.9 7.54 70.38-36.61 83.76-23.07 13.47 13.63-30.15 66.75-22.8 84.77 7.16 17.45 75.36 23.65 75.36 43.68"/><path fill="#FFF8E5" d="M2729.38 1074.96c-72.36 57.79-144.8 115.57-217.44 173.08.1.19.38.47.47.66 2.36 5.82-.56 15.36-5.18 25.94 81.68-60.08 160.53-123.68 238.63-188.43.38-4.1-.19-7.44-2.35-9.73-3.02-3.05-8.01-3.14-14.13-1.62z" opacity=".46"/><path fill="#FFF8E5" d="M2573.46 1310.4c.57.19 1.04.67 1.51 1.05 55.02-45.2 109.37-91.16 163.45-137.6-5.37-2.2-9.99-4.58-13.19-7.25-61.71 49.2-122.66 99.36-182.29 151.24 12.43-5.82 23.83-10.21 30.43-7.44zM2607.85 1381.44c2.63 3.15 5.55 5.25 8.76 5.25 8.76 0 14.79-13.45 20.35-29.09-9.71 8.01-19.41 15.93-29.11 23.84M2686.6 1316.22c21.77 9.82 47.96 26.32 56.91 17.26 8.29-8.4-5-31.66-14.8-52.64-13.94 11.82-28.07 23.55-42.11 35.38" opacity=".41"/><path fill="#D6A100" d="M2712.04 1211.67c0 53.69-42.96 97.17-96 97.17s-96-43.48-96-97.17 42.96-97.17 96-97.17 96 43.48 96 97.17" opacity=".28"/><path fill="#fff" d="M2616.61 1285.32c-39.1 0-70.94-32.23-70.94-71.81 0-39.57 31.84-71.8 70.94-71.8 39.09 0 70.94 32.23 70.94 71.8 0 39.58-31.85 71.81-70.94 71.81m0-135.22c-34.48 0-62.65 28.42-62.65 63.41 0 35 28.07 63.42 62.65 63.42 34.57 0 62.65-28.42 62.65-63.42 0-34.99-28.08-63.41-62.65-63.41" opacity=".41"/><path fill="#160833" d="M1871.99 1415.11c-1.23 0-2.45 0-3.77-.2-15.83-1.33-30.9-10.39-41.36-24.79-8.01-11.06-12.53-24.22-13.09-37.19-2.26 5.44-5.18 11.44-11.4 13.73-3.49 1.24-7.07.96-10.46-.76-7.91-4.2-11.59-15.16-12.53-18.5l-3.58-12.49c-4.9 11.63-11.77 22.22-23.36 27.37-11.59 5.05-24.87-.86-31.56-8.97-.19-.19-.28-.38-.47-.57l-11.59 26.8-9.42-4.2 16.86-39.1c.47-2 1.32-3.91 2.55-5.72l8.95 4.96-1.7 3.81c-.38 2.77 1.04 5.44 2.54 7.25 4.24 5.15 12.91 8.97 19.6 6.01 12.72-5.63 18.65-21.65 23.08-36.33l5.09-16.6 12.62 44.73c1.6 5.72 4.62 10.68 7.35 12.11.85.38 1.51.48 2.35.19 2.55-.95 4.43-5.53 6.13-9.63 2.45-6.2 6.22-15.64 16.01-13.92l5.37.95-1.22 5.34c-3.3 14.59.47 31.18 9.98 44.34 8.67 12.02 21.01 19.55 33.92 20.6 14.22 1.24 28.64-6.29 38.25-19.45 5.84-8.11 8.85-17.17 8.76-25.85-2.64-4.29-3.68-9.15-2.92-14.01l-4.15-8.11 6.03.38 2.17-9.06 3.86 9.54c13 1.91 24.97 10.87 30.43 23.08l1.6 3.62h-.09a43.7 43.7 0 0 0 15.73 1.43c15.45-1.43 29.68-11.25 37.21-24.98.85-3.72 2.26-7.35 4.43-10.49l18.47-27.09-9.33 31.57c-.94 3.34-2.26 6.48-3.77 9.53-.66 4.2-.19 8.78 1.51 13.26 3.11 8.3 9.7 14.49 17.05 16.21 6.97 1.62 14.79-.1 21.48-4.86 7.25-5.15 12.15-13.07 13-21.17l1.51-13.26 39.66 55.6-8.29 6.1-25.72-36.05c-3.01 6.77-8.01 12.88-14.23 17.36-9.13 6.48-19.97 8.87-29.76 6.48-10.65-2.48-19.98-11.15-24.31-22.6-.47-1.24-.94-2.57-1.23-3.81-9.6 10.3-22.7 17.26-36.74 18.59-9.89.86-19.87-.95-28.82-5.05-4.9.76-10.27-.19-15.27-3.05-1.41 7.91-4.8 15.83-9.98 22.98-10.84 14.97-27.32 23.84-43.62 23.84zm60.01-61.99c1.32 1.24 2.73 2.39 4.14 3.43-1.32-1.23-2.63-2.38-4.14-3.43" opacity=".66"/></g></g><path fill="#006FE6" d="M1958.75 420.408c0 12.11-9.7 21.837-21.57 21.837s-21.58-9.822-21.58-21.837 9.71-21.838 21.58-21.838 21.57 9.822 21.57 21.838"/><path fill="#263238" d="M3682.81 2127.49s-.48 1.84-1.49 5.39c-.11.51-.23 1.09-.41 1.6-3.39 12.72-11.34 42-22.51 83.54-.47 1.83-1.07 3.72-1.54 5.67-.83 2.98-1.66 6.02-2.44 9.11-.53 1.95-1.06 3.84-1.6 5.84-3.21 11.81-6.59 24.41-10.15 37.7-1.19 4.42-2.38 8.88-3.63 13.52-.23.86-.47 1.72-.71 2.64-.59 2.35-1.3 4.7-1.9 7.1-.77 2.98-1.6 6.02-2.43 9-4.16 15.7-8.67 32.14-13.3 49.27-.72 2.75-1.49 5.45-2.2 8.25-1.49 5.5-2.97 11.12-4.51 16.73-.72 2.81-1.55 5.62-2.26 8.48-.36 1.55-.77 3.1-1.25 4.64-1.48 5.45-3.03 11-4.51 16.62-1.48 5.61-3.03 11.29-4.57 16.9-1.31 4.81-2.67 9.74-3.92 14.67-1.01 3.72-2.02 7.5-3.03 11.29-1.48 5.32-2.97 10.77-4.39 16.15-.12.46-.24.98-.36 1.49-.71 2.64-1.48 5.22-2.14 7.85-.95 3.33-1.78 6.65-2.67 10.03-14.43 53.57-29.63 110.35-45.07 167.93h-448.44c19.95-63.94 39.72-126.62 58.31-185.18 61.93-195.77 111.16-346.17 111.16-346.17h422.02z"/><path fill="#37474F" d="M3593.63 2248.16c-10.45 35.87-20.85 71.68-31.71 107.48-21.44 70.76-43.05 141.52-64.73 212.28-9.26 30.31-18.64 60.68-27.97 90.93h-12.05c.77-2.58 1.6-5.1 2.38-7.68 2.07-6.65 4.15-13.24 6.29-19.88 19.77-62.57 39.49-125.13 59.44-187.64 11.16-34.89 22.27-69.79 33.61-104.62 11.04-34.15 23.69-67.9 33.73-102.33 4.04-13.98 6.29-6.3 1.07 11.46z"/><path fill="#37474F" d="M3682.81 2127.49s-.48 1.83-1.49 5.39c-.12.51-.24 1.08-.41 1.6-3.39 12.72-11.35 42-22.51 83.54-.53 1.83-1.07 3.72-1.54 5.67-.83 2.98-1.67 6.01-2.44 9.11-.53 1.95-1.07 3.84-1.6 5.84-3.21 11.8-6.59 24.41-10.15 37.7-1.19 4.47-2.38 8.88-3.63 13.52-.23.86-.47 1.72-.71 2.64-.59 2.29-1.25 4.7-1.9 7.1-.77 2.98-1.6 6.02-2.43 9-4.16 15.7-8.67 32.14-13.31 49.27-.71 2.75-1.48 5.44-2.19 8.25-1.49 5.5-2.97 11.12-4.52 16.73-.71 2.81-1.54 5.62-2.25 8.48-.36 1.55-.77 3.1-1.25 4.64-1.48 5.5-2.97 11.06-4.51 16.62-1.49 5.61-3.03 11.28-4.57 16.9-1.31 4.81-2.68 9.74-3.92 14.67-1.01 3.72-2.02 7.5-3.03 11.28-1.43 5.33-2.91 10.66-4.4 16.16-.12.46-.23.98-.35 1.49-1.61 5.9-3.21 11.86-4.81 17.88-14.43 53.57-29.63 110.35-45.07 167.93h-159.08c-5.88-43.15-11.76-86.17-17.52-128.4-.36-2.86-.71-5.73-1.19-8.65-.12-.86-.18-1.66-.29-2.52-1.79-12.84-3.51-25.61-5.23-38.22-.77-5.96-1.6-11.8-2.38-17.7-17.57-129.72-33.61-248.2-45.36-335.92h374.1z"/><path fill="#263238" d="M3881.15 2658.84h-414.47c-.24-9.97-.54-19.2-.78-27.56-.89-28.25-1.42-47.44-1.66-54.26-.06-1.78-.06-2.75-.06-2.75-24.22-14.32-45.72-25.84-63.59-34.66-2.44-1.26-4.81-2.35-7.07-3.5-12.65-6.13-23.28-10.94-31.41-14.38-12.59-5.38-19.54-7.85-19.54-7.85-.41-1.26-.95-2.52-1.36-3.78-3.81-10.83-7.37-22.06-10.69-33.52-46.2-154.35-55.94-349.15-55.94-349.15h575.04s9.74 155.96 21.62 358.21c3.26 55 6.65 113.5 10.03 173.14z"/><path fill="#37474F" d="M3824.43 2658.82h-5.82c-.06-2.4-.17-4.81-.23-7.22-5.35-151.54-9.39-303.14-14.08-454.69-.12-2.12 3.39-1.94 3.45.18 5.28 153.89 10.69 307.84 16.74 461.73zM3321.78 2502.36c49.59 19.02 97.03 44.92 142.34 71.91 1.78 1.03.41 3.72-1.49 2.8-48.04-22.51-97.08-44.17-143.76-69.21-3.68-1.95-.89-6.99 2.91-5.5M3320 2392.35c4.63 23.6 29.04 109.95 66.86 104.62 37.11-5.27 19.24-56.84 13.9-91.04-11.17-71.28-13.13-143.07-13.07-214.97 0-1.72-2.55-1.83-2.73-.17-6.53 51.79-6.29 103.76-1.72 155.72 2.43 27.85 6.29 55.47 11.04 83.02 2.14 12.49 7.01 27.85 5.7 40.4-1.12 10.42-4.81 17.24-11.93 18.85-42.81 9.62-62.65-122.04-64.9-145.88-4.81-51.33-8.44-99.63-8.02-154.52 0-1.72-2.91-1.37-3.03.23-5.4 66.69-4.87 137.85 8.02 203.74z"/><path fill="#37474F" d="M3377.84 2495.42c3.03 8.54 6.47 16.9 9.68 25.32 2.79 7.28 4.93 15.7 9.97 21.83.83.98 2.79.86 2.97-.63.83-7.5-1.96-15.24-3.98-22.4-2.67-9.22-5.76-18.45-9.62-27.27-2.37-5.44-10.98-2.52-8.96 3.15z"/><path fill="#F7A9A0" d="M3428.53 1536.38c-4.51 74.43-50.59 423.47-125.41 499.5-51.49 52.31-278.08 190.56-411.27 249.51-35.1 15.53-140.14-248.54-91.69-271.06 61.22-28.47 297.98-154.86 335.5-181.56 35.99-25.61 116.51-213.66 202.67-341.82 44.36-66.01 94.95-32.66 90.2 45.49z"/><path fill="#F7A9A0" d="M2915.01 2273.49c-30.7 16.9-202.61 99.01-247.97 108.4-45.37 9.4-177.91 27.27-188.89-5.5-10.99-32.77 27.37-41.02 27.37-41.02s-57.18-.98-65.14-34.95c-7.96-33.98 52.2-44.86 52.2-44.86s-58.67-5.16-64.07-39.59c-5.41-34.44 56.94-35.64 56.94-35.64s-53.86-2.29-45.96-32.49c9.5-36.26 108.37-21.2 157.6-35.18 11.16-3.15 222.02-79.92 222.02-79.92l95.84 240.81z"/><path fill="#263238" d="M2480.18 2180.5c72.68 10.94 106.47 3.55 172.92-24.18 1.3-.57 2.43 1.2 1.12 1.89-62.52 32.89-103.5 48.01-174.75 25.67-3.51-1.09-2.74-3.9.71-3.38M2486.88 2254.59c76.55 4.98 113.24-2.7 185.09-26.82 1.01-.34 1.73 1.26.72 1.72-68.41 29.39-109.62 43.55-185.45 28.88-3.44-.69-3.86-4.01-.36-3.78M2509.15 2334.04c74.47-.34 115.08-7.05 181.71-39.13 1.54-.75 2.85 1.37 1.37 2.29-64.61 39.08-115.26 47.84-182.78 39.02-4.63-.57-4.93-2.18-.24-2.18z"/><path fill="#F7A9A0" d="M2876.24 2027.12s-85.75-32.71-126.66-39.07c-40.97-6.36-202.55 24.18-197.74 58.21 6.24 43.94 103.15 44.06 150.65 38.16 0 0 14.37 101.7 83.91 116.31 69.53 14.61 89.84-173.66 89.84-173.66z"/><path fill="#263238" d="M2557.67 2057.89c35.69 36.09 97.5 24.46 144 22 3.56-.18 4.93 2.52 4.57 5.15 8.97 42.23 34.38 99.35 77.73 117.28 1.25.52.65 2.35-.65 1.95-49.23-13.18-78.92-67.32-85.69-114.19-47.62 3.21-110.15 12.27-140.26-31.91-.18-.23.18-.51.36-.28z"/><path fill="#0D7FFB" d="m2810.32 1980.07 122.03 309.96s279.26-139.74 379.86-251.01c75.94-84.05 117.39-363.82 121.37-483.28s-53.86-138.65-111.34-50.07c-57.48 88.57-183.96 312.65-189.78 320.1-5.76 7.45-322.14 154.3-322.14 154.3"/><path fill="#000" d="m2810.32 1980.07 122.03 309.96s279.26-139.74 379.86-251.01c75.94-84.05 117.39-363.82 121.37-483.28s-53.86-138.65-111.34-50.07c-57.48 88.57-183.96 312.65-189.78 320.1-5.76 7.45-322.14 154.3-322.14 154.3" opacity=".3"/><path fill="#263238" d="M2986.8 2227.13c-15.26-30.94-28.02-63.14-41.21-94.94-13.06-31.57-25.17-63.54-36.93-95.62-6.83-18.57-13.06-37.3-19.95-55.81-.24-.57.83-.97 1.07-.4 12.76 32.03 26.72 63.54 39.84 95.45 13.01 31.63 25.48 63.43 37.83 95.34 7.12 18.39 14.55 36.79 20.84 55.46.3.81-1.07 1.32-1.49.52"/><path fill="#000" d="M3433.58 1555.74c-3.98 119.46-45.49 399.23-121.44 483.34-68.34 75.57-219.11 164.32-308.72 213.36l367.04-796.56c37.46-19.37 65.97 14.84 63.12 99.92z" opacity=".1"/><path fill="#EBEBEB" d="M3244.47 2193.55c16.45 13.17 632.82 29.62 635.73 25.15 7.78-12.15-95.07-594.83-373.98-779.44-49.17-32.54-114.01-11.63-147.15 12.66-16.57 12.15-57.95 100.9-65.67 177.73-7.66 76.72-59.26 555.53-48.93 563.9"/><path fill="#0D7FFB" d="M3487.85 1425.74s-26.42 363.76-27.55 378.54c-1.19 14.78 25.53 413.04 25.53 413.04l401.18 20.11s-33.97-161.74-48.34-203.28c-3.26-9.46-69.71-329.16-192.45-468.21-112.76-127.83-158.43-140.2-158.43-140.2z"/><path fill="#000" d="M3487.85 1425.74s-26.42 363.76-27.55 378.54c-1.19 14.78 25.53 413.04 25.53 413.04l401.18 20.11s-33.97-161.74-48.34-203.28c-3.26-9.46-69.71-329.16-192.45-468.21-112.76-127.83-158.43-140.2-158.43-140.2z" opacity=".3"/><path fill="#0D7FFB" d="M3349.44 1457.94s-34.38 321.65-34.14 341.82c.17 20.17-5.59 409.66-5.59 409.66l-85.33-18.39s25.89-252.85 28.09-274.96c2.2-22.12 32.96-258.57 39.91-303.09 10.98-70.47 57.12-155.04 57.12-155.04z"/><path fill="#000" d="M3349.44 1457.94s-34.38 321.65-34.14 341.82c.17 20.17-5.59 409.66-5.59 409.66l-85.33-18.39s25.89-252.85 28.09-274.96c2.2-22.12 32.96-258.57 39.91-303.09 10.98-70.47 57.12-155.04 57.12-155.04z" opacity=".3"/><path fill="#0D7FFB" d="m3431.84 1770.64-415.1 181.26 244.57 521.41 415.09-181.26z"/><path fill="#000" d="m3431.84 1770.64-415.1 181.26 244.57 521.41 415.09-181.26z" opacity=".6"/><path fill="#A6A6A6" d="m3138.68 1935.94 196.65-86.15-27.05-57.49-196.65 86.15zM3156.4 1858.72l24.22-10.6-12.53-26.47 58.85-25.79 12.47 26.47 24.23-10.6-22.75-48.29-107.59 47.15z"/><path fill="#F7A9A0" d="M3585.55 1501.66c121.97 123.93 395.42 466.72 337.64 545.79-95.07 130.05-346.19 262.52-425.94 291.45-34.8 12.61-186.57-222.64-155.22-246.25 37.59-28.3 310.32-145.87 306.58-169.08-2.14-13.12-78.44-164.14-120.96-303.31-49.34-161.4-.23-177.73 57.9-118.66z"/><path fill="#F7A9A0" d="M3062.16 2186.49c-1.07 30.48 29.81 40.97 29.81 40.97s-14.66 19.82-11.04 42.91c4.15 26.47 49.05 31.8 49.05 31.8s-10.57 23.03-4.16 47.04c6.65 24.98 51.13 36.5 51.13 36.5s2.37 26.64 23.39 43.6c35.87 28.99 103.86 7.62 147.21-5.56s153.5-89.67 176.06-102.21l-85.15-269.17s-211.81 5.67-260.5 28.13c-41.04 18.91-114.61 71.73-115.8 105.94z"/><path fill="#263238" d="M3092.57 2222.59c38.59-30.19 84.38-47.78 129.03-67.78 1.01-.46 1.72 1.09.71 1.49-44.65 19.43-84.73 47.16-128.44 68.24-1.19.57-2.31-1.15-1.24-1.95zM3129.79 2298.4c8.97-6.59 20.13-10.31 30.47-14.33 11.1-4.35 22.32-8.53 33.61-12.49 22.56-8.02 45.3-15.52 68.28-22.4 1.01-.28 1.79 1.15.72 1.49-22.51 8.02-44.84 16.33-66.93 25.27-11.04 4.47-22.09 8.99-33.07 13.63-10.21 4.3-20.67 9.69-31.65 11.69-1.6.29-2.73-1.89-1.37-2.86zM3177.95 2385.42c7.54-6.01 19-8.48 28.15-11.51 10.33-3.44 20.72-6.94 30.99-10.49 20.67-7.1 41.27-14.21 61.64-22 1.01-.4 1.72 1.09.71 1.49-20.66 8.02-41.21 16.33-61.93 24.12-10.15 3.84-20.37 7.62-30.58 11.4-8.67 3.21-19.18 8.14-28.62 7.97-.54 0-.72-.69-.36-1.04z"/><path fill="#0D7FFB" d="m3431.5 2039.66 160.33 273.58s304.74-174.69 345.54-277.54c36.63-92.36-270.19-461.96-332.12-524.41-61.93-62.51-116.27-67.96-95.66 46.52 20.6 114.42 129.45 361.18 129.86 364.51.42 3.26-207.95 117.39-207.95 117.39z"/><path fill="#000" d="m3431.5 2039.66 160.33 273.58s304.74-174.69 345.54-277.54c36.63-92.36-270.19-461.96-332.12-524.41-61.93-62.51-116.27-67.96-95.66 46.52 20.6 114.42 129.45 361.18 129.86 364.51.42 3.26-207.95 117.39-207.95 117.39z" opacity=".3"/><path fill="#263238" d="M3580.39 2132.02c-11.76-20.92-59.92-103.48-74.05-122.5-.42-.57-1.37.17-1.13.69 8.97 22 55.17 106.22 66.98 127.08 23.64 41.71 46.79 83.99 74.41 123.58.59.8 2.08.17 1.66-.8-19.6-44-44.12-86-67.81-128.05zM3525.98 1624.56c-.24-.81-1.66-.4-1.48.4 5.34 24.58 11.58 48.93 18.35 73.16-5.82-12.2-11.29-24.58-16.51-37.07-.42-.91-1.72-.28-1.43.63 5.17 16.73 12.71 32.6 21.26 47.96 4.28 14.67 85.21 202.36 89.61 212.73-36.58 17.19-68.29 36.84-103.8 56.09-17.34 9.4-34.62 18.97-51.78 28.71-16.92 9.62-37.77 18.56-52.61 29.91-.95.68 3.03 4.87 4.51 6.99.65.97 2.44.57 1.9-.46 0 0-1.01-2.18-1.31-3.04 8.73-3.38 43.06-22.51 51.96-27.33 17.34-9.34 34.68-18.79 52.02-28.24 35.21-19.14 108.25-58.9 108.13-59.42-2.25-10.08-84.79-181.39-118.7-301.02zM3630.8 2290.04c84.92-52.03 166.33-110.3 242.33-173.95-72.08 68.12-154.15 126.74-242.33 173.95M3535.83 1262.79s2.2 40.16 7.37 53.68c5.1 13.53 38.95 24.99 38.95 24.99s-35.57 16.04-46.32 14.66c-10.74-1.43-30.22-25.72-30.22-25.72s19.77 39.99 34.92 40.73c9.44.46-22.63 3.84-22.63 3.84s-17.22.98-29.33-9.91c-12.12-10.89 47.26-102.33 47.26-102.33z"/><path fill="#F7A9A0" d="M3384.53 1543.3c36.93 8.94 101.3-44.75 127.07-88.64 1.73-3.03-9.56-124.44-9.2-148.73.12-4.99-158.61 34.89-158.61 34.89s14.79 51.11 13.96 93.45c-.12 3.55-8.85 100.38 26.84 109.03z"/><path fill="#263238" d="M3357.63 1434.27c0 .4-.12 2.12-.3 4.81 90.56-9.85 130.11-59.36 147.03-95.34-1.25-16.96-2.02-31.11-1.96-37.81 0-4.99-158.61 34.83-158.61 34.83s14.73 51.17 13.84 93.51"/><path fill="#EBEBEB" d="m3356.9 1442.29 39.37 89.84 114.43-116.54 33.73 36.15s-110.63 183.86-111.52 175.67l-40.08-77.35-54.81 55.23 2.02-136.3 16.92-26.76z"/><path fill="#263238" d="M3335.06 1537.92c1.13-22.52 1.6-45.21 3.8-67.61.06-.8 1.37-1.15 1.6-.23 5.05 21.6.36 107.65.84 128.22.06-.05.17-.17.23-.23 2.26-2.4 50.83-48.64 51.37-47.95 8.61 12.26 38 68.58 40.08 73.68 17.52-29.22 84.68-135.44 105.46-163.12.59-.8 1.9-.17 1.42.75-15.37 30.76-104.15 173.83-105.57 173.43-.95.74-37.47-68.64-41.93-81.76-8.19 10.02-57.06 62.16-57.3 58.78-1.54-22.51-.95-51.45.12-73.96z"/><path fill="#F7A9A0" d="M3525.44 1102.87c21.14 52.71 3.27 210.38-33.85 247.85-53.85 54.32-147.91 65.72-197.26 2.07-47.86-61.71-20.84-266.88 21.2-301.49 61.94-50.99 178.8-26.24 209.97 51.57z"/><path fill="#263238" d="M3379.84 1203.15c.12-.4.83.63.77 1.03-1.36 11.06-1.01 23.95 9.09 28.48.3.11.24.69-.18.63-12.53-2.81-12.82-19.88-9.74-30.14z"/><path fill="#263238" d="M3391.18 1192.43c18.58.18 16.8 36.1-.42 35.93-16.98-.17-15.2-36.04.42-35.93M3316.34 1199.36c-.06-.4-.95.46-.95.92-.18 11.11-2.32 23.83-12.95 27.04-.35.12-.29.69.06.63 12.83-1.14 15.5-18.05 13.84-28.65z"/><path fill="#263238" d="M3306.67 1187.27c-18.47-2.23-21.68 33.58-4.57 35.64 16.8 2 20.07-33.75 4.57-35.64M3406.62 1176.67c-4.99-1.49-9.38-3.61-14.13-5.56-5.4-2.18-9.98-3.38-13.3-8.31-1.78-2.63-.77-7.22 1.72-9.11 5.82-4.52 13.12-3.44 19.77-1.03 7.19 2.58 12.06 6.36 15.92 12.72 3.74 6.19-3.33 13.23-9.92 11.34zM3293.2 1168.53c5.16-.57 9.91-1.94 14.96-3.03 5.76-1.2 10.39-1.61 14.67-5.9 2.25-2.29 2.07-6.94 0-9.28-4.87-5.45-12.3-5.62-19.24-4.42-7.54 1.32-13.01 4.19-17.99 9.74-4.87 5.45.77 13.64 7.65 12.84zM3390.09 1305.92c-2.9 2.47-5.81 5.96-10.03 6.08-4.04.11-8.61-1.84-12.23-3.38-.36-.18-.78.22-.54.57 2.79 4.41 8.97 7.39 14.31 6.7 5.29-.63 8.08-4.87 9.56-9.39.18-.63-.65-.92-1.07-.58"/><path fill="#263238" d="M3379.65 1272.12c-6.94 9.34-16.68 14.21-27.01 15.64-4.64.69-9.45.63-14.14 0-.95-.06-1.84-.23-2.67-.4-.83-.11-1.6-.29-2.49-.52-1.31-.22-2.02-1.37-2.2-2.57 0-.52 0-.81.18-1.21l.06-1.03c.18-8.59 1.66-21.54 1.66-21.54-3.32 1.43-20.19 7.85-19.71 3.38 4.09-36.9 8.73-77.98 20.9-113.84.35-1.21 2.25-.86 2.08.4-2.5 35.63-11.46 70.58-14.61 106.34 5.34-1.67 14.13-4.87 18.76-4.59 1.25.4-3.38 25.04-3.14 28.88v.4c14.78 2.52 26.24-1.32 41.21-10.31.89-.58 1.78.17 1.01 1.03z"/><path fill="#263238" d="M3343.91 1284.22s7.84 10.25 18.59 14.03c3.97 1.38 8.25 1.95 12.7.81 9.21-2.3 9.5-10.43 7.84-17.42-1.36-5.73-4.1-10.72-4.1-10.72s-13.47 12.09-35.03 13.3"/><path fill="#FF9BBC" d="M3362.49 1298.26c3.98 1.37 8.25 1.95 12.71.8 9.2-2.29 9.5-10.43 7.84-17.42-9.86.92-19.66 7.39-20.55 16.62"/><path fill="#263238" d="M3524.25 1262.67c-30.22-11.17-36.63-112.81-36.63-112.81l-11.05 54.54s-22.15-20.62-31.06-46.29c-6.35-18.33-1.6-42.8 2.5-54.66 0 0-39.01 24.58-79.51 31.28-14.91 2.47-109.26-3.95-108.67-10.37 1.78-19.19 36.58-82.21 65.2-97.57 32.96-17.7 108.43-38.387 170.3-9.17 49.53 23.38 41.04 61.19 49.77 88.87 0 0 34.61 32.14 35.03 47.09.95 32.26-44.83 113.27-55.88 109.15z"/><path fill="#F7A9A0" d="M3498.55 1229.27s33.84-52.25 58.25-40.85c24.4 11.34.89 85.83-26.42 97.23-27.32 11.4-38.78-12.78-38.78-12.78l6.95-43.54z"/><path fill="#263238" d="M3549.5 1209.56c.42-.06.53.51.18.69-19.12 8.59-28.45 26.58-34.68 45.03 5.4-7.28 13.12-11.46 23.16-5.27.53.34.06 1.14-.48 1.03-8.07-1.26-13.77.4-18.88 6.82-3.56 4.58-5.88 10.2-8.37 15.41-.83 1.72-4.04.97-3.45-.97 0-.18.12-.29.12-.46-1.78-23.95 15.74-58.56 42.34-62.28zM1948.33 1520.81c13.9 2.64 28.86-2.06 37.59-13.12 8.55-10.83 9.56-25.78 3.5-37.93 15.03 1.89 30.41-3.15 37.23-17.7 7.07-15.01.24-30.94-13.53-39.54-.12-.05-.24.12-.12.18 11.64 9.11 17.93 24.4 11.22 38.21-5.7 11.8-16.69 16.22-28.56 16.39 10.45-3.96 19.71-11 23.93-21.26 4.63-11.29 2.08-24.81-7.01-33.12 10.1-9.79 17.28-23.6 14.91-37.7-1.96-11.86-10.93-22.17-22.98-24.98 7.83-11.4 8.37-27.1.23-38.61-7.66-10.83-21.37-16.22-34.62-14.61 10.51-18.05-2.19-40.91-23.81-42.4 2.61-6.99.12-14.9-5.52-20.17-6.47-6.07-15.74-7.5-24.52-7.39-2.02-7.45-7.55-13.98-15.32-16.39-10.4-3.2-21.03 1.72-25.84 10.66-11.75-7.85-25.59-14.78-40.26-13-12.05 1.49-23.69 9.05-26.78 20.62-22.92-11.34-50.77-.97-59.91 22.4-10.51-2-21.32 2.12-28.33 9.92-7.06 7.85-9.5 14.83-10.27 18.27-9.56-1.09-18.82 4.24-22.86 12.72-3.98 8.31-2.38 16.79 1.31 24.64-.36 2.29-1.07 4.47-2.68 6.87-7.18 10.89-8.61 23.72-3.38 35.64-12.29 9.51-12.71 28.76-.83 38.79-8.91 12.89-4.63 31.68 9.02 39.82-5.82 10.83-6.82 23.72-2.07 35.18 3.62 8.76 11.57 17.01 21.67 17.01-2.97 6.88 2.37 14.56 9.14 17.71 2.56 1.2 5.35 1.95 8.08 2.58 3.27.68 7.66.8 10.51 2.63 2.97 1.84 4.04 5.67 5.82 8.42 1.31 1.95 2.79 3.84 4.45 5.51 12.77 12.66 34.44 14.95 49.59 5.15 6.94 10.66 20.96 12.89 33.19 11.12 4.04-.58 7.78-1.78 11.64-3.04 3.56-1.15 6.71-1.95 10.51-1.03 2.26.57 4.39 1.66 6.71 2.23 7.78 2.01 14.78-1.09 21.38-4.87 19.71 27.73 59.79 13.98 67.69-15.81zm-260.38-223.51c2.91-9.74 11.22-15.75 21.43-16.73-.12.69-.17 1.21-.17 1.21s-3.09 1.09-4.52 1.77a30.1 30.1 0 0 0-7.12 4.99c-4.4 4.07-7.54 9.45-8.79 15.24-.6 2.58-.65 5.21-.54 7.85v.97c-1.36-4.93-1.9-9.97-.29-15.3m214.95-78.95c-8.61-3.95-19.29-2.29-25.94 4.24-.18-.11-.42-.28-.66-.4 5.82-7.62 13.36-13.06 24.11-9.57 7.54 2.47 11.34 8.08 13.06 14.61h-.11c-2.56-3.78-6-6.87-10.46-8.88m-20.9 317.53s.18-.12.3-.17c17.75 14.49 43.11 11.8 57.6-3.67-14.73 18.16-38.36 25.61-57.9 3.84"/><path fill="#F48171" d="M1865.08 1492.5c-152.38 94.3-423.51 370.92-398.27 442.37 50.83 144.15 252.55 335.8 305.39 372.75 30.76 21.49 255.28-175.2 225.95-202.25-34.27-31.62-245.3-201.5-246.85-219.26-1.19-13.52 105.05-164.9 182.42-293.01 89.72-148.56 3.98-145.58-68.64-100.6"/><path fill="#F48171" d="M1726.18 2246.32c2.32 4.82 36.76 71.68 63.07 106.8 19.59 26.18 78.2 100.21 110.27 82.22 21.85-12.26-7.25-59.64-27.08-93.62-10.45-17.88-16.87-47.9-4.51-54.09 21.55-10.77 47.8 36.16 62.11 70.59 27.67 66.63 53.8 168.68 104.86 167.24 19.3-.57 19.54-27.9 13.19-59.64 16.44 43.83 37.94 85.83 59.38 86 12.29.17 18.94-7.33 21.79-19.42 7.42 10.65 16.74 16.67 27.97 15.01 19.06-2.7 26.6-22.18 28.08-46.87 3.98 2.41 8.73 3.09 14.43 1.15 48.7-15.93 13.42-193.54-17.93-231.3-92.1-111.21-220.12-192.45-220.12-192.45-72.15.8-235.51 168.27-235.51 168.38"/><path fill="#263238" d="M1974.86 2269.93c23.4 24.12 42.4 53.28 52.79 84.91 12.24 37.41 13.9 77.12 22.27 115.28.24 1.03-1.48 1.31-1.66.28-3.21-18.85-8.37-37.52-12.35-56.26-3.86-18.28-7.19-36.84-12.41-54.83-9.5-33-25.54-63.14-49.05-88.92-.24-.29.18-.63.47-.35zM2033.47 2239.51c23.39 30.25 47.44 61.13 64.01 95.51 18.17 37.58 22.21 79.64 26.6 120.43 2.61 24.53 4.75 49.05 6.18 73.68.06 1.03-1.55 1.38-1.67.29-4.09-41.82-9.44-83.59-16.21-125.07-6.35-39.08-19.41-75.17-40.67-109.04-11.94-19.07-25.42-37.24-38.84-55.34-.23-.35.24-.75.54-.4zM2098.02 2222.89c24.23 27.5 45.49 51.39 58.97 85.6 17.87 45.32 23.57 103.24 25.47 123.7 2.14 22.57 3.44 45.2 4.39 67.89 0 .92-1.6 1.03-1.66.06-3.32-50.48-9.92-101.01-19.95-150.63-4.81-23.72-12.17-46.81-24.23-68.07-11.93-21.02-27.79-39.76-43.17-58.44-.12-.11.06-.28.18-.17z"/><path fill="#0D7FFB" d="m1947.43 2057.25-221.19 245.68s-282.3-287.85-271.61-385.65c10.63-97.74 256.11-340.04 393.04-423.18 136.87-83.13 153.44-6.41 96.43 99.07-57 105.47-184.31 292.94-181.29 297.81 2.97 4.87 184.62 166.27 184.62 166.27"/><path fill="#000" d="M1944.09 1593.22c-57 105.48-184.32 292.89-181.29 297.82 2.91 4.87 184.62 166.27 184.62 166.27l-221.14 245.68s-136.93-139.69-216.56-257.49l363.12-565.61c113.53-58.78 124.64 14.73 71.31 113.39z" opacity=".1"/><path fill="#263238" d="M1792.21 2136.55c15.91-16.1 31.47-32.54 46.97-48.99 7.48-7.9 15.02-15.75 22.21-23.89 7.72-8.77 16.38-17.13 23.45-26.35.48-.64-.3-1.38-.95-.86-9.2 7.27-17.4 16.04-26.07 23.94-8.07 7.34-15.79 15.02-23.57 22.58-16.21 15.81-32.48 31.63-48.34 47.78-31.77 32.37-62.41 65.49-92.81 99.12-.71.8.42 1.89 1.25 1.15 33.19-30.94 65.91-62.22 97.8-94.42z"/><path fill="#37474F" d="M2298.19 2661.49h-437.57c-1.49-6.94-2.91-13.87-4.34-20.92-.71-3.66-1.48-7.27-2.26-11-1.48-7.16-2.97-14.32-4.45-21.48-.71-3.55-1.48-7.16-2.2-10.77-.71-3.56-1.48-7.16-2.19-10.77-1.49-7.17-2.91-14.33-4.4-21.37-.24-1.21-.47-2.41-.71-3.61-.95-4.53-1.84-8.94-2.79-13.41-1.19-5.33-2.26-10.66-3.33-16.04-1.36-6.54-2.67-13.01-3.98-19.48-1.48-6.99-2.96-13.98-4.33-21.03-2.85-13.52-5.58-26.87-8.31-39.99-1.43-6.65-2.79-13.3-4.04-19.88-3.39-16.28-6.65-32.26-9.92-47.79-.65-3.09-1.3-6.19-1.9-9.28-.59-3.09-1.24-6.19-1.9-9.22-1.84-9.17-3.68-18.11-5.52-26.87-.12-.41-.18-.81-.24-1.27-1.72-8.42-3.38-16.61-5.1-24.69-.6-2.81-1.19-5.56-1.73-8.36-2.08-10.37-4.15-20.4-6.23-30.2-.18-.63-.3-1.37-.42-2-1.3-6.59-2.67-13.01-3.92-19.25-1.48-7.05-2.91-13.93-4.21-20.57-5.11-24.75-9.62-46.53-13.42-64.8-2.26-11.29-4.34-21.15-6.12-29.57-.18-.57-.3-1.2-.36-1.77-.71-3.73-1.48-7.17-2.13-10.32-.24-1.03-.42-2-.6-3.03-.77-4.24-1.54-7.8-2.13-10.49-.12-.34-.18-.74-.24-1.14-.66-3.56-1.13-5.62-1.25-6.08v-.11h412.16s.06.28.24.91c4.39 17.14 71.55 278.63 139.9 555.59z"/><path fill="#263238" d="M1931.17 2661.48h-14.61c-36.28-167.01-73.87-333.63-104.68-501.96-.6-3.21 4.39-4.75 5.04-1.49 29.63 141.23 69.77 279.49 97.92 421 5.46 27.5 10.87 54.95 16.33 82.45"/><path fill="#263238" d="m2108.83 2104.99-12.12 86.8-6.11 43.77-24.29 173.77-4.87 34.55-7 50.54-.36 2.69-1.07 7.28-21.97 157.1h-170.48c-1.49-6.94-2.91-13.87-4.34-20.92-.71-3.66-1.54-7.27-2.25-11-1.49-7.16-2.97-14.32-4.46-21.48-.71-3.61-1.48-7.16-2.19-10.77-.72-3.56-1.49-7.16-2.2-10.77-1.49-7.11-2.97-14.27-4.4-21.37-.23-1.21-.47-2.41-.71-3.61-.95-4.53-1.84-8.94-2.79-13.41-1.19-5.33-2.26-10.66-3.32-16.04-1.37-6.54-2.74-13.01-3.98-19.48-1.49-6.99-2.97-13.98-4.34-21.03-2.85-13.52-5.58-26.87-8.31-39.99-1.43-6.65-2.79-13.3-4.04-19.88-3.38-16.28-6.71-32.26-9.92-47.79-.65-3.09-1.3-6.19-1.9-9.28-.65-3.09-1.3-6.19-1.9-9.22-1.84-9.17-3.68-18.11-5.52-26.87-.12-.41-.18-.81-.24-1.27-1.78-8.42-3.44-16.61-5.1-24.69-.6-2.81-1.19-5.56-1.72-8.36-2.14-10.37-4.22-20.46-6.24-30.2-.18-.63-.3-1.37-.42-2-1.36-6.54-2.73-12.95-3.97-19.2-1.43-7.04-2.91-13.92-4.22-20.57-5.11-24.75-9.62-46.58-13.36-64.85-2.32-11.29-4.39-21.2-6.12-29.57-.17-.57-.29-1.2-.35-1.77-.77-3.73-1.55-7.17-2.14-10.32-.24-1.03-.42-2-.59-3.03-.9-4.24-1.61-7.74-2.14-10.49-.12-.34-.18-.74-.24-1.14-.71-3.44-1.19-5.5-1.25-6.08-.06-.05-.06-.11-.06-.11h363z"/><path fill="#37474F" d="M2059.31 2495.26s.12-.23.12-.28h.06s.18-.06.24 0c.06 0 .06.05.06.05 0 .06-.12.12-.18.29-.06 0-.12.06-.18.17-.06.06-.12.12-.18.12s-.12.05-.12.05c.06-.11.12-.28.18-.4"/><path fill="#37474F" d="M2158.47 2104.63s-.06.4-.18 1.26c-2.97 18.56-38.54 240.81-97.74 386.22-.36.98-.71 1.89-1.13 2.87-.59.06-2.08.57-5.34 2.06-6.06 2.75-18.18 8.71-42.05 21.31-1.72.98-3.56 1.9-5.4 2.87-3.09 1.6-6.29 3.32-9.74 5.16 0 0-.06.63-.12 1.94-.59 10.32-3.56 60.62-8.13 133.16h-456.4c5.34-48.88 10.69-95.69 16.09-138.83 0 0-72.8-166.5 63.48-417.96h546.66z"/><path fill="#263238" d="M2079.83 2485.29c-49.28 16.39-96.79 39.59-142.27 63.94-1.78.98-.6 3.61 1.3 2.81 47.92-19.88 96.79-38.85 143.53-61.25 3.68-1.77 1.18-6.76-2.62-5.5zM2095.1 2167.99c-.11-1.6-3.02-1.94-3.02-.22.41 54.88-3.27 103.18-8.02 154.52-2.2 23.83-22.09 155.44-64.9 145.87-7.19-1.6-10.81-8.42-11.94-18.85-1.37-12.55 3.56-27.9 5.7-40.39 4.75-27.56 8.55-55.23 11.05-83.02 4.57-51.97 4.81-103.93-1.73-155.73-.23-1.72-2.73-1.54-2.73.17.06 71.91-1.9 143.76-13 214.97-5.35 34.27-23.22 85.77 13.89 91.04 37.83 5.39 62.23-80.95 66.87-104.62 12.88-65.88 13.36-137.04 8.01-203.74z"/><path fill="#263238" d="M2020.27 2471.65c-3.86 8.83-7.01 18.05-9.62 27.28-2.08 7.16-4.87 14.95-3.98 22.4.18 1.43 2.14 1.6 2.97.63 5.05-6.13 7.13-14.55 9.98-21.83 3.26-8.42 6.71-16.84 9.68-25.32 2.02-5.68-6.59-8.6-8.97-3.16zM1649.68 2132.41c-7.36 12.6-10.86 26.3-17.1 39.47-25.35 53.4-39.9 111.9-42.46 170.51-1.24 29.4.42 58.84 5.23 87.84 5.28 31.62 13.48 62.68 14.43 94.82 1.07 32.37-3.5 64.57-7.19 96.65-1.48 13.24-3.02 26.47-4.51 39.71h-8.02c3.81-33.23 8.44-66.46 10.87-99.92 2.5-34.26-1.25-66.64-8.02-100.33-11.46-56.89-14.96-113.61-5.64-171.13 9.15-56.44 29.4-110.93 59.98-159.91 2.2-3.5 4.51-1.38 2.31 2.17z"/><path fill="#263238" d="M1808.65 2152.63c-8.73 22.35-18.76 44.18-29.39 65.78-9.44 19.19-19.95 38.79-36.46 53.34-15.5 13.69-35.45 21.54-55.4 27.1-11.7 3.27-23.7 5.61-35.75 7.5-11.94 1.9-24.94 2.81-36.4 6.42-2.14.69-2.32 4.01.12 4.47 12.47 2.35 26.54 1.78 39.19 1.03 12.59-.74 25.12-2.17 37.47-4.87 22.27-4.93 43.58-15.01 60.57-29.85 17.93-15.75 27.96-37.01 37.05-58.27 9.98-23.26 17.1-47.21 22.21-71.84.41-2.01-2.38-2.58-3.15-.75zM1991.36 2654.19c-.18 2.41-.3 4.81-.48 7.22h-12.47c.66-7.73 1.43-15.41 2.14-23.15 1.72-17.82 8.31-85.54 12.65-108.51.24-1.43.47-2.7.71-3.73.36-1.54 2.97-1.2 3.03.29.06.57.06 1.2.12 1.83 1.07 24.12-4.34 105.54-5.7 125.99z"/><path fill="#263238" d="M1997.07 2528.21c-.06-.63-.06-1.26-.12-1.83-.06-1.49-2.68-1.83-3.03-.29-.24 1.09-.48 2.29-.71 3.73-4.4 22.97-10.93 90.69-12.65 108.51-.72 7.74-1.49 15.42-2.14 23.15h12.47c.18-2.41.3-4.81.47-7.22 1.43-20.45 6.77-101.93 5.71-125.99zm-188.42-375.56c-8.67 22.34-18.76 44.17-29.33 65.71-2.26 4.64-4.64 9.34-7.13 13.93h-.06c-7.66 14.49-16.74 28.36-29.27 39.42-15.5 13.63-35.45 21.54-55.35 27.04-11.75 3.26-23.75 5.61-35.74 7.56-11.94 1.83-25 2.81-36.4 6.42-2.14.69-2.32 4.01.12 4.52 12.41 2.35 26.48 1.72 39.13 1.04 12.59-.69 25.17-2.12 37.47-4.87 22.26-4.93 43.58-15.02 60.5-29.85 9.98-8.77 17.52-19.31 23.82-30.6h.06c4.98-8.94 9.14-18.33 13.18-27.73 9.97-23.2 17.1-47.21 22.21-71.91.41-1.94-2.38-2.57-3.15-.68zm211.57 319.07c-.59 1.43-1.24 2.87-1.78 4.3-3.09 7.5-5.58 15.18-7.84 22.97-1.48 4.99-3.26 10.26-3.92 15.53-.23 2.23-.29 4.53-.05 6.7v.17c.11 1.49 2.13 1.61 2.96.58.95-1.15 1.79-2.29 2.44-3.61 1.54-2.52 2.79-5.22 3.8-8.02 1.31-3.44 2.37-6.88 3.68-10.14 3.15-8.08 6.41-16.1 9.26-24.24.12-.34.24-.74.36-1.15 2.02-5.67-6.59-8.59-8.97-3.15zm76.49-279.94c-.42-8.02-1.01-15.93-1.61-23.78-.12-1.6-3.09-1.95-3.09-.23.18 23.55-.35 45.9-1.42 67.78-1.48 29.17-3.8 57.47-6.59 86.75-1.13 12.09-6.83 52.02-17.7 87.08-10.57 34.09-26.07 63.6-47.2 58.85-7.19-1.61-10.81-8.43-11.94-18.85-1.37-12.55 3.5-27.91 5.64-40.34 4.75-27.56 8.55-55.17 10.99-83.02 4.63-51.91 4.81-103.93-1.73-155.67-.23-1.72-2.79-1.6-2.79.12.06 71.96-1.9 143.75-13.06 214.97-5.29 33.63-22.62 84.05 12.11 90.69.54.17 1.19.29 1.78.35 2.97.4 5.82.28 8.61-.35 12.71-2.92 23.76-15.93 32.6-32.08 14.14-25.5 23.04-58.79 25.66-72.14 11.34-58.15 13.06-120.37 9.62-179.96zm-16.87 293.52c-6.47 2.12-12.94 4.41-19.3 6.82-2.02.69-4.03 1.49-6.11 2.23-13.01 4.93-25.83 10.31-38.6 15.99-3.09 1.43-6.12 2.8-9.15 4.18-23.51 10.89-46.55 22.69-69.11 34.72-1.79.97-.6 3.61 1.36 2.86 18.05-7.5 36.16-14.83 54.28-22.23 1.24-.51 2.37-1.03 3.62-1.49.06-.05.18-.05.24-.11 18.76-7.73 37.52-15.58 55.99-23.83 9.92-4.42 19.72-8.88 29.39-13.53 3.69-1.71 1.19-6.76-2.61-5.5zm-20.25 10.03s-.12.11-.18.17c-.05.06-.11.11-.17.11 0-.11 0-.23.06-.34.06-.12.11-.23.11-.29h.06s.18-.06.24 0c.06-.06.06 0 .06.06 0 .11-.06.23-.18.29"/><path fill="#0D7FFB" d="m2153.19 1937.45 7.71 167.19-549.62.28s77.37-441.16 228.38-593.11c75.53-76.03 162.16-68.52 216.38-13.35 13.72 13.98 136.34 228.09 152.25 309.79 13.84 72.08-54.99 129.26-54.99 129.26z"/><path fill="#263238" d="M2000.74 1517.66c34.03 68.64 66.15 138.2 92.58 209.93 12.23 35.98 27.61 73.79 20.19 112.35-5.82 35.64-30.52 79.93-52.32 100.5-1.84 52.82-4.04 105.59-6.95 158.42 0-53.17.72-106.28 1.79-159.4 31.35-35.29 54.92-80.84 53.56-128.22-2.14-28.07-12.23-55.23-21.26-81.99-25.71-71.73-56.41-141.86-87.65-211.53zM2110.73 1673.22c.17 5.04-3.51 9.39-8.26 9.74-4.75.34-8.73-3.5-8.91-8.48-.17-5.05 3.51-9.4 8.26-9.74 4.75-.35 8.73 3.49 8.91 8.48M2141.6 1776.35c.18 5.04-3.5 9.39-8.25 9.74-4.75.34-8.73-3.5-8.91-8.48-.18-5.04 3.5-9.4 8.25-9.74 4.75-.35 8.73 3.49 8.91 8.48M2133.88 1879.42c.17 5.04-3.51 9.4-8.26 9.74-4.75.35-8.73-3.49-8.9-8.48-.18-5.04 3.5-9.39 8.25-9.74 4.75-.34 8.73 3.5 8.91 8.48"/><path fill="#263238" d="M2093.86 1960.95c.18 5.05-3.5 9.4-8.25 9.74-4.75.35-8.73-3.49-8.91-8.48-.17-5.04 3.51-9.39 8.26-9.74 4.75-.34 8.73 3.5 8.9 8.48M2093.98 2054.91c.18 5.04-3.5 9.39-8.25 9.74-4.75.34-8.73-3.5-8.91-8.48-.18-5.05 3.5-9.4 8.25-9.74 4.76-.35 8.73 3.49 8.91 8.48M2095.94 1907.43c-21.97.23-44.12 1.26-65.86 4.7-10.8 1.72-21.49 3.89-32.18 6.36-5.35 1.2-10.63 2.23-16.03 3.26-5.53 1.03-11.41 1.95-16.99 1.61-.53 0-.53.68-.06.74 5.41.63 10.63 1.21 16.1 1.15 5.22-.06 10.45-.69 15.61-1.49 10.99-1.66 21.91-3.78 32.9-5.5 22.15-3.55 44.24-7.05 66.63-9 1-.11.95-1.83-.12-1.77zM2148.07 1931.27c-17.75-3.38-35.92-6.02-53.91-7.39-9.09-.69-18.11-.86-27.2-.81-4.33 0-8.67.12-13 .29-4.75.17-9.56.98-14.31 1.09-.48 0-.6.74-.06.74 4.51 0 9.02.81 13.53 1.09 4.52.29 9.03.58 13.54.86 9.03.58 18.06 1.26 27.14 1.78 18.11 1.03 36.16 2.18 54.22 3.84.95.11 1-1.26.11-1.43z"/><path fill="#F48171" d="M1928.5 1479.49c2.79 10.43 56.35 77.46 105.99 74.14 16.15-1.09 13.84-86.57 13.84-86.57l1.3-6.36 18.41-88.87-109.2-64.28-15.74-8.48s-3.38 24.63-7.24 55.34c-.18 1.44-.36 2.87-.54 4.36-.23 1.72-.53 3.38-.71 4.98-.65 4.59-1.3 9.29-1.78 13.93-.41 3.55-.83 6.99-1.13 10.77-.41 3.78-.71 7.39-1.13 11.17-3.14 37.13-3.08 75.46-2.01 79.87z"/><path fill="#263238" d="M1935.8 1354.41c27.91 69.79 86.88 97.23 113.84 106.34l18.41-88.86-109.21-64.29-15.73-8.48s-3.39 24.64-7.25 55.35z"/><path fill="#F48171" d="M2202.52 1243.5c12.05 158.65-85.03 183.57-120.54 186.04-32.19 2.23-142.1 5.96-171.08-150.63s43.65-212.16 116.98-221.04c73.34-8.88 162.53 27.04 174.64 185.69z"/><path fill="#263238" d="M2177.64 1211.54c-3.92-.12-7.54-.86-11.4-1.43-4.4-.58-7.9-.63-11.35-3.56-1.84-1.6-2.01-5.1-.59-6.99 3.33-4.35 8.85-4.92 14.19-4.41 5.76.52 10.04 2.35 14.13 6.3 3.98 3.79.24 10.26-4.92 10.09zM2066.3 1219.55c3.86-.74 7.3-2.06 11.05-3.15 4.21-1.26 7.71-1.83 10.62-5.27 1.55-1.83 1.13-5.33-.59-6.93-4.04-3.79-9.56-3.5-14.73-2.18-5.58 1.43-9.5 3.89-12.88 8.42-3.27 4.36 1.48 10.14 6.53 9.17zM2093.39 1248.49c-.12-.41-.83.63-.77 1.03 1.54 10.83 1.42 23.54-8.43 28.19-.3.17-.24.68.17.57 12.3-2.92 12.3-19.77 9.03-29.85z"/><path fill="#263238" d="M2082.04 1238.12c-18.29.51-15.91 35.75 1.07 35.29 16.69-.46 14.31-35.75-1.07-35.29"/><path fill="#263238" d="M2075.03 1240.41c-3.03 2.17-5.94 5.9-9.8 6.53-4.45.68-8.01-2.75-11.16-6.13-.3-.35-.6 0-.6.46.36 6.76 3.51 13.52 11.11 14.03 6.89.52 11.4-5.78 12.71-12.72.23-1.26-1.01-3.09-2.26-2.17M2155.9 1245.39c.06-.4.89.46.95.92.3 10.94 2.56 23.43 13.01 26.52.29.12.29.64 0 .64-12.59-1.04-15.44-17.59-13.9-28.02z"/><path fill="#263238" d="M2165.33 1233.42c18.12-2.35 21.68 32.83 4.87 35-16.56 2.12-20.07-33.06-4.87-35"/><path fill="#263238" d="M2173.17 1235.02c3.09 1.6 6.24 4.7 9.74 4.64 4.04-.12 6.59-4.18 8.79-8.08.24-.4.53-.11.59.34.89 6.71-.71 13.93-7.3 15.82-6 1.77-11.05-3.61-13.36-10.14-.42-1.21.36-3.21 1.6-2.58zM2090.24 1343.03c2.5 2.75 4.87 6.53 8.97 7.16 3.92.63 8.67-.75 12.41-1.78.36-.11.71.29.42.57-3.27 3.96-9.68 6.08-14.85 4.82-5.05-1.26-7.24-5.73-8.08-10.37-.11-.63.78-.8 1.13-.4M2140.52 1298.91s1.9 16.38 1.72 24.12c0 .74-1.96 1.03-4.69 1.09-.12 0-.18.05-.3 0-14.19 1.77-28.26-3.27-36.52-14.56-.53-.74.48-1.54 1.19-1.03 10.33 7.74 21.91 9.91 34.44 10.43.6-2.12-4.27-27.96-2.97-28.08 4.4-.22 12.89 2.81 18.06 4.42-2.97-34.27-11.64-67.84-14.08-101.99-.06-1.2 1.78-1.55 2.08-.46 11.64 34.55 15.97 73.91 20.01 109.21.54 4.41-15.73-1.78-18.94-3.15"/><path fill="#263238" d="M2137.14 1323.44s-7.84 10.25-18.59 14.04c-3.97 1.37-8.25 1.94-12.7.8-9.21-2.29-9.5-10.43-7.84-17.42 1.36-5.73 4.1-10.71 4.1-10.71s13.47 12.09 35.03 13.29"/><path fill="#FF9BBC" d="M2118.55 1337.47c-3.97 1.37-8.25 1.95-12.7.8-9.21-2.29-9.5-10.43-7.84-17.42 9.86.92 19.65 7.39 20.54 16.62"/><path fill="#263238" d="M1913.1 1290.14c36.94-15.36 39.91-52.03 39.91-52.03 45.84-17.13 71.49-50.24 74.16-53.63-1.24 3.27-10.03 26.59-14.9 38.39 105.1-15.35 140.14-91.38 140.14-91.38 32.71 33.74 38.71 54.83 43.23 65.37 0 0 2.96-61.76-28.51-104.28-38.48-52.02-93.82-44.23-93.82-44.23s-80.28-26.01-145.66 37.99c-70.37 69.04-14.55 203.8-14.55 203.8"/><path fill="#263238" d="M2092.19 1208.84c-16.93 8.48-35.69 13.98-54.22 17.18-.17 0-.17-.17 0-.22 29.69-7.05 56.65-21.09 78.27-42.17 9.14-8.94 17.04-18.8 23.63-29.63 6.89-11.28 13.66-24.8 15.26-37.92.12-.98 1.72-.81 1.6.17-1.72 13.86-3.44 26.64-9.67 39.42-5.94 12.14-14.32 23.32-24.41 32.6-9.03 8.25-19.3 15.07-30.34 20.57"/><path fill="#F48171" d="M1942.02 1278.5s-35.27-50.13-58.78-38.04c-23.52 12.09 2.55 84.4 29.81 94.59 27.25 10.2 37.52-13.98 37.52-13.98z"/><path fill="#263238" d="M1891.19 1261.03c-.41 0-.53.57-.18.69 19.12 7.73 28.98 25.09 35.87 43.03-5.64-6.94-13.36-10.78-22.98-4.36-.48.35 0 1.09.53.98 7.9-1.55 13.54-.12 18.77 6.01 3.68 4.36 6.23 9.86 8.85 14.84.89 1.66 3.97.8 3.38-1.09 0-.11-.12-.28-.18-.46.83-23.66-17.75-56.95-44.06-59.7z"/><path fill="#fff" d="M1930.46 1329.09c-.36 3.84-3.92 6.71-7.96 6.36-3.98-.34-6.95-3.78-6.59-7.68.35-3.83 3.92-6.7 7.95-6.36 3.98.35 6.95 3.79 6.6 7.68"/><path fill="#EBEBEB" d="m2049.98 1475.02-31.71 72.08-91.69-93.62-27.07 28.99s88.53 147.71 89.24 141.12l32.31-61.99 43.88 44.4-1.42-109.38-13.54-21.48z"/><path fill="#263238" d="M2067.39 1551.79c-.89-18.05-1.19-36.27-2.97-54.26-.06-.63-1.07-.92-1.25-.17-4.1 17.36-.41 86.34-.83 102.9-.06-.06-.12-.11-.18-.17-1.84-1.89-40.73-39.08-41.15-38.5-6.95 9.79-30.58 54.94-32.24 59.07-14.02-23.44-67.76-108.8-84.44-131.04-.48-.63-1.49-.11-1.13.64 12.29 24.75 83.37 139.62 84.5 139.28.77.57 30.16-55 33.79-65.55 6.53 8.08 45.72 49.91 45.9 47.27 1.3-18.05.83-41.31 0-59.36z"/><path fill="#F48171" d="M1825.94 1652.12c34.26 206.03 75.53 459.22 132.12 502.87 88.36 68.13 250.29 121.41 345 128.29 39.43 2.86 155.93-284.3 113.77-286.88-89.96-5.5-240.01-10.83-260.86-25.72-19.71-14.1-119.05-204.37-197.32-352.48-94.12-178.13-152.55-85.31-132.71 33.92"/><path fill="#F48171" d="M2372.36 1994.28s119.35 4.3 195.65 15.7c42.58 6.36 114.79 28.93 143.88 47.38 43.53 27.67 207.12 170.05 172.15 209.07-31.65 35.35-156.11-104.28-156.11-104.28s138.47 130.12 92.33 165.93c-46.19 35.75-165.07-139.97-165.07-139.97s139.18 136.76 85.5 166.44c-40.55 22.4-157.53-130.92-157.53-130.92s118.82 118.37 78.08 143.12c-44.95 27.33-162.11-107.66-162.11-107.66-114.36 46.13-185.98 36.9-236.57 14.33 0 0 70.07-196.98 109.74-279.14z"/><path fill="#263238" d="M2683.09 2114.26c16.87 14.72 33.97 29.51 49.41 45.61s30.28 32.77 44.12 50.19c33.85 42.74 48.16 74.59 47.03 72.76-26.13-44.35-80.4-102.84-95.84-119-15.38-16.1-29.93-32.89-45.37-48.99-.41-.4.24-.91.65-.51zM2621.8 2166.91c27.37 15.42 89.43 78.27 116.33 122.38 1.12 1.84 0 1.84-1.49.23-19.06-21.02-95.36-102.15-115.38-122.15-.29-.28.12-.63.54-.46M2560.76 2203c32.54 23.21 61.93 57.01 87.17 97.34 1.13 1.84-.53 1.72-1.96.06-28.32-32.89-50.35-58.84-86.22-96.25-.53-.58.3-1.66 1.01-1.09z"/><path fill="#0D7FFB" d="M2394.03 1984.95s-107.66 317.18-112.64 311.91c-4.99-5.21-278.86-75.63-339.01-139.11-60.15-63.54-116.68-429.77-124.16-539.26-7.48-109.43 59.79-147.59 132.59-23.49 72.75 124.1 202.61 357.01 212.47 363.48 9.91 6.47 230.75 26.53 230.75 26.53z"/><path fill="#263238" d="M2217.96 2250.51c9.68-33.28 22.09-65.94 33.9-98.54 11.76-32.37 24.53-64.4 37.59-96.31 7.54-18.45 15.68-36.67 23.1-55.18.24-.57 1.31-.23 1.07.4-12.29 32.49-23.34 65.43-35.27 98.03-11.88 32.37-24.23 64.52-36.7 96.6-7.18 18.57-14.19 37.24-22.21 55.46-.35.81-1.72.29-1.48-.51zM2025.45 2206.62c-27.85-12.72-57.12-28.93-78.2-51.1-25.06-26.36-31.83-63.83-41.27-97.46-20.61-73.45-37.23-147.71-52.32-222.42-8.61-42.51-15.61-85.2-22.8-127.94-.06-.46-.83-.34-.83.06 2.91 32.77 7.13 65.43 12.05 97.97-4.81-17.76-9.38-35.52-14.37-53.22-.17-.69-1.24-.46-1.12.28 4.27 22.98 10.8 45.38 17.63 67.73 6.47 40.39 14.19 80.55 23.04 120.43 8.49 38.39 17.99 76.54 28.44 114.47 5.11 18.57 10.1 37.25 16.22 55.52 5.16 15.59 11.93 30.37 22.8 43.03 23.69 27.5 57.54 39.76 90.08 54.09.83.34 1.54-1.03.65-1.44M2263.03 1970.97c-26.37-3.67-89.25-9.05-94.36-13.58-4.33-3.84-9.2-12.09-12.05-16.96-6.65-11.52-13.3-22.97-19.95-34.49-25.36-43.77-50.89-87.43-76.84-130.86-6.53-16.73-12.77-33.58-20.19-50.02-.3-.63-1.37-.23-1.13.4 4.63 13.41 10.04 26.59 15.44 39.76-15.08-25.03-30.82-49.73-46.5-74.42-.29-.46-.95-.06-.71.4 26.31 49.56 53.62 98.55 81.71 147.19 13.95 24.12 27.91 48.24 42.04 72.25 7.13 12.2 14.31 24.4 21.44 36.61 5.1 8.71 10.51 16.21 21.26 18.39 13.65 2.75 73.57 6.42 89.84 6.82 1.07 0 1.07-1.43 0-1.61z"/></g><defs><clipPath id="a"><path fill="#fff" d="M0 0h3951v2661H0z"/></clipPath><filter id="d" width="1930.25" height="1157.47" x="939.605" y="531.406" color-interpolation-filters="sRGB" filterUnits="userSpaceOnUse"><feFlood flood-opacity="0" result="BackgroundImageFix"/><feColorMatrix in="SourceAlpha" result="hardAlpha" values="0 0 0 0 0 0 0 0 0 0 0 0 0 0 0 0 0 0 127 0"/><feOffset dx="2" dy="2"/><feColorMatrix values="0 0 0 0 0 0 0 0 0 0 0 0 0 0 0 0 0 0 0.15 0"/><feBlend in2="BackgroundImageFix" result="effect1_dropShadow_10860_594"/><feBlend in="SourceGraphic" in2="effect1_dropShadow_10860_594" result="shape"/></filter></defs></svg>