<svg xmlns="http://www.w3.org/2000/svg" width="3215" height="3092" fill="none"><path fill="#EBEBEB" d="M2765.43 2827.3h-87.36v2.52h87.36zM550.668 2723.64h-63.629v2.51h63.629z"/><path fill="#F5F5F5" d="M1538 3092c849.41 0 1538-50.82 1538-113.5S2387.41 2865 1538 2865C688.586 2865 0 2915.82 0 2978.5S688.586 3092 1538 3092"/><path fill="#263238" d="M715.517 1892.69v10.14H562.324v-7.73c0-18.59 19.3-33.86 44.028-34.86l8.142-.3 51.868-2.11c26.739-1.11 49.155 14.76 49.155 34.86"/><path fill="#fff" d="M644.952 1892.69v10.14h-82.628v-7.73c0-18.59 19.3-33.86 44.028-34.86l8.142-.3c17.692 4.82 30.458 17.68 30.458 32.75" opacity=".2"/><path fill="#263238" d="M1964.68 2941.42h15.38a3.5 3.5 0 0 0 3.52-3.52l24.32-943.15h-71.27l24.33 943.15c0 1.91 1.61 3.52 3.52 3.52zM2514.32 2941.42h35.59l-100.52-946.67h-71.27zM219.854 2941.42l136.506-946.67h-71.168l-100.52 946.67zM741.652 2941.42h41.012l15.078-946.67h-71.168z"/><path fill="#fff" d="M2514.32 2941.42h35.59l-100.52-946.67h-71.27zM741.652 2941.42h41.012l15.078-946.67h-71.168z" opacity=".4"/><path fill="#fff" d="M1964.68 2941.42h15.38a3.5 3.5 0 0 0 3.52-3.52l24.32-943.15h-71.27l24.33 943.15c0 1.91 1.61 3.52 3.52 3.52zM219.854 2941.42l136.506-946.67h-71.168l-100.52 946.67z" opacity=".2"/><path fill="#263238" d="M865.695 1908.05h202.745l32.27-282.87c-.5-10.55-9.25-18.89-19.8-18.89H945.106c-10.554 0-19.3 8.34-19.802 18.89l-59.508 282.87zM556.295 1190.21h50.562l56.894 534.21H613.19c-8.343 0-15.882-6.83-16.787-15.16l-53.678-503.88c-.904-8.34 5.227-15.17 13.57-15.17"/><path fill="#263238" d="M634.6 1724.52h758.52c8.35 0 14.48-6.83 13.57-15.16l-53.67-503.88c-.91-8.34-8.45-15.17-16.79-15.17H577.706c-8.344 0-14.475 6.83-13.571 15.17l53.678 503.88c.905 8.33 8.444 15.16 16.787 15.16M856.749 1908.05h252.001c5.33 0 9.65-4.31 9.65-9.64v-2.71c0-5.33-4.32-9.64-9.65-9.64H856.749c-5.33 0-9.65 4.31-9.65 9.64v2.71c0 5.33 4.32 9.64 9.65 9.64"/><path fill="#fff" d="M634.6 1724.52h758.52c8.35 0 14.48-6.83 13.57-15.16l-53.67-503.88c-.91-8.34-8.45-15.17-16.79-15.17H577.706c-8.344 0-14.475 6.83-13.571 15.17l53.678 503.88c.905 8.33 8.444 15.16 16.787 15.16" opacity=".2"/><path fill="#407BFF" d="M648.774 1675.2h715.296c7.34 0 12.67-5.92 11.87-13.26l-46.85-439.68c-.8-7.34-7.33-13.26-14.67-13.26H599.117c-7.338 0-12.665 5.92-11.861 13.26l46.842 439.68c.805 7.34 7.338 13.26 14.676 13.26"/><path fill="#fff" d="M856.749 1908.05h252.001c5.33 0 9.65-4.31 9.65-9.64v-2.71c0-5.33-4.32-9.64-9.65-9.64H856.749c-5.33 0-9.65 4.31-9.65 9.64v2.71c0 5.33 4.32 9.64 9.65 9.64" opacity=".2"/><path fill="#000" d="M648.774 1675.2h715.296c7.34 0 12.67-5.92 11.87-13.26l-46.85-439.68c-.8-7.34-7.33-13.26-14.67-13.26H599.117c-7.338 0-12.665 5.92-11.861 13.26l46.842 439.68c.805 7.34 7.338 13.26 14.676 13.26" opacity=".2"/><path fill="#407BFF" d="M861.475 1901.73H243.98v93.02H2490.6v-93.02zM1318.34 1884.95h18.89c2.01 0 3.62-1.61 3.62-3.62v-19.99c0-2.01-1.61-3.61-3.62-3.61h-13.57c-1.61 0-3.11 1.1-3.52 2.71l-5.32 19.99c-.61 2.31 1.1 4.52 3.52 4.52"/><path fill="#407BFF" d="M1292.2 1884.95h18.9c2.01 0 3.62-1.61 3.62-3.62v-19.99c0-2.01-1.61-3.61-3.62-3.61h-13.57c-1.61 0-3.12 1.1-3.52 2.71l-5.33 19.99c-.6 2.31 1.11 4.52 3.52 4.52"/><path fill="#407BFF" d="M1266.07 1884.95h18.89c2.01 0 3.62-1.61 3.62-3.62v-19.99c0-2.01-1.61-3.61-3.62-3.61h-13.57c-1.61 0-3.11 1.1-3.51 2.71l-5.33 19.99c-.61 2.31 1.1 4.52 3.52 4.52"/><path fill="#407BFF" d="M1239.93 1884.95h18.9c2.01 0 3.62-1.61 3.62-3.62v-19.99c0-2.01-1.61-3.61-3.62-3.61h-13.57c-1.61 0-3.12 1.1-3.52 2.71l-5.33 19.99c-.6 2.31 1.11 4.52 3.52 4.52"/><path fill="#407BFF" d="M1213.8 1884.95h18.89c2.01 0 3.62-1.61 3.62-3.62v-19.99c0-2.01-1.61-3.61-3.62-3.61h-13.57c-1.6 0-3.11 1.1-3.51 2.71l-5.33 19.99c-.61 2.31 1.1 4.52 3.52 4.52"/><path fill="#407BFF" d="M1187.66 1884.95h18.9c2.01 0 3.62-1.61 3.62-3.62v-19.99c0-2.01-1.61-3.61-3.62-3.61h-13.57c-1.61 0-3.12 1.1-3.52 2.71l-5.33 19.99c-.6 2.31 1.11 4.52 3.52 4.52"/><path fill="#407BFF" d="M1161.53 1884.95h18.89c2.01 0 3.62-1.61 3.62-3.62v-19.99c0-2.01-1.61-3.61-3.62-3.61h-13.57c-1.6 0-3.11 1.1-3.51 2.71l-5.33 19.99c-.6 2.31 1.1 4.52 3.52 4.52"/><path fill="#407BFF" d="M1135.39 1884.95h18.9c2.01 0 3.62-1.61 3.62-3.62v-19.99c0-2.01-1.61-3.61-3.62-3.61h-13.57c-1.61 0-3.12 1.1-3.52 2.71l-5.33 19.99c-.6 2.31 1.11 4.52 3.52 4.52"/><path fill="#407BFF" d="M1109.25 1884.95h18.9c2.01 0 3.62-1.61 3.62-3.62v-19.99c0-2.01-1.61-3.61-3.62-3.61h-13.57c-1.61 0-3.12 1.1-3.52 2.71l-5.32 19.99c-.61 2.31 1.1 4.52 3.51 4.52"/><path fill="#407BFF" d="M1083.12 1884.95h18.9c2.01 0 3.62-1.61 3.62-3.62v-19.99c0-2.01-1.61-3.61-3.62-3.61h-13.57c-1.61 0-3.12 1.1-3.52 2.71l-5.33 19.99c-.6 2.31 1.11 4.52 3.52 4.52"/><path fill="#407BFF" d="M1056.98 1884.95h18.9c2.01 0 3.62-1.61 3.62-3.62v-19.99c0-2.01-1.61-3.61-3.62-3.61h-13.57c-1.61 0-3.11 1.1-3.52 2.71l-5.32 19.99c-.61 2.31 1.1 4.52 3.51 4.52"/><path fill="#407BFF" d="M1030.85 1884.95h18.9c2.01 0 3.62-1.61 3.62-3.62v-19.99c0-2.01-1.61-3.61-3.62-3.61h-13.57c-1.61 0-3.12 1.1-3.52 2.71l-5.33 19.99c-.6 2.31 1.11 4.52 3.52 4.52"/><path fill="#407BFF" d="M1004.71 1884.95h18.9c2.01 0 3.62-1.61 3.62-3.62v-19.99c0-2.01-1.61-3.61-3.62-3.61h-13.57c-1.61 0-3.11 1.1-3.52 2.71l-5.32 19.99c-.61 2.31 1.1 4.52 3.51 4.52"/><path fill="#407BFF" d="M978.48 1884.95h18.898c2.01 0 3.622-1.61 3.622-3.62v-19.99a3.6 3.6 0 0 0-3.622-3.61h-13.571c-1.608 0-3.116 1.1-3.518 2.71l-5.327 19.99c-.603 2.31 1.105 4.52 3.518 4.52"/><path fill="#407BFF" d="M952.343 1884.95h18.898c2.01 0 3.619-1.61 3.619-3.62v-19.99c0-2.01-1.609-3.61-3.619-3.61h-13.57c-1.609 0-3.116 1.1-3.518 2.71l-5.328 19.99c-.603 2.31 1.106 4.52 3.518 4.52"/><path fill="#263238" d="M933.344 1902.73h422.986v-31.44H933.344z"/><path fill="#fff" d="M933.344 1902.73h422.986v-31.44H933.344z" opacity=".2"/><path fill="#fff" d="M933.444 1902.73h137.006v-31.44H933.444z" opacity=".2"/><path fill="#fff" d="M685.363 1994.75H2490.6v-93.12H685.363z" opacity=".2"/><path fill="#407BFF" d="m719.529 735.018 296.551-51.296c20.18-3.491 33.71-22.674 30.22-42.846l-51.33-296.351c-3.494-20.172-22.69-33.694-42.875-30.202l-296.547 51.295c-20.185 3.491-33.716 22.674-30.223 42.846l51.33 296.351c3.494 20.172 22.689 33.694 42.874 30.203"/><path fill="#407BFF" d="M823.238 687.677s67.751 102.462 182.242 118.234c0 0-66.041-24.21-81.42-140.434zM921.144 496.516l-47.847 5.725s-15.681-32.044-25.633-105.878c0 0-16.887.402-24.527 3.818-7.74 3.415.804 86.088.804 86.088s-86.748 6.027-90.769 10.347c-2.614 2.712-1.609 15.57-.503 24.611.603 5.224 4.926 9.342 10.253 9.644l3.016.201 15.379 81.367c1.207 6.228 7.037 10.548 13.37 9.744l80.215-10.246a39.3 39.3 0 0 0 21.31-9.744l7.941-7.133 49.858-3.214-13.068-95.23z"/><path fill="#fff" d="m921.144 496.516-47.847 5.725s-15.681-32.044-25.633-105.878c0 0-16.887.402-24.527 3.818-7.74 3.415.804 86.088.804 86.088s-86.748 6.027-90.769 10.347c-2.614 2.712-1.609 15.57-.503 24.611.603 5.224 4.926 9.342 10.253 9.644l3.016.201 15.379 81.367c1.207 6.228 7.037 10.548 13.37 9.744l80.215-10.246a39.3 39.3 0 0 0 21.31-9.744l7.941-7.133 49.858-3.214-13.068-95.23z" opacity=".7"/><path fill="#407BFF" d="M2235.89 501.806c-43.83-1.708-214.51 276.146-214.51 276.146l-116-21.898-24.83 59.267s104.54 50.93 146.66 55.451c42.11 4.52 202.95-219.793 202.95-219.793l5.83-149.274z"/><path fill="#fff" d="m2235.88 501.705-5.83 149.274s-3.92 5.425-10.65 14.465c-12.26 16.776-34.28 46.209-59.31 77.651-48.95 61.277-109.56 130.188-132.99 127.677-42.01-4.521-146.65-55.451-146.65-55.451l24.92-59.267 116 21.898s170.79-277.955 214.61-276.247z" opacity=".2"/><path fill="#000" d="M2219.4 665.544c-12.26 16.776-34.28 46.209-59.31 77.651.91-59.268 52.77-132.9 52.77-132.9s3.62 24.109 6.54 55.35z" opacity=".2"/><path fill="#263238" d="M2568.81 2933.49h98.1c3.32 0 6.14 2.31 6.84 5.52l15.88 71.82c1.41 6.43-2.71 12.76-9.15 14.07-.9.2-1.7.3-2.61.3-31.76-.5-54.88-2.51-94.69-2.51-24.53 0-98.61 2.61-132.48 2.61-33.88 0-38.3-33.45-24.43-36.57 62.22-13.56 109.06-32.34 128.97-50.22 3.72-3.42 8.54-5.23 13.57-5.13zM2152.86 2930.87h98.1c3.32 0 6.13 2.31 6.84 5.53l15.88 71.82c1.41 6.43-2.71 12.76-9.15 14.07-.9.2-1.71.3-2.61.3-31.76-.5-54.78-2.51-94.69-2.51-24.53 0-98.61 2.61-132.49 2.61-33.87 0-38.29-33.45-24.42-36.57 62.22-13.56 109.06-32.34 128.96-50.22 3.72-3.42 8.55-5.23 13.58-5.13z"/><path fill="#263238" d="M2620.78 1116.88h-428.42c-40.71 222.31-168.27 1124.98-76.8 1825.95h145.05s-13.47-1064.51 114.59-1408.56c14.78 184.13 164.46 1407.75 164.46 1407.75h147.66s-22.01-460.28-44.13-895.14c-13.87-273.84-21.81-873.84-22.41-930.1z"/><path fill="#000" d="M2375.21 1534.27c-18.9 50.73-34.58 114.01-47.85 185.23-11.96-163.84 35.98-337.62 35.98-337.62l11.97 152.39z" opacity=".2"/><path fill="#000" d="M2188.74 1122.01h431.23v51.23l-436.76-5.23z"/><path fill="#263238" d="M2481.35 1098.9h-15.38v91.11h15.38zM2263.13 1098.9h-15.38v91.11h15.38z"/><path fill="#fff" d="M2385.36 1112.96h-79.82v57.46h79.82z"/><path fill="#407BFF" d="M2621.38 1130.24c11.46-245.205 83.63-592.273 83.63-592.273-200.24-48.217-469.13-36.163-469.13-36.163-52.37 187.246-51.36 489.41-46.84 628.436z"/><path fill="#fff" d="M2704.91 537.868s-8.04 38.775-19.3 99.65c-5.33 28.931-11.36 63.085-17.59 100.353-3.52 21.798-7.34 44.601-10.86 68.107-3.51 22.904-7.03 46.41-10.35 70.318-11.86 85.184-21.81 174.894-25.53 253.944h-432.34c-4.52-139.025-5.43-441.189 46.94-628.535 0 0 268.79-12.055 469.03 36.163" opacity=".2"/><path fill="#000" d="M2685.71 637.519c-5.33 28.93-11.36 63.084-17.59 100.353-3.52 21.798-7.34 44.601-10.86 68.107-31.76-83.276 22.32-195.784 22.32-195.784z" opacity=".2"/><path fill="#263238" d="m2378.22 534.353 10.86 53.14s-61.82 257.864-75.19 391.568l22.51 22.599 35.49-22.599s3.21-272.33 34.48-386.747l56.09-45.907-44.13-14.264z"/><path fill="#EEC1BB" d="M2546.09 510.847c-37.09 33.652-127.86 21.196-127.86 21.196s-56.7-15.47-44.73-33.15c33.37-5.525 49.55-21.095 56.19-40.985 3.82-11.653 4.42-24.611 3.41-38.072-.5-7.032-1.5-14.164-2.81-21.296l112.28-83.075c-14.68 54.847-32.67 155.703 3.62 195.382z"/><path fill="#000" d="M2516.64 368.203c-4.43 67.304-59.81 85.888-86.85 89.605 3.82-11.653 4.42-24.611 3.42-38.072l83.53-51.533z" opacity=".2"/><path fill="#407BFF" d="m2529.6 468.154-107.25 48.318-6.33-38.775-39.41 13.863a32.484 32.484 0 0 0-21.51 33.953l4.42 42.492 54.38-29.734 27.15 38.373 128.86-62.08-40.41-46.41z"/><path fill="#fff" d="m2529.6 468.154-107.25 48.318-6.33-38.775-39.41 13.863a32.484 32.484 0 0 0-21.51 33.953l4.42 42.492 54.38-29.734 27.15 38.373 128.86-62.08-40.41-46.41z" opacity=".3"/><path fill="#263238" d="M2312.48 159.66s-16.79 107.988 40.51 149.676 57.9-159.42 57.9-159.42l-98.31 9.644z"/><path fill="#EEC1BB" d="M2519.25 395.726c-27.94 39.88-73.38 50.226-112.78 37.67-25.33-8.037-48.15-25.716-62.22-50.93-1.91-3.315-3.62-6.831-5.13-10.347-28.05-66.098-36.69-181.62 33.27-224.714 49.66-31.041 115.3-15.973 146.36 33.752 8.94 14.063 14.27 30.136 15.78 46.811 8.34 77.249 16.89 122.252-15.38 167.758z"/><path fill="#263238" d="M2421.95 268.854c1.51 6.127-1.41 11.853-5.53 12.456-4.12.703-8.24-3.918-9.35-10.045-1.1-6.228 1.51-11.854 5.53-12.457 4.02-.703 8.24 3.818 9.35 10.046M2351.38 280.707c1.51 6.127-1.51 11.853-5.53 12.456-4.02.703-8.24-3.918-9.35-10.045-1.1-6.229 1.51-11.854 5.53-12.457 4.02-.602 8.25 4.119 9.35 10.046"/><path fill="#D4827D" d="M2374.3 280.004a223.7 223.7 0 0 1-20.91 58.363c9.75 4.722 21.01 4.923 30.96.603z"/><path fill="#263238" d="M2320.12 254.891c1.31.503 2.71.201 3.82-.703 6.94-6.429 16.49-9.242 25.73-7.534 2.01.502 4.02-.603 4.53-2.612.5-2.009-.61-4.018-2.62-4.52-11.66-2.411-23.82.904-32.57 9.041-1.6 1.306-1.8 3.616-.5 5.223.4.402.91.804 1.51 1.005zM2431.09 238.316c.71-.101 1.41-.503 1.91-1.105 1.11-1.708.51-4.018-1.2-5.123-10.15-6.429-22.72-7.434-33.78-2.813-1.81.904-2.61 3.114-1.71 4.922.91 1.808 3.12 2.511 4.93 1.708 8.85-3.416 18.8-2.411 26.74 2.712 1 .402 2.21.301 3.11-.301M2462.36 141.779v34.456c11.76 4.621 20 16.374 16.48 30.437-7.54 29.935 13.97 72.327 38 87.395 0 0-.81-12.456 10.05-10.749 10.86 1.708 15.58 66.501-1.11 99.751 0 0 27.55-31.543 36.89-101.257 8.65-64.492 4.43-116.928-11.35-139.631l-88.86-.301z"/><path fill="#EEC1BB" d="M2578.66 285.127c-5.63 18.785-18.4 34.556-35.59 43.898-22.92 12.155-39.9-6.931-38.29-31.442 1.6-21.798 15.27-55.049 40.61-56.857 25.33-1.808 39.8 21.397 33.27 44.501z"/><path fill="#263238" d="M2392.49 357.856c6.34 8.639 14.38 25.716 14.38 25.716 1.71-.401 3.32-.904 5.02-1.406 22.62-6.63 30.96-17.177 33.28-26.821 1.3-5.324.7-10.347-.31-14.365-1.1-4.621-2.91-7.634-2.91-7.634-9.85 10.648-30.46 18.483-41.72 22.2-4.62 1.607-7.64 2.411-7.64 2.411z"/><path fill="#fff" d="m2400.13 355.446 4.43 7.534c21.31-6.329 35.38-13.562 40.2-22-1.1-4.621-2.91-7.634-2.91-7.634-9.85 10.648-30.46 18.483-41.72 22.2z"/><path fill="#DE5753" d="M2411.89 382.167c22.62-6.63 30.96-17.178 33.28-26.821-7.64 2.511-16.49 6.529-23.63 12.356-5.42 4.419-8.24 9.643-9.65 14.565z"/><path fill="#263238" d="M2546.09 158.053s37.09-45.204-51.87-72.929-219.13 54.848-192.6 87.495c26.54 32.648 117.61 18.986 117.61 18.986s-23.52-2.913-34.78-14.566c0 0 131.89 8.74 161.74-18.986z"/><path fill="#407BFF" d="M2704.91 537.969c56.29 19.086 94.89 369.468 94.29 399.905-.71 30.438-87.05 43.597-94.19-19.889s-36.89-199.099-36.89-199.099-7.84-61.277 0-98.445 36.89-82.472 36.89-82.472z"/><path fill="#fff" d="M2704.91 537.969c56.29 19.086 94.89 369.468 94.29 399.905-.71 30.438-87.05 43.597-94.19-19.889s-36.89-199.099-36.89-199.099-7.84-61.277 0-98.445 36.89-82.472 36.89-82.472z" opacity=".2"/><path fill="#407BFF" d="M3148.28 928.905 1180.55 715.977 1032.33 2083.89l1967.74 212.93z"/><path fill="#fff" d="M3148.28 928.905 1180.55 715.977 1032.33 2083.89l1967.74 212.93z" opacity=".6"/><path stroke="#407BFF" stroke-miterlimit="10" d="m2954.94 2244.62 138.17-1275.134L1225.6 767.404 1087.44 2042.54z"/><path stroke="#407BFF" stroke-miterlimit="10" d="m3108.4 1049.18 10.75-99.453-99.41-10.748-4.22 38.674-1715.58-185.437 4.22-38.674-99.41-10.749-10.86 99.349 39.81 4.319-121.33 1121.059-39.81-4.22-10.75 99.35 99.51 10.75 4.12-38.67 1715.58 185.53-4.22 38.68 99.51 10.75 10.76-99.45-39.81-4.32 121.43-1121.06z"/><path fill="#407BFF" d="m1248.48 797.339 22.81 2.511-2.51 22.803-22.82-2.511zm-8.95-11.05-1.11 9.945-2.51 22.803-1.11 9.945 9.96 1.105 22.81 2.511 9.96 1.105 1.1-9.945 2.51-22.803 1.11-9.945-9.95-1.105-22.82-2.511zM1118.71 1995.85l22.81 2.51-2.51 22.8-22.82-2.51zm-8.95-11.05-1.11 9.95-2.51 22.8-1.1 9.94 9.95 1.11 22.81 2.51 9.96 1.1 1.1-9.94 2.51-22.8 1.11-9.95-9.95-1.1-22.82-2.51zM3041.96 991.214l22.81 2.511-2.51 22.805-22.82-2.51zm-8.95-11.05-1.11 9.945-2.51 22.801-1.1 9.95 9.95 1.1 22.81 2.51 9.96 1.11 1.1-9.95 2.52-22.8 1.1-9.945-9.95-1.105-22.82-2.511zM2912.18 2189.83l22.82 2.51-2.51 22.8-22.82-2.51zm-8.94-11.15-1.11 9.94-2.51 22.8-1.11 9.95 9.96 1.1 22.81 2.51 9.95 1.11 1.11-9.94 2.51-22.81 1.11-9.94-9.95-1.11-22.82-2.51z"/><path fill="#fff" d="m2563.88 1431.7-919.86-99.45c-21.51-2.31-40.81 13.16-43.12 34.66-2.32 21.5 13.16 40.78 34.68 43.09l919.85 99.45c21.52 2.31 40.82-13.16 43.13-34.65 2.31-21.5-13.17-40.79-34.68-43.1" opacity=".6"/><path stroke="#407BFF" stroke-linecap="round" stroke-linejoin="round" d="m2787.54 1628.49-1404.07-151.78M2792.06 1586.4l-1293.99-139.93M2232.57 1613.02l-853.92-92.31M1530.13 1149.63l1294.1 139.83M1415.64 1179.77l1403.96 151.78M1406.09 1267.76l633.78 68.51M1410.81 1223.76l1404.07 151.79"/><path fill="#407BFF" d="m2637.66 2098.01-58-39.58-65.14 26.32 22.52-208.34 123.24 13.36z"/><path fill="#000" d="m2637.66 2098.01-58-39.58-65.14 26.32 22.52-208.34 123.24 13.36z" opacity=".2"/><path fill="#407BFF" d="m2615.95 1723.42 20.3-11.75 12.87 19.69 22.72-6.43 7.54 22.3 23.52-.5 1.81 23.4 22.92 5.33-4.12 23.2 20.9 10.85-9.75 21.4 17.49 15.77-14.77 18.28 13.06 19.59-18.79 14.06 7.74 22.2-21.82 8.94 2.12 23.41-23.43 3.21-3.82 23.21-23.42-2.61-9.55 21.49-21.91-8.34-14.68 18.49-19.19-13.66-18.7 14.26-15.28-17.88-21.61 9.14-10.36-21.19-23.22 3.51-4.72-23-23.42-2.41 1.2-23.51-22.11-8.14 6.94-22.5-19.3-13.36 12.36-20.09-15.48-17.78 16.99-16.27-10.56-21.1 20.51-11.55-4.93-23 22.72-6.13.91-23.51 23.62-.3 6.73-22.6 22.92 5.62 12.06-20.19 20.81 11.05 16.79-16.47z"/><path fill="#fff" d="m2612.93 1750.84 16.29-9.44 10.25 15.77 18.09-5.12 6.03 17.78 18.8-.4 1.41 18.68 18.39 4.32-3.31 18.49 16.68 8.63-7.84 17.08 14.08 12.56-11.87 14.67 10.46 15.57-15.08 11.25 6.23 17.78-17.39 7.13 1.61 18.68-18.6 2.61-3.11 18.49-18.7-2.11-7.54 17.18-17.59-6.63-11.66 14.76-15.38-10.95-14.98 11.46-12.16-14.37-17.29 7.33-8.24-16.87-18.6 2.81-3.72-18.48-18.69-1.91.9-18.79-17.59-6.43 5.63-17.98-15.48-10.65 9.85-16.07-12.36-14.16 13.57-13.06-8.35-16.78 16.29-9.24-3.92-18.38 18.19-4.92.71-18.79 18.79-.2 5.43-17.98 18.2 4.42 9.75-16.07 16.58 8.84 13.37-13.16z" opacity=".2"/><path fill="#407BFF" d="m2601.27 1868.47 13.98 1.51-1.01 9.44-15.18-1.6-4.12 17.38-9.45-1.01 4.12-17.38-17.49-1.91-4.12 17.38-9.45-1 4.12-17.38-13.97-1.51 1.01-9.44 15.17 1.61 4.43-18.19-13.97-1.5 1-9.44 15.18 1.6 4.12-17.38 9.45 1.01-4.12 17.38 17.39 1.91 4.12-17.38 9.45 1-4.12 17.38 13.87 1.51-.91 9.44-15.17-1.61zm-9.45-1 4.33-18.18-17.39-1.91-4.43 18.18zM2655.65 1828.29l-7.84 72.63-13.47-1.51 6.64-61.27-15.38-1.71 1.21-11.25zM1488.12 1651.8c4.92-2.92 11.25-1.41 14.37 3.41 2.61 3.92 7.34 5.73 11.86 4.42 5.53-1.51 11.26 1.51 13.07 6.93 1.51 4.42 5.73 7.44 10.45 7.34 5.73-.1 10.56 4.22 10.96 9.94.4 4.72 3.72 8.54 8.24 9.64 5.53 1.31 9.15 6.73 8.14 12.36-.8 4.62 1.41 9.24 5.63 11.35 5.03 2.61 7.24 8.74 4.83 13.96-1.91 4.22-.91 9.35 2.61 12.46 4.22 3.82 4.83 10.25 1.21 14.77-2.92 3.61-3.22 8.84-.61 12.65 3.22 4.73 2.12 11.16-2.51 14.57-3.72 2.81-5.23 7.74-3.72 12.16 1.91 5.42-.8 11.35-6.03 13.46-4.32 1.8-7.03 6.12-6.63 10.85.5 5.72-3.52 10.74-9.25 11.55-4.62.6-8.34 4.22-9.15 8.84-.9 5.62-6.13 9.54-11.76 8.94-4.62-.5-9.15 2.01-11.06 6.33-2.31 5.22-8.34 7.73-13.67 5.72-4.42-1.71-9.35-.3-12.26 3.42-3.52 4.52-9.95 5.42-14.68 2.11-3.82-2.72-8.94-2.61-12.66.2-4.53 3.41-10.96 2.81-14.68-1.61-3.01-3.62-8.04-4.72-12.36-2.91-5.23 2.21-11.36 0-13.87-5.23-2.01-4.22-6.64-6.63-11.26-5.92-5.63.8-10.96-2.92-12.16-8.44-.91-4.62-4.73-8.04-9.45-8.54-5.73-.6-9.95-5.52-9.65-11.25.2-4.72-2.62-8.94-7.04-10.65-5.33-2.01-8.24-7.83-6.53-13.26 1.4-4.52-.31-9.34-4.12-12.05-4.73-3.22-6.04-9.65-3.02-14.47 2.51-4.02 2.01-9.14-1.01-12.66-3.71-4.31-3.41-10.74.71-14.76 3.42-3.22 4.22-8.34 2.11-12.56-2.51-5.12-.7-11.35 4.32-14.16 4.12-2.31 6.23-7.03 5.23-11.55-1.21-5.63 2.21-11.15 7.74-12.66 4.52-1.21 7.74-5.23 7.94-9.95.2-5.72 4.92-10.24 10.55-10.34 4.73 0 8.85-3.12 10.16-7.64 1.6-5.42 7.23-8.74 12.86-7.33 4.53 1.1 9.35-.91 11.76-4.92 2.92-4.93 9.25-6.63 14.28-3.92 4.12 2.21 9.25 1.51 12.56-1.81a10.76 10.76 0 0 1 14.78-.3c3.42 3.21 8.54 3.72 12.66 1.41z"/><path fill="#fff" d="M1470.02 1852.7c51.19 0 92.68-41.46 92.68-92.62 0-51.15-41.49-92.61-92.68-92.61-51.18 0-92.68 41.46-92.68 92.61 0 51.16 41.5 92.62 92.68 92.62" opacity=".2"/><path fill="#407BFF" d="m1475.05 1714.08 11.66 31.84 32.87 8.54-26.74 20.89 2.11 33.96-28.25-18.99-31.56 12.46 9.35-32.65-21.71-26.12 33.97-1.3zM1880.6 1884.09c48.39-38.92 56.05-109.68 17.09-158.04-38.95-48.37-109.75-56.01-158.15-17.09-48.39 38.93-56.05 109.69-17.09 158.05 38.95 48.36 109.75 56.01 158.15 17.08"/><path fill="#fff" d="M1894.32 1805.89c-5.03 46.51-46.84 80.16-93.49 75.14-46.54-5.02-80.21-46.81-75.18-93.42 5.02-46.51 46.84-80.16 93.48-75.14 46.54 5.02 80.21 46.81 75.19 93.42" opacity=".2"/><path fill="#fff" d="M1799.53 1893.59c-53.38-5.73-92.18-53.84-86.35-107.29 5.73-53.34 53.88-92.11 107.36-86.28 53.37 5.72 92.17 53.84 86.34 107.28-5.73 53.34-53.88 92.12-107.35 86.29m20.3-187.65c-50.16-5.42-95.39 30.94-100.82 81.07-5.43 50.12 30.96 95.33 81.12 100.75 50.16 5.43 95.39-30.94 100.82-81.06 5.43-50.13-30.96-95.33-81.12-100.76" opacity=".2"/><path fill="#407BFF" d="m1827.87 1800.67-14.17-38.07-22.02 34.15-35.28-37.27 8.55 67.11 21.01 2.21 18.29 2 4.12.41 18.3 2.01 21 2.31 22.62-63.69z"/><path fill="#EEC1BB" d="m1865.17 815.321 24.82-22.702 20.31 2.209 3.72-28.83-36.39-8.337s-50.66-6.932-68.15-7.032c-7.34 0-15.88 0-36.29 44.903-3.62 7.935 91.98 19.889 91.98 19.889zM2685.71 878.607s12.57-26.319 19.3-32.145c6.74-5.827 68.05 7.634 78.21 16.072 10.15 8.438 5.42 27.223 5.42 27.223s-17.09 26.721-28.75 25.314c-11.66-1.406-70.96-4.42-74.18-8.739-3.22-4.42 0-27.625 0-27.625z"/><path fill="#407BFF" d="m1671.2 1048.93-13.73-1.38 1.03-9.43 13.65 1.36c3.7.37 6.88-.14 9.56-1.52 2.67-1.41 4.8-3.6 6.39-6.56 1.6-2.99 2.61-6.66 3.05-11l.33-3.28c.33-3.35.26-6.35-.21-8.98-.47-2.64-1.33-4.91-2.59-6.8a13.5 13.5 0 0 0-4.8-4.498c-1.98-1.111-4.31-1.8-7-2.068l-14.25-1.425.95-9.489 14.25 1.425c4.26.425 8.07 1.527 11.42 3.305q5.085 2.671 8.52 7.079c2.33 2.912 4 6.291 5 10.131 1.03 3.84 1.31 8.05.85 12.62l-.32 3.2c-.45 4.54-1.57 8.61-3.34 12.2q-2.61 5.355-6.9 8.94c-2.83 2.4-6.09 4.13-9.79 5.21-3.7 1.07-7.73 1.39-12.07.96m-.62-64.37-6.38 63.67-12.02-1.21 6.37-63.662zm56.04 22.12-4.74 47.31-11.59-1.16 4.74-47.31zm-11.14-13.614c.17-1.72.9-3.09 2.18-4.111q1.965-1.526 4.98-1.224t4.59 2.181c1.08 1.257 1.54 2.745 1.37 4.465q-.255 2.536-2.22 4.062c-1.28 1.021-2.93 1.43-4.94 1.229s-3.55-.929-4.64-2.186q-1.575-1.88-1.32-4.416m52.24 17.714 10.49 1.05-4.59 45.87c-.42 4.29-1.72 7.82-3.88 10.61-2.14 2.82-4.95 4.84-8.43 6.05q-5.22 1.86-11.82 1.2c-1.9-.19-3.92-.65-6.09-1.4-2.13-.74-4.16-1.79-6.09-3.13q-2.85-1.965-4.59-4.83l5.88-6.3c1.39 1.99 3.03 3.56 4.92 4.69 1.89 1.16 3.98 1.85 6.29 2.08 2.33.24 4.35 0 6.07-.71 1.75-.68 3.14-1.81 4.18-3.38 1.07-1.55 1.72-3.51 1.96-5.9l3.53-35.2zm-34.39 21.04.09-.92c.36-3.62 1.13-6.85 2.3-9.71 1.17-2.89 2.68-5.31 4.53-7.28 1.87-1.96 4.03-3.41 6.48-4.34 2.48-.93 5.19-1.25 8.13-.95 3.12.31 5.69 1.14 7.7 2.49 2.05 1.35 3.66 3.15 4.85 5.39 1.22 2.24 2.08 4.84 2.58 7.81q.795 4.395.93 9.63l-.25 2.49c-.74 3.31-1.7 6.32-2.89 9.03-1.15 2.71-2.56 5.04-4.23 7-1.67 1.92-3.63 3.34-5.9 4.26-2.27.93-4.87 1.24-7.78.95-2.92-.29-5.48-1.15-7.69-2.58-2.22-1.43-4.05-3.3-5.49-5.63q-2.13-3.48-3-7.98t-.36-9.66m11.64.23-.1.92c-.2 2.04-.19 3.97.04 5.79s.7 3.45 1.41 4.91c.71 1.42 1.67 2.58 2.88 3.47 1.21.88 2.7 1.41 4.48 1.59q3.585.36 6-.9c1.65-.87 2.96-2.13 3.92-3.8.99-1.7 1.72-3.64 2.17-5.84l.69-6.86q.045-2.655-.48-4.95c-.32-1.54-.84-2.88-1.58-4.05-.74-1.16-1.73-2.11-2.98-2.86q-1.875-1.11-4.59-1.38-2.625-.27-4.71.72c-1.39.63-2.57 1.58-3.55 2.87-.99 1.28-1.79 2.81-2.4 4.57-.59 1.77-.99 3.7-1.2 5.8m55.89-17.95-4.73 47.31-11.59-1.16 4.74-47.31zm-11.13-13.61c.17-1.724.9-3.094 2.18-4.115q1.965-1.525 4.98-1.224 3.015.302 4.59 2.181c1.08 1.257 1.54 2.748 1.37 4.468-.17 1.69-.91 3.04-2.22 4.06-1.28 1.02-2.93 1.43-4.94 1.23s-3.56-.93-4.64-2.19q-1.575-1.875-1.32-4.41m44.54 16.95-.83 8.3-27.11-2.71.83-8.3zm-18.69-13.62 11.59 1.16-4.53 45.3c-.14 1.4-.06 2.5.24 3.29.31.8.82 1.37 1.56 1.7.73.34 1.62.56 2.67.67.76.07 1.46.1 2.11.08.65-.03 1.2-.06 1.64-.1l-.82 8.66c-.99.22-2.11.38-3.36.46-1.21.08-2.58.05-4.09-.1-2.6-.26-4.83-.93-6.69-2-1.87-1.1-3.24-2.69-4.12-4.78-.88-2.12-1.15-4.83-.82-8.12zm48.72 54.24 2.19-21.82q.24-2.4-.42-4.23a6.1 6.1 0 0 0-2.26-2.97c-1.08-.75-2.49-1.22-4.24-1.39-1.54-.16-2.92-.03-4.14.38-1.19.41-2.14 1.07-2.85 1.97-.7.87-1.12 1.92-1.24 3.14l-11.59-1.16c.2-1.95.85-3.75 1.96-5.41 1.11-1.69 2.59-3.13 4.45-4.32 1.89-1.23 4.08-2.11 6.58-2.66q3.795-.81 8.34-.36 5.37.54 9.39 2.79c2.71 1.48 4.74 3.51 6.1 6.09 1.39 2.58 1.91 5.71 1.54 9.38l-2.07 20.64c-.23 2.37-.29 4.41-.17 6.13.16 1.69.48 3.18.97 4.46l-.08.75-11.76-1.18c-.43-1.25-.7-2.81-.81-4.67-.11-1.9-.07-3.75.11-5.56m3.5-18.59-.6 6.87-7.3-.73q-2.715-.27-4.83.09c-1.4.22-2.58.63-3.52 1.24-.94.58-1.68 1.34-2.22 2.25-.53.89-.85 1.93-.97 3.13-.12 1.17.04 2.24.47 3.23.46.99 1.17 1.81 2.14 2.46 1 .63 2.19 1.02 3.59 1.16q3.06.3 5.46-.69c1.6-.7 2.88-1.6 3.85-2.71.96-1.11 1.53-2.2 1.7-3.28l2.82 5.32c-.53 1.16-1.27 2.36-2.22 3.62s-2.12 2.41-3.52 3.45-3.04 1.84-4.92 2.42c-1.89.58-4.02.75-6.42.51-3.06-.31-5.74-1.19-8.03-2.66-2.3-1.47-4.04-3.33-5.23-5.6-1.18-2.27-1.64-4.76-1.37-7.47.25-2.51.94-4.68 2.06-6.51 1.13-1.83 2.68-3.31 4.64-4.43 1.97-1.16 4.35-1.94 7.13-2.34 2.81-.43 5.98-.46 9.5-.11zm36.5-35.09-6.72 67.17-11.59-1.16 6.72-67.16zm62.45 57.39c.12-1.23.04-2.34-.24-3.34-.25-1.03-.82-1.98-1.7-2.86q-1.275-1.365-3.75-2.76c-1.61-.96-3.71-1.99-6.31-3.11-2.88-1.23-5.54-2.55-7.99-3.98-2.45-1.42-4.58-3-6.37-4.74-1.77-1.74-3.1-3.67-3.97-5.78-.88-2.15-1.18-4.57-.91-7.25.26-2.62 1.05-4.96 2.38-7.01 1.35-2.04 3.14-3.73 5.36-5.07 2.23-1.37 4.78-2.33 7.67-2.9q4.365-.84 9.48-.33c4.72.47 8.72 1.74 11.99 3.8 3.29 2.07 5.74 4.67 7.34 7.8 1.6 3.14 2.22 6.54 1.85 10.21l-11.98-1.19c.2-1.99-.05-3.78-.74-5.38-.67-1.6-1.8-2.92-3.4-3.96-1.58-1.04-3.63-1.69-6.17-1.94-2.45-.24-4.53-.08-6.23.48q-2.52.855-3.93 2.61c-.91 1.18-1.44 2.54-1.6 4.08-.12 1.17.06 2.24.52 3.23.46.96 1.21 1.91 2.23 2.83 1.03.9 2.33 1.78 3.89 2.64 1.59.84 3.45 1.7 5.57 2.59 3.39 1.4 6.34 2.87 8.83 4.42 2.53 1.54 4.58 3.22 6.17 5.03 1.61 1.81 2.76 3.78 3.43 5.91q1.035 3.195.66 7.08c-.28 2.75-1.06 5.14-2.36 7.19-1.29 2.05-3.02 3.73-5.18 5.05-2.17 1.31-4.7 2.22-7.61 2.72-2.88.51-6.05.59-9.52.25a35.4 35.4 0 0 1-9.06-2.15c-2.92-1.14-5.52-2.67-7.8-4.57-2.28-1.94-4.02-4.26-5.22-6.97-1.2-2.74-1.62-5.85-1.28-9.32l12.07 1.21q-.3 3.015.45 5.25c.53 1.47 1.35 2.72 2.45 3.74 1.14 1 2.5 1.78 4.09 2.35 1.6.57 3.34.95 5.23 1.14 2.45.25 4.5.11 6.14-.4 1.67-.54 2.96-1.38 3.87-2.53.94-1.14 1.49-2.5 1.65-4.07m35.79-27.52-4.74 47.31-11.59-1.15 4.74-47.32zm-11.14-13.61c.17-1.72.9-3.09 2.18-4.11q1.965-1.53 4.98-1.23c2.01.21 3.54.93 4.59 2.19 1.09 1.25 1.54 2.74 1.37 4.46-.17 1.69-.91 3.05-2.22 4.06-1.28 1.02-2.92 1.43-4.94 1.23-2.01-.2-3.55-.93-4.64-2.18-1.05-1.26-1.49-2.73-1.32-4.42m52.24 17.72 10.49 1.05-4.59 45.87c-.42 4.28-1.72 7.82-3.88 10.61-2.14 2.81-4.95 4.83-8.43 6.04-3.48 1.25-7.42 1.65-11.82 1.21q-2.835-.285-6.09-1.41-3.195-1.11-6.09-3.12-2.85-1.965-4.59-4.83l5.88-6.31c1.39 2 3.03 3.56 4.92 4.69 1.89 1.16 3.98 1.86 6.29 2.09 2.33.23 4.35-.01 6.07-.72 1.75-.68 3.14-1.81 4.18-3.38 1.07-1.54 1.72-3.51 1.96-5.9l3.53-35.2zm-34.39 21.03.09-.92c.36-3.61 1.13-6.85 2.3-9.71 1.17-2.88 2.68-5.31 4.53-7.27 1.87-1.97 4.03-3.41 6.48-4.35 2.48-.93 5.19-1.24 8.13-.95 3.12.31 5.69 1.14 7.7 2.49 2.05 1.36 3.66 3.15 4.85 5.39 1.22 2.24 2.08 4.84 2.58 7.81q.795 4.41.93 9.63l-.25 2.49c-.74 3.32-1.7 6.33-2.89 9.03-1.15 2.72-2.56 5.05-4.23 7-1.66 1.92-3.63 3.35-5.9 4.27s-4.87 1.23-7.78.94c-2.92-.29-5.48-1.15-7.69-2.58-2.22-1.42-4.05-3.3-5.49-5.62-1.42-2.32-2.42-4.98-3-7.99q-.87-4.5-.36-9.66m11.64.23-.09.92q-.315 3.06.03 5.79c.23 1.82.7 3.46 1.41 4.91.71 1.43 1.67 2.58 2.88 3.47s2.7 1.42 4.48 1.6c2.39.23 4.39-.07 6-.91 1.65-.86 2.96-2.13 3.92-3.8.99-1.7 1.72-3.64 2.17-5.83l.69-6.87q.045-2.64-.48-4.95c-.31-1.53-.84-2.88-1.58-4.04-.74-1.17-1.73-2.12-2.98-2.86-1.25-.75-2.78-1.21-4.59-1.39q-2.625-.255-4.71.72c-1.39.63-2.57 1.59-3.55 2.87-.99 1.29-1.79 2.81-2.4 4.58-.59 1.76-.99 3.7-1.2 5.79m53.97-7.94-3.73 37.21-11.54-1.15 4.73-47.31 10.85 1.08zm-3.03 11.67-3.41-.34c.38-3.44 1.16-6.51 2.34-9.22q1.77-4.065 4.53-6.84c1.86-1.84 3.98-3.19 6.36-4.04s4.97-1.14 7.77-.86c2.28.23 4.3.75 6.07 1.58 1.77.82 3.25 2 4.42 3.53 1.2 1.53 2.04 3.47 2.51 5.82.5 2.31.59 5.12.26 8.41l-3.04 30.35-11.63-1.16 3.05-30.44c.21-2.15.06-3.89-.45-5.21-.49-1.31-1.3-2.29-2.45-2.94-1.11-.64-2.53-1.04-4.25-1.22-1.78-.17-3.37.04-4.79.63a9.7 9.7 0 0 0-3.61 2.6c-1 1.16-1.82 2.54-2.45 4.13q-.945 2.37-1.23 5.22m65.07 21.96 2.18-21.82c.16-1.61.03-3.02-.41-4.24a6 6 0 0 0-2.27-2.96c-1.07-.76-2.48-1.22-4.23-1.4-1.54-.15-2.93-.03-4.15.38-1.18.41-2.13 1.07-2.84 1.97-.71.87-1.12 1.92-1.24 3.14l-11.59-1.15c.19-1.96.85-3.76 1.95-5.42 1.11-1.68 2.6-3.13 4.45-4.32 1.89-1.23 4.09-2.11 6.59-2.66q3.78-.81 8.34-.36c3.58.36 6.71 1.29 9.39 2.8 2.71 1.47 4.74 3.5 6.1 6.08 1.39 2.59 1.9 5.71 1.54 9.39l-2.07 20.64c-.24 2.36-.29 4.4-.17 6.12.15 1.69.48 3.18.97 4.47l-.08.74-11.76-1.18c-.44-1.25-.71-2.8-.81-4.67-.11-1.9-.07-3.75.11-5.55m3.49-18.6-.59 6.87-7.31-.73c-1.8-.18-3.41-.15-4.82.1-1.41.21-2.58.62-3.52 1.23-.95.59-1.68 1.34-2.22 2.26-.53.88-.85 1.93-.97 3.12-.12 1.17.04 2.24.47 3.23.46.99 1.17 1.81 2.14 2.46.99.63 2.19 1.02 3.59 1.16q3.06.3 5.46-.69c1.6-.7 2.88-1.6 3.85-2.71.96-1.11 1.53-2.2 1.69-3.27l2.83 5.31c-.53 1.16-1.27 2.36-2.22 3.62s-2.12 2.41-3.52 3.45-3.04 1.84-4.93 2.42c-1.88.58-4.02.75-6.41.51-3.06-.31-5.74-1.19-8.04-2.66-2.29-1.46-4.03-3.33-5.22-5.6s-1.64-4.76-1.37-7.47c.25-2.5.94-4.67 2.06-6.5 1.13-1.84 2.67-3.31 4.64-4.44 1.97-1.16 4.35-1.94 7.12-2.34 2.82-.42 5.98-.46 9.51-.11zm44.66-14.22-.83 8.31-27.11-2.71.83-8.31zm-18.68-13.61 11.58 1.15-4.53 45.3c-.14 1.4-.06 2.5.25 3.3.3.79.82 1.36 1.55 1.7q1.095.51 2.67.66c.76.08 1.46.1 2.11.08s1.2-.06 1.65-.1l-.83 8.66c-.99.23-2.11.38-3.35.46-1.22.09-2.59.05-4.1-.1-2.6-.26-4.83-.92-6.69-1.99-1.87-1.1-3.24-2.69-4.12-4.79-.87-2.11-1.15-4.82-.82-8.12zm50.93 53.27 3.61-36.08 11.63 1.17-4.73 47.31-10.93-1.09zm2.47-9.65 3.59.27c-.32 3.18-.96 6.08-1.93 8.69-.96 2.61-2.29 4.83-3.98 6.67-1.65 1.8-3.65 3.15-6.01 4.03-2.35.86-5.06 1.13-8.12.83-2.33-.24-4.43-.77-6.29-1.6-1.85-.87-3.41-2.07-4.67-3.61-1.23-1.56-2.11-3.49-2.65-5.78-.53-2.32-.64-5.06-.32-8.21l3.05-30.56 11.55 1.15-3.07 30.66c-.16 1.57-.11 2.9.13 3.98.28 1.09.7 2 1.27 2.74.61.7 1.34 1.25 2.18 1.63.88.35 1.83.58 2.85.68 2.8.28 5.05-.06 6.77-1 1.74-.98 3.06-2.38 3.95-4.2.89-1.85 1.46-3.98 1.7-6.37m33.58-13.42-3.77 37.65-11.54-1.16 4.74-47.31 10.93 1.09zm15.39-8.54-1.26 10.74q-.93-.27-2.16-.48c-.78-.13-1.52-.24-2.22-.31-1.77-.18-3.36-.08-4.75.28-1.39.33-2.58.9-3.57 1.72-.97.81-1.75 1.85-2.35 3.12-.59 1.24-1 2.67-1.22 4.29l-2.46-.55c.3-3 .88-5.76 1.75-8.26.87-2.51 1.98-4.66 3.34-6.47s2.97-3.15 4.82-4.02c1.89-.9 3.98-1.24 6.29-1.01.64.07 1.32.19 2.03.38.75.16 1.34.36 1.76.57m21.86 51.17c-3.58-.36-6.75-1.27-9.49-2.72q-4.11-2.175-6.81-5.58c-1.78-2.3-3.06-4.88-3.87-7.76-.76-2.91-.99-5.96-.67-9.17l.18-1.75c.36-3.64 1.22-6.9 2.56-9.76 1.35-2.9 3.1-5.33 5.24-7.3 2.14-1.96 4.61-3.4 7.41-4.29 2.8-.9 5.81-1.19 9.05-.87 3.35.34 6.25 1.2 8.7 2.6 2.46 1.36 4.44 3.15 5.96 5.36s2.57 4.79 3.16 7.74c.59 2.91.71 6.09.37 9.53l-.49 4.85-37.08-3.7.8-7.96 25.71 2.57.09-.88c.12-1.84-.06-3.55-.55-5.13-.49-1.61-1.35-2.93-2.61-3.97-1.24-1.07-2.93-1.71-5.06-1.92q-2.58-.255-4.62.69c-1.32.6-2.48 1.55-3.46 2.83-.95 1.26-1.72 2.8-2.32 4.63q-.885 2.73-1.23 6.15l-.18 1.75c-.19 1.98-.12 3.84.24 5.58.38 1.75 1.04 3.3 1.96 4.66.96 1.33 2.15 2.42 3.56 3.27 1.45.82 3.14 1.33 5.06 1.52 2.42.24 4.65 0 6.7-.74 2.08-.77 3.94-2.01 5.58-3.73l5.22 6.62c-1.14 1.36-2.62 2.62-4.45 3.79-1.79 1.18-3.91 2.07-6.36 2.68-2.44.58-5.21.72-8.3.41m89.55-13.09 12.03 1.2c-.75 4.22-2.31 7.88-4.68 10.97-2.37 3.06-5.46 5.34-9.29 6.85q-5.76 2.25-13.53 1.47c-4-.4-7.53-1.46-10.6-3.18a23.4 23.4 0 0 1-7.56-6.89c-1.98-2.88-3.39-6.23-4.21-10.05-.82-3.85-1-8.1-.54-12.73l.49-4.85c.46-4.64 1.49-8.76 3.09-12.37s3.67-6.61 6.2-9.01c2.57-2.42 5.53-4.19 8.88-5.29 3.38-1.11 7.06-1.46 11.06-1.06q7.785.78 12.87 4.2c3.4 2.25 5.92 5.14 7.57 8.66s2.46 7.46 2.44 11.81l-12.03-1.2c.04-2.7-.32-5.03-1.06-6.99-.72-1.96-1.95-3.51-3.69-4.66-1.71-1.17-4.06-1.9-7.06-2.2-2.34-.24-4.44 0-6.3.69-1.84.7-3.43 1.87-4.77 3.5q-2.01 2.4-3.27 6.21c-.84 2.51-1.43 5.45-1.77 8.83l-.49 4.94c-.32 3.24-.35 6.17-.08 8.78.26 2.62.86 4.88 1.79 6.76.93 1.89 2.23 3.39 3.88 4.5 1.66 1.11 3.69 1.78 6.11 2.02 2.95.3 5.39.07 7.32-.68 1.95-.75 3.51-1.97 4.65-3.69 1.17-1.7 2.02-3.89 2.55-6.54m39.53 25.99c-3.58-.36-6.74-1.27-9.48-2.72s-5.02-3.31-6.82-5.58c-1.77-2.3-3.06-4.89-3.86-7.76-.77-2.91-1-5.96-.67-9.17l.17-1.75c.37-3.64 1.22-6.9 2.57-9.77 1.35-2.89 3.09-5.32 5.23-7.29 2.14-1.96 4.61-3.4 7.41-4.29 2.8-.9 5.82-1.19 9.05-.87 3.35.34 6.26 1.2 8.71 2.6 2.45 1.36 4.44 3.15 5.95 5.36 1.52 2.21 2.57 4.79 3.16 7.74.59 2.91.72 6.09.37 9.53l-.48 4.85-37.09-3.7.8-7.96 25.71 2.57.09-.88c.13-1.84-.06-3.55-.55-5.13-.48-1.61-1.35-2.93-2.6-3.97q-1.875-1.605-5.07-1.92c-1.72-.17-3.25.06-4.61.69-1.33.6-2.48 1.55-3.47 2.83-.95 1.26-1.72 2.8-2.31 4.63-.6 1.82-1.01 3.87-1.24 6.15l-.17 1.75c-.2 1.98-.12 3.84.23 5.58.39 1.75 1.04 3.3 1.97 4.66.95 1.33 2.14 2.42 3.56 3.27 1.44.82 3.13 1.33 5.05 1.52 2.42.24 4.66 0 6.7-.74 2.08-.77 3.94-2.01 5.59-3.73l5.21 6.62c-1.14 1.36-2.62 2.62-4.44 3.79-1.8 1.18-3.92 2.07-6.37 2.68-2.44.58-5.21.72-8.3.41m42.34-34.68-3.77 37.65-11.54-1.16 4.73-47.31 10.93 1.09zm15.38-8.53-1.25 10.74q-.945-.27-2.16-.48c-.78-.14-1.52-.24-2.22-.31-1.78-.18-3.36-.09-4.75.27-1.39.33-2.58.91-3.57 1.72-.97.82-1.75 1.86-2.35 3.12-.59 1.24-1 2.67-1.22 4.3l-2.47-.56c.31-3 .89-5.75 1.76-8.26.87-2.5 1.98-4.66 3.34-6.47 1.36-1.8 2.96-3.14 4.82-4.02 1.89-.9 3.98-1.24 6.28-1.01.64.07 1.32.2 2.04.38.75.17 1.33.36 1.75.58m30.89 3.39-.83 8.31-27.11-2.71.83-8.31zm-18.69-13.61 11.59 1.16-4.54 45.3c-.14 1.4-.05 2.49.25 3.29s.82 1.36 1.55 1.7q1.095.51 2.67.66c.76.08 1.47.11 2.12.08a21 21 0 0 0 1.64-.1l-.82 8.66c-1 .23-2.12.38-3.36.46-1.22.09-2.58.06-4.1-.1-2.59-.26-4.82-.92-6.69-1.99-1.86-1.1-3.23-2.69-4.11-4.78-.88-2.12-1.15-4.83-.82-8.12zm38.63 15.61-4.74 47.31-11.58-1.16 4.73-47.31zm-11.14-13.62c.17-1.72.9-3.09 2.18-4.11 1.31-1.01 2.97-1.42 4.98-1.22s3.54.93 4.6 2.18c1.08 1.26 1.53 2.75 1.36 4.47-.17 1.69-.91 3.04-2.22 4.06-1.28 1.02-2.92 1.43-4.93 1.23-2.02-.2-3.56-.93-4.64-2.19-1.06-1.25-1.5-2.73-1.33-4.42m32.03 63.49-11.63-1.16 4.99-49.94c.39-3.91 1.51-7.12 3.35-9.65 1.88-2.55 4.37-4.37 7.49-5.48 3.14-1.09 6.78-1.44 10.92-1.02 2.42.24 4.73.72 6.92 1.44 2.23.69 4.5 1.54 6.81 2.53l-2.64 9.19c-1.49-.65-3.14-1.28-4.93-1.9-1.76-.62-3.88-1.06-6.36-1.3q-4.59-.465-7.08 1.41c-1.62 1.25-2.57 3.23-2.84 5.94zm14.18-46.37-.83 8.31-28.21-2.82.83-8.31zm18.28 1.83-4.74 47.31-11.59-1.16 4.74-47.31zm26.69 42.15c1.64.16 3.13-.01 4.47-.53q2.025-.765 3.33-2.4c.91-1.09 1.47-2.4 1.68-3.94l10.89 1.09c-.38 3.2-1.57 5.98-3.58 8.34-2 2.36-4.53 4.14-7.6 5.33-3.03 1.17-6.34 1.58-9.92 1.22-3.65-.36-6.76-1.29-9.35-2.79-2.59-1.49-4.68-3.43-6.27-5.79-1.56-2.37-2.64-5.04-3.26-8.01-.58-2.98-.71-6.11-.38-9.4l.14-1.4c.33-3.3 1.07-6.34 2.24-9.14 1.19-2.8 2.78-5.2 4.78-7.21q3.045-3 7.29-4.44c2.83-.95 6.06-1.25 9.67-.89 3.82.39 7.1 1.46 9.84 3.24 2.76 1.78 4.83 4.1 6.19 6.98 1.39 2.87 1.93 6.15 1.62 9.83l-10.89-1.09c.11-1.69-.11-3.25-.68-4.66a8.33 8.33 0 0 0-2.65-3.53c-1.2-.94-2.72-1.51-4.55-1.69-1.96-.2-3.63.05-5.02.73-1.37.69-2.49 1.71-3.36 3.07-.84 1.33-1.49 2.85-1.96 4.57-.43 1.7-.74 3.49-.93 5.38l-.14 1.4c-.2 1.93-.25 3.78-.16 5.55.11 1.78.45 3.4 1.01 4.87a8.66 8.66 0 0 0 2.69 3.59c1.23.94 2.85 1.52 4.86 1.72m53.53 3.49 2.19-21.82q.24-2.4-.42-4.23c-.43-1.23-1.19-2.21-2.26-2.97-1.07-.75-2.49-1.22-4.23-1.39-1.55-.16-2.93-.03-4.15.38-1.19.41-2.14 1.06-2.85 1.96-.7.88-1.12 1.92-1.24 3.15l-11.59-1.16c.2-1.95.85-3.76 1.96-5.41 1.11-1.69 2.59-3.13 4.45-4.33 1.89-1.22 4.08-2.11 6.58-2.65q3.795-.81 8.34-.36 5.385.54 9.39 2.79c2.71 1.48 4.75 3.51 6.11 6.09 1.39 2.58 1.9 5.71 1.53 9.38l-2.06 20.64q-.36 3.54-.18 6.12c.16 1.7.48 3.19.97 4.47l-.07.75-11.77-1.18c-.43-1.25-.7-2.81-.81-4.67-.1-1.9-.07-3.75.11-5.56m3.5-18.59-.6 6.87-7.3-.73q-2.715-.27-4.83.09c-1.4.21-2.58.63-3.52 1.24-.94.58-1.68 1.33-2.21 2.25-.53.89-.86 1.93-.98 3.13-.11 1.16.04 2.24.47 3.22.46.99 1.18 1.81 2.14 2.47 1 .63 2.2 1.01 3.6 1.15 2.04.21 3.86-.02 5.45-.69 1.6-.69 2.89-1.59 3.85-2.7.97-1.11 1.53-2.21 1.7-3.28l2.82 5.32c-.52 1.15-1.26 2.36-2.21 3.62s-2.13 2.41-3.53 3.44q-2.1 1.56-4.92 2.43c-1.89.58-4.02.74-6.41.51-3.06-.31-5.74-1.2-8.04-2.66-2.3-1.47-4.04-3.34-5.23-5.6-1.18-2.27-1.64-4.76-1.37-7.47q.375-3.765 2.07-6.51c1.12-1.83 2.67-3.31 4.64-4.44 1.97-1.15 4.34-1.93 7.12-2.33 2.81-.43 5.98-.47 9.51-.11zm44.66-14.22-.83 8.3-27.11-2.7.83-8.31zm-18.69-13.62 11.59 1.16-4.53 45.3c-.14 1.4-.06 2.5.24 3.29.3.8.82 1.37 1.55 1.7.73.34 1.63.56 2.67.67.76.07 1.47.1 2.12.08.65-.03 1.19-.06 1.64-.1l-.82 8.66c-1 .22-2.12.38-3.36.46-1.22.08-2.58.05-4.1-.1-2.59-.26-4.82-.93-6.69-2-1.86-1.09-3.23-2.69-4.11-4.78-.88-2.12-1.15-4.83-.82-8.12zm42.82 64.7c-3.59-.36-6.75-1.27-9.49-2.72s-5.02-3.31-6.82-5.58c-1.77-2.3-3.06-4.89-3.86-7.76-.77-2.91-.99-5.96-.67-9.17l.17-1.75c.37-3.64 1.22-6.9 2.57-9.77 1.35-2.89 3.09-5.32 5.23-7.29 2.14-1.96 4.61-3.4 7.41-4.29 2.8-.9 5.82-1.19 9.05-.87 3.36.34 6.26 1.2 8.71 2.6 2.45 1.36 4.44 3.15 5.95 5.36 1.52 2.21 2.57 4.79 3.16 7.74.59 2.91.72 6.09.37 9.53l-.48 4.85-37.08-3.7.79-7.96 25.71 2.57.09-.88c.13-1.84-.06-3.55-.54-5.13-.49-1.61-1.36-2.93-2.61-3.97-1.25-1.07-2.94-1.71-5.06-1.92q-2.58-.255-4.62.69c-1.33.6-2.48 1.55-3.47 2.83-.95 1.26-1.72 2.8-2.31 4.63-.6 1.82-1.01 3.87-1.24 6.15l-.17 1.74c-.2 1.99-.12 3.85.23 5.59.39 1.75 1.04 3.3 1.97 4.66.95 1.33 2.14 2.42 3.56 3.27 1.44.82 3.13 1.33 5.06 1.52 2.41.24 4.65 0 6.69-.74 2.08-.77 3.94-2.01 5.59-3.73l5.21 6.62c-1.14 1.36-2.62 2.62-4.44 3.79-1.8 1.18-3.92 2.07-6.36 2.68-2.45.58-5.21.72-8.3.41"/></svg>