<svg xmlns="http://www.w3.org/2000/svg" width="2874" height="2800" fill="none"><g clip-path="url(#a)"><path fill="url(#b)" d="M2644.03 1908.59c-264.1 621.84-967.59 970.2-1577.66 876.23-99.272-15.29-371.422-60.84-612.382-275.72-463.84-413.66-563.04-1232.77-188.86-1810.011 272.33-420.13 760.522-658.29 1224.392-646.37 99.92 2.57 482.85 18.38 819.37 295.87 49.43 40.76 158.45 137.61 256.7 291.26 230.72 360.801 250.55 863.481 78.44 1268.741"/><path fill="#0D7FFB" d="M314.78 14.02c-2.57-10.78 10.37-18.45 18.7-11.14C418.1 77.1 622.95 301.008 587.54 705.658c-44.43 507.701 67.16 688.611 202.08 796.691 0 0-181.84-46.81-301.47-230.16C194.42 821.999 360.49 205.719 314.78 14.02"/><path fill="#fff" d="M382.551 169.819c12.17 55.94 23.23 112.09 32.22 168.56 9.29 56.41 16.86 113.09 22.65 169.91 5.58 56.84 10.09 113.78 12.17 170.83 2.34 57.03 2.23 114.1 1.92 171.4 0 57.27-.31 114.96 5.28 172.861 5.52 57.78 18.03 115.84 40.78 169.88 5.68 13.47 11.64 26.89 18.32 39.82 6.45 13.06 13.47 25.84 20.73 38.49 14.63 25.23 30.97 49.54 49.03 72.52 36.25 45.88 79.46 86.2 126.69 119.97 4.97 3.55 11.88 2.4 15.44-2.57 3.49-4.88 2.44-11.63-2.3-15.24l-.03-.03c-11.26-8.54-22.4-17.19-33.12-26.32-5.43-4.48-10.66-9.19-15.97-13.79-5.13-4.8-10.45-9.41-15.42-14.37-20.23-19.49-39.07-40.37-56.28-62.54-34.59-44.13-62.76-93.65-84.58-145.24-10.62-25.93-19.31-52.59-25.93-79.83-6.59-27.25-11.1-55.05-14.02-83.12-5.85-56.181-6.01-113.291-6.43-170.551-.49-57.28-1.38-114.83-4.64-172.26-1.55-28.71-3.62-57.4-6.2-86.03-1.21-14.32-2.69-28.62-4.15-42.92-1.6-14.28-3.27-28.56-5.06-42.81-7.27-57.01-16.27-113.78-27.05-170.18-11.05-56.35-23.6-112.38-38.28-167.84a2.963 2.963 0 0 0-3.63-2.11 2.977 2.977 0 0 0-2.14 3.5z" style="mix-blend-mode:soft-light"/><path fill="#0D7FFB" d="M467.992 1659.05c-5.12 19.77-28.77 27.88-45.11 15.63-90.17-67.59-327.83-281.75-343.06-670.47-12.88-328.251-51.05-505.021-73.94-584.071-4.84-16.72 14.47-29.89 28.29-19.32 152.49 116.66 619.47 541.85 433.82 1258.231"/><path fill="#fff" d="M440.47 1661.8c-.39.32-.82.6-1.29.85a7.97 7.97 0 0 1-10.78-3.32c-2.34-4.41-234.01-446.42-272.52-902.031-.37-4.38 2.89-8.24 7.27-8.62a7.98 7.98 0 0 1 8.62 7.28C210 1208.25 440.17 1647.48 442.49 1651.87c1.82 3.43.88 7.58-2.03 9.93z" style="mix-blend-mode:soft-light"/><path fill="url(#c)" d="M196.7 2611.27c0 24.64 20.18 44.79 44.84 44.79h2424.65c24.66 0 44.84-20.16 44.84-44.79l20.18-1393.38c0-24.64-29.03-72.73-82.22-69.12l-2369.64-61.31c-30.94-.8-60.86 11.11-82.77 32.95a112.88 112.88 0 0 0-33.17 82.61l33.3 1408.25z"/><path fill="#4C9FFA" d="M240.97 2568.29c0 23.33 19.09 42.42 42.42 42.42h2324.33c23.33 0 42.42-19.09 42.42-42.42l19.04-1264.92c-2.24-76.12-68.98-103.48-109.43-101.86l-2271.08-60.93a79.32 79.32 0 0 0-58.15 23.15c-15.4 15.36-23.86 36.37-23.32 58.11l33.78 1346.46z"/><g fill="#91B3FA" opacity=".67"><path d="M2625.02 1967.37h-.09c-3.43-.05-6.18-2.87-6.12-6.31l1.5-102.58a6.21 6.21 0 0 1 6.21-6.12h.09c3.43.05 6.18 2.87 6.12 6.31l-1.5 102.58a6.21 6.21 0 0 1-6.21 6.12M2628.71 1715.98h-.09c-3.43-.05-6.18-2.88-6.12-6.31l5.77-392.9c-.11-23.34-7.19-41.97-21.06-55.26-25.88-24.8-66.97-23.53-68.7-23.45l-725.89-19.47a6.22 6.22 0 0 1-6.05-6.38c.09-3.43 2.73-6.35 6.38-6.04l725.46 19.47c4.51-.27 48.26-1.02 77.4 26.89 16.39 15.71 24.76 37.34 24.89 64.3l-5.77 393.02a6.21 6.21 0 0 1-6.21 6.12z"/></g><path fill="#0057C0" d="M5.65 2771.73h2847.27a5.65 5.65 0 0 0 5.65-5.65v-111.13a5.65 5.65 0 0 0-5.65-5.65H5.65a5.65 5.65 0 0 0-5.65 5.65v111.13a5.65 5.65 0 0 0 5.65 5.65"/><g fill="#4C9FFA" opacity=".3"><path d="M2489.58 458.299c-5.6-.23-9.96-4.96-9.73-10.56.45-10.88.43-21.95-.06-32.89-.25-5.53 3.99-10.23 9.49-10.58.07 0 .13 0 .2-.01 5.6-.25 10.34 4.09 10.59 9.69.51 11.51.53 23.16.06 34.62-.21 5.24-4.37 9.39-9.49 9.71-.35.02-.71.03-1.07.01zm-15.8-96.52a386 386 0 0 0-7.29-32.06c-1.47-5.4 1.71-10.99 7.12-12.46 5.43-1.46 10.99 1.72 12.46 7.13 3.01 11.06 5.59 22.41 7.67 33.73 1.01 5.51-2.64 10.8-8.16 11.81q-.6.105-1.2.15c-5.06.32-9.68-3.19-10.62-8.3zm-24.88-82.47c-4.31-10.03-9.1-19.99-14.25-29.62-2.65-4.94-.78-11.09 4.16-13.74 4.94-2.64 11.09-.78 13.74 4.16a402 402 0 0 1 15.01 31.19c2.21 5.15-.17 11.12-5.32 13.33-1.1.47-2.23.73-3.36.81-4.16.26-8.23-2.08-9.97-6.13zm-42.69-74.83a388 388 0 0 0-20.52-25.7c-3.68-4.23-3.24-10.64.99-14.32s10.64-3.23 14.32.99c7.55 8.67 14.82 17.77 21.6 27.05 3.31 4.53 2.32 10.88-2.21 14.18a10.15 10.15 0 0 1-14.19-2.2zm-58.3-63.46a389 389 0 0 0-25.71-20.51c-4.53-3.31-5.51-9.66-2.2-14.19s9.66-5.51 14.19-2.2c9.29 6.79 18.39 14.06 27.05 21.59 4.23 3.68 4.68 10.09 1 14.32-1.85 2.13-4.4 3.3-7.02 3.47-2.57.16-5.21-.65-7.3-2.47zm-70.89-48.97c-9.62-5.17-19.58-9.98-29.6-14.32-5.15-2.22-7.52-8.2-5.29-13.34 2.22-5.15 8.2-7.52 13.35-5.29 10.55 4.56 21.03 9.63 31.15 15.07 4.94 2.65 6.79 8.81 4.14 13.75-1.72 3.21-4.92 5.11-8.31 5.33-1.83.12-3.71-.26-5.44-1.19zm-376.92-4.73c-2.64-4.95-.77-11.1 4.18-13.73 10.13-5.4 20.64-10.44 31.23-14.96 5.16-2.2 11.12.19 13.32 5.35 2.2 5.15-.19 11.12-5.35 13.32a379 379 0 0 0-29.65 14.21c-1.32.7-2.72 1.09-4.13 1.18a10.17 10.17 0 0 1-9.61-5.36zm296.99-27.3c-10.52-2.9-21.29-5.37-32.02-7.35-5.51-1.02-9.16-6.32-8.14-11.83 1.02-5.52 6.31-9.13 11.83-8.14a405 405 0 0 1 33.72 7.74c5.4 1.49 8.58 7.08 7.09 12.48-1.18 4.29-4.94 7.17-9.14 7.44-1.09.07-2.22-.04-3.34-.35zm-215.59-7.37c-1.46-5.41 1.74-10.98 7.15-12.45 11.09-3 22.45-5.55 33.77-7.61 5.52-1.03 10.8 2.66 11.8 8.18 1 5.51-2.66 10.8-8.18 11.8a389 389 0 0 0-32.09 7.23c-.67.18-1.35.29-2.02.33-4.72.3-9.15-2.74-10.43-7.48m130.52-5.98c-10.9-.47-21.96-.47-32.87-.01-5.6.24-10.33-4.11-10.57-9.71-.23-5.53 4-10.21 9.49-10.56h.22c11.49-.49 23.14-.49 34.61 0 5.6.24 9.95 4.98 9.71 10.58-.22 5.23-4.37 9.37-9.49 9.69-.36.02-.72.03-1.09.01zM1850.11 131.769c1.99-.13 3.97-.84 5.66-2.18 4.1-3.26 8.33-6.48 12.59-9.58 4.53-3.3 5.52-9.66 2.22-14.18-3.3-4.53-9.66-5.53-14.18-2.21-4.48 3.26-8.93 6.65-13.24 10.08-4.39 3.49-5.12 9.87-1.64 14.26 2.15 2.71 5.4 4.02 8.6 3.82z"/></g><g fill="#4C9FFA" opacity=".3"><path d="M1702.12 403.569c4.89-.31 8.97-4.13 9.45-9.16.5-5.21 1.11-10.5 1.83-15.71.76-5.56-3.12-10.68-8.67-11.44a10.13 10.13 0 0 0-11.44 8.67c-.75 5.49-1.4 11.06-1.93 16.54-.53 5.58 3.56 10.54 9.14 11.07.55.05 1.09.06 1.62.02zM2100.31 836.919c-5.61.08-10.22-4.4-10.3-10.01-.08-5.6 4.39-10.2 10-10.29 10.67-.15 21.5-.76 32.32-1.82 5.55-.56 10.54 3.54 11.09 9.12.54 5.58-3.54 10.54-9.12 11.09-4.69.46-9.36.83-14.02 1.13-6.65.42-13.37.69-19.97.78m76.35-18.53c-1.29-5.45 2.08-10.92 7.54-12.21 10.47-2.48 20.95-5.43 31.15-8.78 5.32-1.76 11.06 1.16 12.81 6.49 1.74 5.32-1.16 11.06-6.49 12.8a407 407 0 0 1-32.79 9.24c-.57.14-1.14.22-1.71.26-4.85.31-9.35-2.91-10.51-7.79zm-131.58 15.53a400 400 0 0 1-33.6-5.6c-5.49-1.15-9-6.54-7.85-12.03 1.15-5.48 6.54-8.99 12.02-7.84 10.53 2.22 21.26 4 31.9 5.31 5.56.69 9.52 5.75 8.83 11.32-.61 4.92-4.64 8.58-9.42 8.89-.62.04-1.26.02-1.9-.05zm214.29-42.69c-2.46-5.04-.37-11.12 4.67-13.57 9.66-4.71 19.23-9.9 28.45-15.41a10.14 10.14 0 0 1 13.92 3.51c2.88 4.81 1.31 11.04-3.5 13.92-9.71 5.8-19.79 11.26-29.95 16.22-1.23.6-2.52.93-3.81 1.01-3.98.25-7.91-1.87-9.77-5.68zm-301.07 22.03a405 405 0 0 1-31.53-12.84c-5.1-2.33-7.34-8.35-5.01-13.45s8.35-7.34 13.45-5.01c9.79 4.47 19.86 8.58 29.95 12.2 5.28 1.89 8.02 7.71 6.13 12.98-1.41 3.93-5 6.46-8.92 6.7-1.34.09-2.72-.1-4.07-.58m-80.14-39.19a410 410 0 0 1-27.97-19.41c-4.47-3.39-5.35-9.75-1.96-14.22s9.76-5.35 14.22-1.96c8.56 6.48 17.5 12.69 26.58 18.44 4.74 3 6.14 9.27 3.14 14.01-1.81 2.85-4.81 4.5-7.94 4.7-2.07.13-4.19-.37-6.07-1.56m-69.7-55.73c-8.01-8-15.78-16.42-23.08-25.04-3.62-4.28-3.09-10.68 1.18-14.31 4.28-3.63 10.68-3.09 14.31 1.18 6.94 8.19 14.32 16.19 21.93 23.79 3.97 3.96 3.98 10.39.02 14.35a10.13 10.13 0 0 1-6.54 2.96c-2.81.18-5.67-.8-7.82-2.94zm-55.88-69.61a404 404 0 0 1-17.04-29.5c-2.6-4.97-.67-11.1 4.3-13.7 4.96-2.59 11.1-.67 13.7 4.3 4.97 9.51 10.41 18.94 16.18 28.02 3.01 4.73 1.61 11-3.12 14.01-1.5.95-3.14 1.46-4.79 1.56-3.58.23-7.16-1.45-9.22-4.69zm-39.24-80.22a402 402 0 0 1-10.11-32.51c-1.44-5.42 1.79-10.98 7.21-12.42 5.4-1.43 10.98 1.79 12.41 7.21 2.76 10.39 5.99 20.78 9.6 30.88 1.89 5.28-.86 11.09-6.14 12.98-.92.33-1.85.52-2.78.58-4.4.28-8.64-2.36-10.2-6.72zm-20.65-86.79c-1.03-8.26-1.82-16.65-2.35-24.94-.19-3-.35-6-.47-8.99-.23-5.6 4.04-10.44 9.72-10.56 5.6-.24 10.33 4.12 10.57 9.72q.18 4.26.45 8.55c.5 7.88 1.25 15.86 2.23 23.71.7 5.56-3.25 10.64-8.81 11.33q-.315.045-.63.06c-5.31.34-10.04-3.52-10.7-8.87zM2342.84 750.14c2.01-.13 4.01-.85 5.7-2.21 4.29-3.44 8.58-7.03 12.77-10.68 4.23-3.69 4.66-10.1.98-14.32-3.69-4.22-10.09-4.67-14.32-.98-3.98 3.47-8.06 6.88-12.13 10.15-4.37 3.5-5.08 9.89-1.57 14.27 2.15 2.68 5.38 3.98 8.57 3.78z"/></g><path fill="#4C9FFA" d="M2362.01 577.179a4.73 4.73 0 0 0 0-5.51l-33.44-47.07a251.6 251.6 0 0 0 18.48-79.37l50.74-27.48a4.74 4.74 0 0 0 2.42-4.95l-11.33-68.33c-.33-2-1.89-3.56-3.89-3.9l-56.9-9.63c-10.66-25.62-25.33-48.88-43.11-69.16l16.46-55.35c.58-1.94-.14-4.03-1.79-5.21l-56.33-40.3a4.73 4.73 0 0 0-5.51 0l-47.07 33.44a251.6 251.6 0 0 0-79.37-18.48l-27.48-50.74a4.74 4.74 0 0 0-4.95-2.42l-68.33 11.33c-2 .33-3.56 1.89-3.9 3.89l-9.63 56.9c-25.62 10.66-48.88 25.33-69.16 43.11l-55.35-16.46c-1.94-.58-4.03.14-5.21 1.79l-40.3 56.33a4.73 4.73 0 0 0 0 5.51l33.44 47.07a251.6 251.6 0 0 0-18.48 79.37l-50.74 27.48a4.74 4.74 0 0 0-2.42 4.95l11.33 68.33c.33 2 1.89 3.56 3.89 3.9l56.9 9.63c10.66 25.62 25.33 48.88 43.11 69.16l-16.46 55.35c-.58 1.94.14 4.03 1.79 5.21l56.33 40.3a4.73 4.73 0 0 0 5.51 0l47.07-33.44a251.6 251.6 0 0 0 79.37 18.48l27.48 50.74a4.74 4.74 0 0 0 4.95 2.42l68.33-11.33c2-.33 3.56-1.89 3.9-3.89l9.63-56.9c25.62-10.66 48.88-25.33 69.16-43.11l55.35 16.46c1.94.58 4.03-.14 5.21-1.79z"/><path fill="url(#d)" d="M2088.77 497.769c-38.26-3.18-66.79-36.89-63.61-75.15 1.54-18.53 10.21-35.36 24.4-47.37s32.21-17.79 50.75-16.24c38.26 3.18 66.79 36.89 63.61 75.15-2.89 34.81-31.06 61.56-64.92 63.71-3.36.21-6.77.18-10.22-.1zm-28.72-110.12c-10.88 9.21-17.53 22.11-18.71 36.32-2.44 29.33 19.44 55.18 48.77 57.62 29.34 2.45 55.18-19.44 57.62-48.78 2.44-29.33-19.44-55.18-48.77-57.62-2.66-.22-5.3-.24-7.92-.08-11.36.72-22.15 5.05-30.99 12.53z"/><path fill="url(#e)" d="M2103.95 598.309c5.82-.37 11.65-1.03 17.48-2a172.214 172.214 0 0 0 31.87-8.47c.12-.04.23-.09.35-.13.33-.12.66-.25.99-.38q.96-.36 1.92-.75a4.05 4.05 0 0 0 2.28-5.27c-.82-2.09-3.18-3.1-5.27-2.28a163.6 163.6 0 0 1-33.47 9.26c-57 9.46-112.11-12.02-148.13-52.12-20.04-22.3-34.16-50.36-39.42-82.07-.92-5.56-1.56-11.13-1.91-16.67-2.37-37.34 8.09-74.05 30.16-104.89 25.34-35.42 62.97-58.86 105.94-65.98 88.74-14.71 172.84 45.49 187.55 134.19.91 5.47 1.53 10.96 1.88 16.46 1.51 23.82-2.21 47.7-10.98 69.92-.23.57-.31 1.17-.27 1.75a4.07 4.07 0 0 0 2.56 3.52c2.09.82 4.45-.19 5.27-2.29 9.2-23.33 13.11-48.41 11.53-73.41-.36-5.77-1.02-11.54-1.97-17.28-15.44-93.13-103.79-156.31-196.89-140.88-45.11 7.48-84.6 32.08-111.21 69.27-23.17 32.37-34.15 70.91-31.66 110.11.37 5.82 1.04 11.67 2 17.5 7.48 45.11 32.08 84.61 69.27 111.22 32.38 23.17 70.93 34.15 110.14 31.66z"/><g fill="#4C9FFA" opacity=".3"><path d="M2853.3 703.308c2.71-.17 5.09-2.1 5.71-4.88 1.17-5.19 2.21-10.49 3.07-15.75a6.27 6.27 0 0 0-5.17-7.2c-3.42-.57-6.64 1.76-7.2 5.17-.82 5.01-1.8 10.06-2.92 15.01-.76 3.37 1.36 6.73 4.73 7.5.6.13 1.2.18 1.78.14zM2858.92 655.499c-3.46-.141-6.16-3.041-6.02-6.511.33-8.73.22-17.579-.33-26.299-.12-1.84-.26-3.681-.41-5.531a6.265 6.265 0 0 1 5.72-6.769c3.27-.15 6.48 2.269 6.78 5.719a272.783 272.783 0 0 1 .78 33.37c-.12 3.24-2.69 5.811-5.86 6.021-.21.01-.43.01-.64.01zm-11.38-69.841c-2.17-10.37-5-20.699-8.42-30.699a6.267 6.267 0 0 1 3.91-7.96c3.26-1.11 6.84.629 7.96 3.909a272 272 0 0 1 8.82 32.181 6.266 6.266 0 0 1-5.74 7.54c-3.06.19-5.88-1.881-6.52-4.971zm-20.57-60.129a258 258 0 0 0-15.71-27.701 6.263 6.263 0 0 1 1.83-8.669 6.265 6.265 0 0 1 8.68 1.82 271 271 0 0 1 16.48 29.05 6.275 6.275 0 0 1-2.88 8.389 6.28 6.28 0 0 1-8.39-2.889zm-34.72-53.24a258.5 258.5 0 0 0-22-23c-2.54-2.35-2.7-6.321-.35-8.861 2.34-2.54 6.31-2.7 8.86-.35 8.14 7.52 15.9 15.631 23.07 24.121 2.24 2.64 1.9 6.6-.74 8.84-1.07.9-2.35 1.38-3.64 1.46-1.92.12-3.86-.63-5.19-2.21zm-46.67-43.15c-8.6-6.18-17.66-11.89-26.93-16.97a6.277 6.277 0 0 1-2.49-8.51 6.26 6.26 0 0 1 8.51-2.49c9.72 5.32 19.21 11.31 28.23 17.78a6.271 6.271 0 1 1-7.33 10.18zm-55.72-30.51c-9.83-3.9-20-7.23-30.23-9.88a6.267 6.267 0 0 1-4.49-7.641 6.275 6.275 0 0 1 7.64-4.5 271 271 0 0 1 31.71 10.361 6.263 6.263 0 0 1 3.51 8.139 6.28 6.28 0 0 1-5.43 3.951c-.9.06-1.82-.08-2.71-.43m-61.47-15.951a259 259 0 0 0-31.76-2.16c-3.46-.03-6.25-2.85-6.23-6.31s2.84-6.199 6.31-6.229c11.13.07 22.33.83 33.3 2.27 3.43.45 5.85 3.6 5.41 7.03a6.26 6.26 0 0 1-7.02 5.399zm-102.46.641a6.263 6.263 0 0 1 4.61-7.57c9.31-2.27 18.91-4.071 28.5-5.351 1.46-.2 2.91-.379 4.36-.549 3.41-.5 6.55 2.059 6.95 5.509a6.273 6.273 0 0 1-5.51 6.951c-1.36.15-2.73.329-4.12.519-9.18 1.22-18.33 2.94-27.21 5.1-.37.09-.73.141-1.09.171a6.27 6.27 0 0 1-6.48-4.771z"/></g><g fill="#4C9FFA" opacity=".3"><path d="M2608.2 909.248c-10.91.55-21.95.44-32.82-.33-3.45-.25-6.06-3.24-5.81-6.7.24-3.46 3.26-6.02 6.7-5.81 10.36.73 20.89.84 31.3.31 3.46-.18 6.4 2.49 6.58 5.94.17 3.43-2.45 6.36-5.86 6.57h-.09zm25.4-8.74a6.266 6.266 0 0 1 5.11-7.24 261 261 0 0 0 30.5-7.16c3.3-.98 6.81.89 7.8 4.22.99 3.32-.89 6.8-4.21 7.8a274 274 0 0 1-31.96 7.49 6.27 6.27 0 0 1-7.25-5.12zm-90.77 4.09c-10.73-2.1-21.42-4.88-31.77-8.25a6.274 6.274 0 0 1-4.02-7.9c1.07-3.3 4.6-5.08 7.9-4.02 9.88 3.22 20.07 5.87 30.31 7.88 3.4.67 5.61 3.96 4.95 7.35a6.26 6.26 0 0 1-5.75 5.05c-.53.03-1.06 0-1.61-.11zm152.56-21.02a6.27 6.27 0 0 1 3.22-8.26c9.54-4.18 18.91-8.99 27.86-14.3a6.28 6.28 0 0 1 8.59 2.19c1.77 2.98.79 6.83-2.19 8.59a269 269 0 0 1-29.22 15 6.28 6.28 0 0 1-8.26-3.23zm-214.86.72c-9.88-4.61-19.59-9.88-28.85-15.65-2.94-1.83-3.83-5.7-2-8.64a6.263 6.263 0 0 1 8.64-2c8.83 5.51 18.09 10.53 27.52 14.93a6.26 6.26 0 0 1 3.03 8.33c-1 2.15-3.07 3.47-5.29 3.61-1.01.06-2.06-.11-3.04-.57zm-55.61-34.66a275 275 0 0 1-24.28-22.1 6.27 6.27 0 0 1 .12-8.86c2.48-2.41 6.45-2.37 8.87.12 7.25 7.44 15.04 14.54 23.16 21.08 2.7 2.17 3.12 6.12.95 8.82a6.28 6.28 0 0 1-4.49 2.32c-1.51.1-3.06-.35-4.33-1.38m-45.72-46.98a271 271 0 0 1-18.27-27.29 6.27 6.27 0 0 1 2.25-8.58c2.99-1.75 6.83-.73 8.58 2.25 5.24 8.97 11.1 17.73 17.42 26.02a6.267 6.267 0 0 1-1.19 8.79 6.24 6.24 0 0 1-3.39 1.27c-2.02.13-4.07-.72-5.39-2.46zM2756.85 854.478c1.21-.08 2.4-.5 3.43-1.3 4.25-3.28 8.41-6.71 12.39-10.17a6.27 6.27 0 0 0 .6-8.85 6.29 6.29 0 0 0-8.85-.6c-3.79 3.31-7.77 6.57-11.82 9.71a6.26 6.26 0 0 0-1.12 8.79 6.25 6.25 0 0 0 5.36 2.42z"/></g><path fill="#4C9FFA" d="M2773.49 736.288c.79-1.1.79-2.58 0-3.69l-22.38-31.5a168.2 168.2 0 0 0 12.36-53.11l33.95-18.39a3.18 3.18 0 0 0 1.62-3.31l-7.58-45.72a3.165 3.165 0 0 0-2.6-2.61l-38.07-6.45a168.6 168.6 0 0 0-28.84-46.28l11.01-37.04c.39-1.3-.09-2.7-1.2-3.49l-37.69-26.97c-1.1-.79-2.58-.79-3.69 0l-31.5 22.38a168.2 168.2 0 0 0-53.11-12.36l-18.39-33.95a3.18 3.18 0 0 0-3.31-1.62l-45.72 7.58a3.18 3.18 0 0 0-2.61 2.6l-6.45 38.07a168.3 168.3 0 0 0-46.28 28.85l-37.04-11.01c-1.3-.39-2.7.09-3.49 1.2l-26.97 37.69c-.79 1.1-.79 2.58 0 3.68l22.38 31.5a168.2 168.2 0 0 0-12.36 53.11l-33.95 18.39a3.17 3.17 0 0 0-1.62 3.31l7.58 45.72a3.18 3.18 0 0 0 2.6 2.61l38.07 6.45a168.3 168.3 0 0 0 28.85 46.28l-11.01 37.04c-.39 1.3.09 2.7 1.2 3.49l37.69 26.97c1.1.79 2.58.79 3.69 0l31.5-22.38a168.2 168.2 0 0 0 53.11 12.36l18.39 33.95a3.18 3.18 0 0 0 3.31 1.62l45.72-7.58a3.18 3.18 0 0 0 2.61-2.6l6.45-38.07a168.3 168.3 0 0 0 46.28-28.85l37.04 11.01c1.3.39 2.7-.09 3.49-1.2l26.97-37.69z"/><path fill="url(#f)" d="M2590.58 683.978c-12.63-1.05-24.09-6.95-32.27-16.62-8.18-9.66-12.11-21.94-11.06-34.57 2.16-26.06 25.09-45.46 51.19-43.33 26.06 2.17 45.5 25.14 43.33 51.19-1.05 12.62-6.95 24.09-16.62 32.27-7.86 6.65-17.44 10.49-27.54 11.13-2.32.15-4.67.12-7.03-.07m-30.84-50.15c-.77 9.29 2.12 18.32 8.14 25.43s14.45 11.45 23.74 12.22c9.29.76 18.32-2.12 25.43-8.14s11.45-14.45 12.22-23.73c1.59-19.17-12.7-36.06-31.87-37.66a35 35 0 0 0-5.12-.05c-16.97 1.08-31.09 14.49-32.53 31.92z"/><path fill="url(#g)" d="M2601.15 753.959c3.96-.25 7.94-.71 11.93-1.36 7.93-1.31 15.74-3.43 23.22-6.31.34-.13.67-.26 1.01-.4a6.268 6.268 0 0 0 3.52-8.14c-1.27-3.22-4.92-4.78-8.13-3.52-6.96 2.75-14.25 4.77-21.66 5.99-.41.07-.82.13-1.22.19-17.57 2.74-35.16 1-51.47-4.84-8.85-3.17-17.33-7.55-25.23-13.09l-.19-.13c-.2-.14-.39-.28-.58-.42-22.93-16.41-38.1-40.76-42.71-68.58-.6-3.6-1.01-7.2-1.24-10.79-1.53-24.17 5.24-47.94 19.53-67.91 16.41-22.93 40.77-38.1 68.58-42.71 27.8-4.6 55.77 1.88 78.7 18.29s38.1 40.76 42.71 68.58c.59 3.54.99 7.1 1.22 10.65a105.1 105.1 0 0 1-7.11 45.27c-.35.89-.48 1.8-.42 2.7a6.27 6.27 0 0 0 3.96 5.44c3.22 1.26 6.86-.31 8.13-3.53 6.35-16.1 9.05-33.4 7.96-50.64-.25-3.98-.7-7.96-1.36-11.92-5.16-31.13-22.13-58.37-47.79-76.73-25.65-18.35-56.91-25.65-88.04-20.46-31.12 5.16-58.37 22.13-76.73 47.79-15.98 22.33-23.56 48.92-21.85 75.97.25 4.01.71 8.05 1.38 12.07 10 60.25 64.21 102.35 123.9 98.56z"/><path fill="#D5EBFF" d="m2008.17 360.299-1532.28-9.38c-50.36-.31-90.63 41.75-88.14 92.05L490.37 2562.17c1.57 32.37 28.26 57.8 60.67 57.8h1589.17c32.54 0 59.35-25.54 60.93-58.04l91.85-1887.001-284.82-314.64z"/><path fill="#9FCDFF" d="M2071.88 665.609c-49.91-1.76-88.29-44.78-84.35-94.56l16.43-207.88 289.33 310.49-221.4-8.05z"/><path fill="#4C9FFA" d="M734.822 751.988c212.35 5.96 1027.558 27.98 1233.418 33.54 25.97.7 46.6 17.36 45.6 36.78-.95 18.48-21.27 32.65-45.98 32.07l-1232.848-29.05c-23.75-.56-43.56-14.58-45.71-32.35l-.54-4.5c-2.45-20.32 18.91-37.27 46.06-36.5z"/><path fill="#B3D8FF" d="M710.411 967.249c3.37 4.7 9.8 7.76 16.83 8.01l846.039 29.691c10.63.37 19.45-5.681 19.86-13.631l2.14-41.71c.43-8.29-8.43-15.39-19.51-15.65l-822.949-19.23c-36.65-.86-59.97 28.01-42.42 52.51z"/><path fill="#4C9FFA" d="M714.021 1129.21c212.35 5.96 1027.559 27.98 1233.419 33.54 25.97.7 46.6 17.36 45.6 36.78-.95 18.48-21.27 32.65-45.98 32.07l-1232.849-29.05c-23.75-.56-43.56-14.58-45.71-32.35l-.54-4.5c-2.45-20.32 18.91-37.27 46.06-36.5z"/><path fill="#B3D8FF" d="M689.602 1344.47c3.37 4.7 9.8 7.76 16.83 8.01l846.038 29.69c10.63.37 19.45-5.68 19.86-13.63l2.14-41.71c.43-8.29-8.43-15.39-19.51-15.65l-822.948-19.23c-36.65-.86-59.97 28.01-42.42 52.51z"/><path fill="#0057C0" d="M791.066 2030.42c7.32-92.28 38.97-182.75 88.671-262.1 24.977-39.63 54.328-76.75 87.961-109.84 8.616-8.05 17.03-16.34 25.858-24.18 9.084-7.55 17.954-15.38 27.244-22.69 9.51-7.05 18.91-14.26 28.67-20.97l14.91-9.71 7.45-4.85 3.72-2.43c1.35-.83 3.17-1.9 4.78-2.75 26.18-14.29 63.78-14.95 89.16 10.26 6.19 6.05 10.49 13.33 13.7 20.47 1.46 3.59 2.87 7.24 3.72 10.78 1.1 3.61 1.68 7.08 2.29 10.59 2.24 13.98 1.6 26.97.29 39.52-.67 6.26-1.71 12.42-2.82 18.41l-3.4 16.92c-2.18 11.3-4.73 22.53-7.23 33.76-5.02 22.47-10.71 44.77-16.68 67-24.29 88.82-56.47 175.52-96.27 258.65l-15.24 31.02c-5.33 10.22-10.54 20.51-15.97 30.66l-8.26 15.19-4.14 7.6-4.54 7.92c-6.3 10.55-13.32 20.78-21.516 30.52-8.221 9.7-17.525 19.02-29.118 26.86-11.481 7.74-25.969 14.04-42.036 14.81-3.979.4-7.958-.01-11.927-.43-4.03-.21-7.715-1.51-11.542-2.4-7.593-2.02-14.792-5.66-21.109-10.08-12.737-8.93-21.88-21.29-27.549-34.59-5.467-13.15-7.867-26.88-7.968-40.23-.162-13.35 1.863-26.04 4.627-38.03 2.835-12.02 6.348-23.27 10.225-34.27l5.721-16.61 6.439-16.34c17.272-43.55 40.123-84.74 66.811-123.16 26.597-38.52 58.004-73.66 92.592-105.25l6.46-5.95 6.73-5.65 13.48-11.27c4.59-3.64 9.31-7.13 13.96-10.7 4.67-3.52 9.25-7.18 14.15-10.42 9.65-6.67 19.2-13.47 29.28-19.49l7.46-4.66 3.73-2.32c.67-.4 1.14-.74 1.96-1.2l2.46-1.36c6.64-3.45 13.9-5.76 21.41-6.54 14.92-1.75 31.05 2.65 42.66 13.11 5.98 5.22 10.77 12.68 12.95 20.37 2.3 7.71 2.22 15.13 1.55 21.81-.72 6.71-2.17 12.85-3.72 18.64l-4.67 16.54-9.32 32.78c-12.32 43.73-25.14 87.34-37.69 131l-.03.1-19.4-3.42c1.45-14.7 5.45-29.54 13.66-42.87 4.18-6.61 9.27-12.73 15.69-17.84 6.42-5.18 13.86-8.8 21.71-11.1 7.88-2.18 16.31-2.98 24.75-1.59 4.2.68 8.4 1.84 12.36 3.68 2.02.83 3.9 1.97 5.78 3.07l3.91 2.43c9.5 5.28 21.34 6.28 31.08 2.03 2.46-.97 4.72-2.36 6.87-3.89 1.01-.84 2.1-1.59 3.02-2.56l1.47-1.41 1.77-1.86 14.13-14.9 28.27-29.8 28.26-29.8 14.14-14.9c3.47-3.61 8.45-6.79 13.99-7.89 5.54-1.16 11.29-.39 16.18 1.81 4.91 2.19 9.14 5.78 12.04 10.46 2.9 4.67 4.16 10.54 3.5 15.9-.07 1.38-.37 2.66-.74 3.92-.32 1.19-.77 2.75-1.01 3.32l-1.69 4.7-3.21 9.47c-4.15 12.65-7.66 25.52-10.59 38.51-2.91 13-5.22 26.13-6.88 39.33-.18 1.62-.43 3.36-.56 4.89l-.13 4.03c-.17 1.36.08 2.66.27 3.96.25 1.28.14 2.66.64 3.89 1.12 5.13 3.88 9.72 7.28 13.74 3.39 4.09 8.1 7.08 13.04 9.15 2.45 1.19 5.12 1.63 7.73 2.3 2.67.23 5.34.63 7.99.3 5.26-.41 10.51-1.77 14.99-4.73l1.76-.97 1.56-1.29 3.19-2.57 7.3-7.07c19.44-18.87 38.05-38.59 55.71-59.12 35.25-41.09 66.81-85.28 94.13-131.9l10.01-17.61 4.83-8.89 2.42-4.46.61-1.11c.03-.13-.04-.06-.04-.06.12-.05-.05.1 0 .21-.03.75.31.9.23.83 0 0 .14.1.45.07.3-.06.7-.14.7-.2h-.04l-.87.87-1.74 1.74c-1.18 1.16-2.31 2.35-3.43 3.55-2.28 2.36-4.47 4.82-6.65 7.27-8.64 9.91-16.5 20.5-23.41 31.67a247 247 0 0 0-9.72 17.13c-1.49 2.92-2.95 5.87-4.33 8.85l-2.02 4.48-1 2.25-.66 2.01c-3.93 10.55-3.99 22.19.89 32.19 4.76 9.94 13.45 18.39 24.02 22.18 5.15 2.26 10.79 2.72 16.29 2.87 5.49-.52 11.07-1.39 16.19-3.99l3.88-1.77 4.38-2.51c2.9-1.7 5.87-3.31 8.72-5.1 5.8-3.45 11.5-7.04 17.14-10.71 45.13-29.44 85.54-65.95 119.14-107.76l.02-.02c3.39-4.23 9.61-4.94 13.89-1.57 4.27 3.35 4.99 9.49 1.6 13.72-34.94 43.49-76.9 81.37-123.74 111.94a528 528 0 0 1-17.79 11.12c-2.97 1.85-6.04 3.53-9.06 5.29l-4.56 2.62-5.47 2.55c-7.24 3.55-15.49 5.11-23.66 5.71-8.19-.05-16.54-.99-24.09-4.18-15.39-5.66-27.84-17.58-34.83-32.21-7.17-14.64-7.13-32.39-1.47-47.21l.98-2.82 1.08-2.43 2.18-4.84c1.49-3.21 3.06-6.38 4.67-9.54 3.26-6.3 6.75-12.46 10.49-18.49 7.47-12.04 15.96-23.49 25.3-34.22 2.36-2.66 4.73-5.31 7.2-7.88 1.21-1.3 2.45-2.58 3.72-3.83l1.88-1.89.94-.95c.61-.54 1.29-1.11 1.94-1.63 2.73-2.06 6.41-3.66 10.19-3.78 3.75-.19 7.33.75 10.35 2.41 5.94 3.2 10.39 10.08 9.8 17.68-.18 1.77-.53 3.66-1.19 5.18-.3.76-.68 1.62-.99 2.27l-.62 1.14-2.47 4.55-4.94 9.1-10.23 18c-27.92 47.64-60.16 92.8-96.19 134.77-18.03 20.98-37.04 41.13-56.92 60.41l-7.46 7.22-4.78 3.93-2.44 1.92-2.71 1.59c-7.07 4.54-15.55 6.92-23.93 7.52-4.24.43-8.43-.05-12.61-.53-4.08-.92-8.21-1.78-12.02-3.52-7.66-3.2-14.84-7.88-20.31-14.29-5.44-6.31-9.79-13.84-11.65-22.06-.69-2-.7-4.11-1.05-6.17-.28-2.07-.57-4.14-.4-6.19l.23-6.17.61-5.25c1.73-13.82 4.15-27.54 7.19-41.14 3.07-13.59 6.73-27.05 11.08-40.29l3.35-9.89 1.77-4.93c.39-1.01.31-1.12.46-1.57.13-.38.26-.76.21-1.09.17-1.38-.07-2.53-.76-3.7-.7-1.14-1.91-2.19-3.28-2.79-2.94-1.14-5.1-.73-7.6 1.65l-14.13 14.9-28.27 29.8-28.26 29.8-14.14 14.89-1.76 1.87-2.22 2.16c-1.46 1.5-3.17 2.76-4.82 4.07-3.41 2.48-7.07 4.67-11 6.25-15.67 6.76-34.09 5.1-48.55-3l-4.85-2.98c-1.09-.6-2.12-1.29-3.31-1.75-2.27-1.08-4.77-1.76-7.35-2.18-5.17-.87-10.78-.39-16.14 1.09-10.87 3.02-19.78 10.33-26.01 20.39-6.17 9.99-9.62 22.1-10.8 34.44l-19.4-3.42.02-.1c11.12-44.05 21.97-88.16 33.32-132.15l8.45-33.01 4.16-16.36c1.25-5.21 2.23-10.2 2.59-14.79.34-4.57.12-8.76-1-11.92-1.1-3.19-2.75-5.62-5.41-7.88-5.58-4.77-13.59-6.87-21.39-5.73-3.91.5-7.75 1.86-11.2 3.78l-1.28.76-1.67 1.09-3.49 2.31-6.99 4.61c-9.43 5.97-18.34 12.7-27.35 19.26-4.58 3.19-8.83 6.81-13.19 10.27-4.33 3.51-8.72 6.93-12.99 10.51l-12.53 11.04-6.28 5.51-6.04 5.75c-32.35 30.53-61.618 64.33-86.2 101.22-24.683 36.78-45.651 76.06-61.233 117.32l-5.821 15.48-5.113 15.71c-3.524 10.48-6.581 21.01-8.788 31.14-4.546 20.28-4.698 39.74 2.278 55.58 3.351 7.51 8.545 13.98 14.69 18.08 3.088 2.05 6.288 3.66 9.831 4.44 3.574.9 7.037 1.45 10.54 1.1 6.945-.39 14.407-3.26 21.788-8.3 7.37-5.04 14.397-12 20.826-19.74 6.429-7.77 12.301-16.41 17.586-25.45l3.888-6.92 3.958-7.43 7.928-14.87c5.222-9.95 10.202-20 15.322-30l14.6-30.35c37.89-81.39 69.1-165.83 92.52-252.36 5.75-21.66 11.23-43.39 16.06-65.26 2.4-10.94 4.86-21.87 6.95-32.87l3.27-16.48c.94-5.18 1.77-10.23 2.28-15.25 1.05-9.98 1.35-19.91-.11-28.37-1.42-8.51-4.22-15.34-8.2-19.16-1.83-2.17-4.36-3.53-7.18-4.98-3.17-1.14-6.37-2.34-9.92-2.49-6.96-.62-14.65 1-21.53 4.65-.92.48-1.58.85-2.67 1.51l-3.47 2.24-6.95 4.47-13.92 8.93c-9.17 6.13-17.85 12.93-26.91 19.26-8.79 6.64-17.21 13.8-25.85 20.66-8.4 7.17-16.41 14.77-24.646 22.12-31.923 30.51-60.839 64.3-85.674 100.94-49.903 73.13-84.246 157.02-99.463 245.09-.911 5.32-6.014 8.91-11.4 8.01-5.072-.85-8.586-5.43-8.221-10.4z"/><path fill="#0056B2" d="M1806.92 1733.73c-3.25 0-6.43-1.62-8.28-4.58-2.86-4.57-1.48-10.6 3.09-13.46l97.54-61.1c4.57-2.86 10.6-1.48 13.46 3.09s1.48 10.59-3.09 13.46l-97.53 61.1a9.7 9.7 0 0 1-5.17 1.49z"/><path fill="url(#h)" d="M2268.15 2780.52c30.12 2.6 82.39 6.83 123.6 8.65 24.77 1.09 39.03-1.34 47.25-4.62-.01.93-.04 1.8-.08 2.61-.19 4.34-3.72 7.81-8.1 8.05-77.86 4.35-139.79 1.5-161.84.16-4.56-.28-7.28-5.23-4.94-9.12 1.17-1.94 2.58-3.85 4.11-5.73"/><path fill="#0D7FFB" d="M2391.74 2789.16c-41.21-1.81-93.48-6.04-123.6-8.65 29.61-36.33 123.6-60.82 123.6-60.82h26.54c18.26 26.32 20.9 51.37 20.7 64.84-8.21 3.29-22.47 5.71-47.25 4.62z"/><path fill="url(#i)" d="m2422.76 2676.37-2.48 49.16c-.27 5.32-4.25 9.8-9.58 10.56-5.3.76-12.41.86-19.94-1.65-4.63-1.54-8.07-5.45-8.93-10.21l-8.58-47.85h49.52z"/><path fill="url(#j)" d="M2767.54 2788.79c13.06-1.82 18.97-8.61 21.45-15.86.02.07.03.13.05.19 1.92 7.65-2.53 15.58-11.44 19.35-10.76 4.56-22.53 5.33-31.67 4.96-9.8-.4-18.8-4.46-23.75-10.95l-.07-.1c9.84 4.87 23.65 5.44 45.43 2.4z"/><path fill="#0D7FFB" d="M2705.96 2676.05h21.89c33.34-.68 54.28 69.65 61.14 96.88-2.48 7.25-8.39 14.04-21.45 15.86-21.78 3.04-35.59 2.46-45.43-2.4-18.01-23.7-26.94-58.42-31.24-78.69-4.88-23.04 15.09-31.65 15.09-31.65"/><path fill="url(#k)" d="m2725.03 2630.43 12.16 48.35c1.49 5.93-1.35 12.06-6.83 14.87-6.8 3.49-16.37 7.16-25.17 6.1-4.14-.5-7.58-3.41-8.94-7.31l-17.85-50.87z"/><path fill="#000" d="M2739.53 2644.4c-15.12 13.42-64.32 15.19-64.32 15.19-177.19-425.28-249.68-485.7-249.68-485.7 25.59 160.52 4.13 515.9 4.13 515.9-29.24 12.9-66.94 0-66.94 0-2.38-262.8-42.77-491.98-90.49-672.66 119.76-2.69 183.45-43.67 204.25-60.12 99.83 160.95 263.05 687.4 263.05 687.4z"/><path fill="#0D7FFB" d="M2446.07 1467.92c22.67 113.07 14.54 315.44 9.21 407.75-1.5 25.94 16.61 61.91 31.25 86.45 2.3 3.85.88 8.78-3.11 10.83-24.51 12.6-107.54 51.64-203.77 56.49-6.42.32-12.15-4.05-13.81-10.25-71.38-266.54-154.3-436.85-154.3-436.85 91.54-146.18 334.53-114.42 334.53-114.42"/><path fill="url(#l)" d="M2413.45 2163.82c1.01 0 2.03-.27 2.95-.83a5.683 5.683 0 0 0 1.9-7.79c-.95-1.57-23.87-38.62-70.26-60.99-2.82-1.35-6.21-.18-7.58 2.64a5.676 5.676 0 0 0 2.65 7.58c43.24 20.86 65.28 56.32 65.5 56.68a5.68 5.68 0 0 0 4.85 2.72z"/><path fill="url(#m)" d="M2588.26 1792.43c-7.28 52.67-28.79 110.13-71.83 171.16l-16.36-13.34s18.89-76.62 8.15-163.58c26.55-5.18 57.9.16 80.04 5.76"/><path fill="#0D7FFB" d="m2420.75 1607.44 25.32-139.51s169.17 129.31 142.19 324.51c-22.14-5.6-53.49-10.94-80.04-5.76-7.73-62.64-30.84-130.64-87.47-179.24M2108.9 1583.46l97.75 120.35c10.56 84.9-24.67 131.67-68.9 157.36-12.45-36.77-29.59-64.68-43.69-83.42 45.03-78.29 14.84-194.3 14.84-194.3z"/><path fill="url(#n)" d="M2094.05 1777.75c14.1 18.74 31.24 46.66 43.69 83.42-114.74 81.49-172.14 31.14-172.14 31.14v-16.09c0-14.27 9.47-26.97 23.27-30.59 46.16-12.12 88.76-39.33 105.18-67.87z"/><path fill="url(#o)" d="m2171.71 1408.72 31.52 115.89c3.54 13.02 17.62 20.01 30.15 15 13.52-5.4 30.67-12.78 45.44-20.75 15.76-8.51 20.69-28.78 10.72-43.66l-65.54-97.73z"/><path fill="url(#p)" d="M2102.74 1320.67c-.29 1.99 26.29 132.25 26.29 132.25l74.05-16.76-6.85-127.2s-88.69-21.61-93.49 11.71"/><path fill="url(#q)" d="m2179.58 1337.31 8.85 66.68c.11.86.11 1.7 0 2.55-.75 5.23-4.64 23.02-22.6 17.93-16.3-4.62-31.24-8.59-41.56-5.43a9.39 9.39 0 0 0-6.46 10.86c2.42 11.83 8.36 38.4 17.04 60.69 1.76 4.52 6.72 6.9 11.38 5.54 14.04-4.09 43.42-13.56 65.27-26.71 2.96-1.78 4.72-5 4.58-8.45-.71-16.83-2.68-68-1.02-82.34 1.55-13.46 18.08-21.53 25.26-24.42 2.35-.95 4.2-2.8 5.14-5.16 3.32-8.33 7.91-27.61-16.39-35.51-5.08-1.65-7.76-7.13-5.96-12.17 3.6-10.02 5.12-25.3-13.68-33.73-19.1-8.56-33.37 1.62-41.07 9.9-3.11 3.35-8.11 3.86-11.98 1.41-2.2-1.39-5.03-1.85-8.46.29-4.61 2.87-10.72.92-13.11-3.97-4.57-9.39-13.9-19.45-32.6-16.24-33.18 5.68-36.94 42.45-28.19 64s44.38 13.34 62.25 2.48c13.59-8.26 31.22.4 38.88 5.02a9.32 9.32 0 0 1 4.41 6.77z"/><path fill="url(#r)" d="M2218.03 1402.94s-13.64-38.2.37-47.56 34.77-4.5 30.2 23.17c-5.68 34.42-30.58 24.38-30.58 24.38z"/><path fill="#002F61" d="m2766.79 1637.44-1245.34 408.69 59.44 183.5 1252.52-398.73c26.6-8.47 43.23-34.79 39.57-62.47-3.76-28.43-16.56-67.49-51.4-113.86-12.67-16.86-34.74-23.72-54.78-17.14zM1190.63 2242.92l147.71-87.87c14.23 18.67 26.75 47.4 27.5 90.88l-170.17 12.9c-9.03.69-12.82-11.29-5.03-15.92z"/><path fill="url(#s)" d="M1521.44 2046.14c75.81 85.15 59.44 183.5 59.44 183.5l-215.04 16.3c-.75-43.48-13.27-72.21-27.5-90.88z"/><path fill="#91B3FA" d="M2788.74 1690.83a3.63 3.63 0 0 0 1.22-4.01 3.63 3.63 0 0 0-4.58-2.31l-1189.84 393.11a3.62 3.62 0 0 0-2.31 4.58 3.63 3.63 0 0 0 4.58 2.31l1189.84-393.11c.4-.13.77-.33 1.08-.57zM2816.21 1759.61a3.63 3.63 0 0 0 1.22-4.01 3.63 3.63 0 0 0-4.58-2.31L1623.01 2146.4a3.62 3.62 0 0 0-2.31 4.58 3.63 3.63 0 0 0 4.58 2.31l1189.84-393.11c.4-.13.77-.33 1.08-.57z"/><path fill="url(#t)" d="m2506.81 1947.93-76.36-6.22-33.07 30.49s7.82 10.82 32.28 4.6 57.97-7.74 57.97-7.74 33.77 15.22 34.18-13.26l-15-7.86z"/><path fill="url(#u)" d="M2016.38 1924.19c-6.6 5.16-29.23-5.61-43.08-13.06-6.75-3.63-10.02-11.52-7.7-18.82 3.33-10.51 8.88-24.07 15.72-25.78 11.35-2.84 62.27 36.4 35.05 57.66z"/></g><defs><linearGradient id="b" x1="2991.32" x2="947.859" y1="2837.19" y2="1049.17" gradientUnits="userSpaceOnUse"><stop stop-color="#DAE3FE"/><stop offset="1" stop-color="#E9EFFD"/></linearGradient><linearGradient id="c" x1="1436.13" x2="1487.68" y1="823.929" y2="2844.98" gradientUnits="userSpaceOnUse"><stop stop-color="#09005D"/><stop offset="1" stop-color="#1A0F91"/></linearGradient><linearGradient id="d" x1="2024.92" x2="2164.16" y1="428.389" y2="428.389" gradientUnits="userSpaceOnUse"><stop stop-color="#DAE3FE"/><stop offset="1" stop-color="#E9EFFD"/></linearGradient><linearGradient id="e" x1="1922.19" x2="2264.61" y1="427.449" y2="427.449" gradientUnits="userSpaceOnUse"><stop stop-color="#DAE3FE"/><stop offset="1" stop-color="#E9EFFD"/></linearGradient><linearGradient id="f" x1="2547.08" x2="2641.93" y1="636.718" y2="636.718" gradientUnits="userSpaceOnUse"><stop stop-color="#DAE3FE"/><stop offset="1" stop-color="#E9EFFD"/></linearGradient><linearGradient id="g" x1="2475.63" x2="2711.87" y1="636.069" y2="636.069" gradientUnits="userSpaceOnUse"><stop stop-color="#DAE3FE"/><stop offset="1" stop-color="#E9EFFD"/></linearGradient><linearGradient id="h" x1="2438.99" x2="2263.18" y1="2789.02" y2="2789.02" gradientUnits="userSpaceOnUse"><stop stop-color="#09005D"/><stop offset="1" stop-color="#1A0F91"/></linearGradient><linearGradient id="i" x1="2422.76" x2="2373.24" y1="2706.46" y2="2706.46" gradientUnits="userSpaceOnUse"><stop stop-color="#FEBBBA"/><stop offset="1" stop-color="#FF928E"/></linearGradient><linearGradient id="j" x1="2789.47" x2="2722.1" y1="2785.23" y2="2785.23" gradientUnits="userSpaceOnUse"><stop stop-color="#09005D"/><stop offset="1" stop-color="#1A0F91"/></linearGradient><linearGradient id="k" x1="2737.58" x2="2678.4" y1="2665.18" y2="2665.18" gradientUnits="userSpaceOnUse"><stop stop-color="#FEBBBA"/><stop offset="1" stop-color="#FF928E"/></linearGradient><linearGradient id="l" x1="2458.83" x2="2319.33" y1="1956.07" y2="2259.68" gradientUnits="userSpaceOnUse"><stop stop-color="#4F52FF"/><stop offset="1" stop-color="#4042E2"/></linearGradient><linearGradient id="m" x1="1847.88" x2="1794.25" y1="-2216.5" y2="-2531.37" gradientUnits="userSpaceOnUse"><stop stop-color="#FEBBBA"/><stop offset="1" stop-color="#FF928E"/></linearGradient><linearGradient id="n" x1="2129.06" x2="1959.84" y1="1826.54" y2="1869.3" gradientUnits="userSpaceOnUse"><stop stop-color="#FEBBBA"/><stop offset="1" stop-color="#FF928E"/></linearGradient><linearGradient id="o" x1="2232.77" x2="2234.59" y1="1376.77" y2="1686.61" gradientUnits="userSpaceOnUse"><stop stop-color="#FEBBBA"/><stop offset="1" stop-color="#FF928E"/></linearGradient><linearGradient id="p" x1="2132.21" x2="2254.35" y1="1325.98" y2="1547.46" gradientUnits="userSpaceOnUse"><stop stop-color="#FEBBBA"/><stop offset="1" stop-color="#FF928E"/></linearGradient><linearGradient id="q" x1="2240.54" x2="2060.23" y1="1390.78" y2="1364.76" gradientUnits="userSpaceOnUse"><stop stop-color="#09005D"/><stop offset="1" stop-color="#1A0F91"/></linearGradient><linearGradient id="r" x1="2330.48" x2="2227.33" y1="1516.02" y2="1374.33" gradientUnits="userSpaceOnUse"><stop stop-color="#FEBBBA"/><stop offset="1" stop-color="#FF928E"/></linearGradient><linearGradient id="s" x1="1194.7" x2="2435.03" y1="2110.91" y2="2285.96" gradientUnits="userSpaceOnUse"><stop stop-color="#FEBBBA"/><stop offset="1" stop-color="#FF928E"/></linearGradient><linearGradient id="t" x1="1750.36" x2="1696.73" y1="-2199.89" y2="-2514.77" gradientUnits="userSpaceOnUse"><stop stop-color="#FEBBBA"/><stop offset="1" stop-color="#FF928E"/></linearGradient><linearGradient id="u" x1="2024.28" x2="1964.86" y1="1895.97" y2="1895.97" gradientUnits="userSpaceOnUse"><stop stop-color="#FEBBBA"/><stop offset="1" stop-color="#FF928E"/></linearGradient><clipPath id="a"><path fill="#fff" d="M0 0h2873.47v2800H0z"/></clipPath></defs></svg>